SplineFontDB: 3.0
FontName: LinBiolinumOB
FullName: Linux Biolinum O Bold
FamilyName: Linux Biolinum O
Weight: Bold
Copyright: Linux Libertine by Philipp H. Poll,\nOpen Font under Terms of following Free Software Licenses:\nGPL (General Public License) with font-exception and OFL (Open Font License).\nCreated with FontForge (http://fontforge.sf.net)\nSept 2003, 2004, 2005, 2006, 2007, 2008, 2009, 2010
UComments: "2003-08-29: Created.+AAoA-2004-07-25: v(1.0) release candidate+AAoA-2005-12-28: v(1.1.0) stable+AAoA-2006-01-01: v(2.0.0) stable+AAoA-2006-09-05: v(2.2.0) stable+AAoA-2006-12-04: v(2.3.0) stable+AAoA-2007-03-11: v(2.4.0) stable+AAoA-2007-12-00: v(2.7.0) stable+AAoA-2008-06-00: v(2.8.14) stable+AAoA" 
Version: 0.5.0
ItalicAngle: 0
UnderlinePosition: -98
UnderlineWidth: 40
Ascent: 754
Descent: 246
LayerCount: 2
Layer: 0 0 "Back"  1
Layer: 1 0 "Fore"  0
NeedsXUIDChange: 1
XUID: [1021 993 1524925707 2876416]
FSType: 0
OS2Version: 0
OS2_WeightWidthSlopeOnly: 0
OS2_UseTypoMetrics: 0
CreationTime: 1156455862
ModificationTime: 1267958134
PfmFamily: 17
TTFWeight: 700
TTFWidth: 5
LineGap: 0
VLineGap: 0
OS2TypoAscent: 894
OS2TypoAOffset: 0
OS2TypoDescent: -246
OS2TypoDOffset: 0
OS2TypoLinegap: 0
OS2WinAscent: 894
OS2WinAOffset: 0
OS2WinDescent: 246
OS2WinDOffset: 0
HheadAscent: 894
HheadAOffset: 0
HheadDescent: -246
HheadDOffset: 0
OS2FamilyClass: 261
OS2Vendor: 'PfEd'
Lookup: 3 0 0 "'aalt' Alle Alternativen zeigen"  {"'aalt' Alle Alternativen zeigen 1"  } ['aalt' ('DFLT' <'dflt' > 'cyrl' <'dflt' > 'grek' <'dflt' > 'latn' <'AZE ' 'CRT ' 'DEU ' 'MOL ' 'ROM ' 'TRK ' 'dflt' > ) ]
Lookup: 1 0 0 "'locl' Localized Forms Romaenisch"  {"'locl' Localized Forms Romaenisch 1"  } ['locl' ('latn' <'MOL ' 'ROM ' > ) ]
Lookup: 1 0 0 "'smcp' Gemeine nach Kapitaelchen i > i.sc"  {"'smcp' Gemeine nach Kapitaelchen i > i.sc 1"  } ['smcp' ('DFLT' <'dflt' > 'cyrl' <'dflt' > 'grek' <'dflt' > 'latn' <'DEU ' 'MOL ' 'ROM ' 'dflt' > ) ]

StartChar: exclam
Encoding: 33 33 0
Width: 250
VWidth: 999
Flags: HW
HStem: -11 123<86.5638 163.965> 638 20G<110 137>
VStem: 63 121<439.802 641.75> 63 124<9.77582 88.1892>
LayerCount: 2
Fore
SplineSet
122 658 m 0
 152 658 184 635 184 585 c 0
 184 520 166.1 478 155 392 c 0
 141.1 284 140 224 138 210 c 0
 137 199 133 190 122 190 c 0
 110 190 108 197 107 203 c 0
 105 224 98.9 314 90 392 c 0
 79.9 480 63 515 63 585 c 0
 63 639 98 658 122 658 c 0
64 48 m 1
 64 53 l 1
 76 83 92 101 127 115 c 1
 131 115 l 1
 165 103 182 86 194 53 c 1
 194 48 l 1
 181 11 164 -6 131 -14 c 1
 127 -14 l 1
 90 -6 74 10 64 48 c 1
EndSplineSet
Colour: ff80cc
EndChar

StartChar: quotedbl
Encoding: 34 34 1
Width: 375
VWidth: 999
Flags: HW
HStem: 421 223<94 126 108 126> 422 223<237 269 251 269>
LayerCount: 2
Fore
SplineSet
251 422 m 1
 236 426 l 1
 236 426 204 586 204 592 c 0
 204 615 226 646 269 646 c 0
 311 646 314 627 314 609 c 0
 314 594 277 428 277 428 c 1
 251 422 l 1
108 421 m 1
 93 425 l 1
 93 425 61 585 61 591 c 0
 61 614 83 645 126 645 c 0
 168 645 171 626 171 608 c 0
 171 593 134 427 134 427 c 1
 108 421 l 1
EndSplineSet
Colour: ff00ff
EndChar

StartChar: numbersign
Encoding: 35 35 2
Width: 478
Flags: HW
HStem: 181 56<32 117 187 260 326 420> 337 57<57 142 211 284 351 444>
DStem2: 91 13 151 13 0.158553 0.987351<9.51316 169.997 236.388 327.988 395.207 554.862> 233 13 291 13 0.155037 0.987909<8.99213 170.155 235.71 327.989 394.688 554.707>
LayerCount: 2
Fore
SplineSet
268 237 m 1
 284 337 l 1
 204 337 l 1
 198 302 193 272 187 237 c 1
 268 237 l 1
342 337 m 1
 326 237 l 1
 428 237 l 1
 420 181 l 1
 318 181 l 1
 309 125 300 67 291 13 c 1
 233 13 l 1
 260 181 l 1
 179 181 l 1
 169 125 161 67 151 13 c 1
 91 13 l 1
 117 181 l 1
 24 181 l 1
 32 237 l 1
 126 237 l 1
 132 272 137 302 142 337 c 1
 48 337 l 1
 57 394 l 1
 151 394 l 1
 160 448 169 507 178 561 c 1
 239 561 l 1
 211 394 l 1
 293 394 l 1
 302 448 310 507 319 561 c 1
 377 561 l 1
 351 394 l 1
 452 394 l 1
 444 337 l 1
 342 337 l 1
EndSplineSet
EndChar

StartChar: dollar
Encoding: 36 36 3
Width: 500
VWidth: 999
Flags: HW
HStem: -10 47<136.956 306.906> 528 44<177.316 332.971>
VStem: 47 104<386.624 491.591> 224 44<-81 627> 338 112<87.6685 202.152>
LayerCount: 2
Fore
SplineSet
224 37.2 m 1
 224 254.4 l 1
 146.6 285.6 47 332.4 47 422 c 0
 47 513.4 139.3 561.4 224 570.4 c 1
 224 627 l 1
 268 627 l 1
 268 571.7 l 1
 364.2 568.3 414 533 414 533 c 1
 416 530 l 1
 408 504 402 458 399 427 c 1
 390 426 l 1
 369 473.3 321.8 516.1 268 525.9 c 1
 268 329.4 l 1
 341.4 303 450 258.5 450 162 c 0
 450 71.8 365.9 8.8 268 -6.4 c 1
 268 -81 l 1
 224 -81 l 1
 224 -10 l 2
 223.3 -10 222.7 -10 222 -10 c 0
 124 -10 44 30 44 30 c 1
 42 33 l 1
 49 59 56 107 60 138 c 1
 68 139 l 1
 92.1 86.8 166.7 40.3 224 37.2 c 1
224 347.1 m 1
 224 526.5 l 1
 179.1 519.9 151 491.2 151 445 c 0
 151 391.9 189.1 363.8 224 347.1 c 1
268 236.6 m 1
 268 41 l 1
 309.9 50.7 338 78.6 338 131 c 0
 338 196.4 309.2 218.6 268 236.6 c 1
EndSplineSet
EndChar

StartChar: percent
Encoding: 37 37 4
Width: 637
VWidth: 999
Flags: HW
HStem: -19 33<453.996 514.769> 214 36<488.444 553.487> 297 33<132.028 189.396> 474 45<280.914 457.718> 529 36<164.255 232.725>
VStem: 53 69<335.932 482.725> 240 43<388.136 494.674> 375 68<21.6638 161.631> 562 42<68.5516 208.803>
DStem2: 96 -4 150 -16 0.588938 0.808178<22.1045 620.449 651.051 709.262>
LayerCount: 2
Fore
SplineSet
443 77 m 0
 443 38 458 14 477 14 c 0
 529 14 562 102 562 157 c 0
 562 209 537 214 523 214 c 0
 480 214 443 134 443 77 c 0
375 91 m 0
 375 171 423 250 512 250 c 0
 560 250 604 231 604 159 c 0
 604 60 550 -19 471 -19 c 0
 409 -19 375 26 375 91 c 0
364 519 m 0
 406 519 473 525 514 569 c 1
 561 548 l 1
 150 -16 l 1
 96 -4 l 1
 462 497 l 1
 423 481 384 474 354 474 c 0
 331 474 299 484 280 495 c 1
 282 487 283 482 283 474 c 0
 283 390 231 297 144 297 c 0
 82 297 53 339 53 406 c 0
 53 491 108 565 190 565 c 0
 218 565 247 556 257 544 c 1
 311 519 346 519 364 519 c 0
122 392 m 0
 122 353 137 330 155 330 c 0
 201 330 240 415 240 473 c 0
 240 522 219 529 201 529 c 0
 152 529 122 450 122 392 c 0
EndSplineSet
EndChar

StartChar: parenleft
Encoding: 40 40 5
Width: 338
VWidth: 999
Flags: HW
VStem: 44 121<118.713 387.221>
LayerCount: 2
Fore
SplineSet
44 252 m 0
 44 422 156 605 275 707 c 1
 307 679 l 1
 275 643 165 515 165 252 c 0
 165 -11 274 -139 307 -177 c 1
 275 -204 l 1
 84 -40 44 164 44 252 c 0
EndSplineSet
Substitution2: "'c2sc' Versale nach Kapitaelchen 1" parenleft.sc
AlternateSubs2: "'aalt' Alle Alternativen zeigen 1" parenleft.sc
Substitution2: "'sinf' Wissenschaftliche Indices 1" parenleft.inferior
Substitution2: "'sups' Hochgestellte 1" parenleft.superior
Substitution2: "'case' Versalformen 1" parenleft.sc
EndChar

StartChar: parenright
Encoding: 41 41 6
Width: 338
VWidth: 999
Flags: HW
VStem: 173 121<116.779 385.287>
LayerCount: 2
Fore
SplineSet
294 252 m 0
 294 82 182 -101 63 -203 c 1
 31 -175 l 1
 63 -139 173 -11 173 252 c 0
 173 515 64 643 31 681 c 1
 63 708 l 1
 254 544 294 340 294 252 c 0
EndSplineSet
Substitution2: "'c2sc' Versale nach Kapitaelchen 1" parenright.sc
AlternateSubs2: "'aalt' Alle Alternativen zeigen 1" parenright.sc
Substitution2: "'sinf' Wissenschaftliche Indices 1" parenright.inferior
Substitution2: "'sups' Hochgestellte 1" parenright.superior
Substitution2: "'case' Versalformen 1" parenright.sc
Colour: ff00ff
EndChar

StartChar: asterisk
Encoding: 42 42 7
Width: 433
VWidth: 999
Flags: HMW
HStem: 571 69<91 156 274 348>
VStem: 173 78<622 713>
LayerCount: 2
Fore
SplineSet
197 566 m 1
 184 568 171 573 156 571 c 0
 111 563 75 563 75 608 c 0
 75 622 84 640 108 640 c 0
 142 640 159 607 203 588 c 1
 199 628 173 653 173 679 c 0
 173 700 193 718 211 718 c 0
 229 718 251 707 251 683 c 0
 251 656 228 618 226 588 c 1
 271 607 282 642 315 642 c 0
 346 642 354 618 354 608 c 0
 354 578 320 568 285 568 c 0
 266 568 249 568 231 565 c 1
 265 529 316 531 316 480 c 0
 316 462 298 451 284 451 c 0
 235 451 238 513 213 552 c 1
 188 507 202 451 143 451 c 0
 126 451 114 464 114 479 c 0
 114 533 164 528 197 566 c 1
EndSplineSet
EndChar

StartChar: plus
Encoding: 43 43 8
Width: 537
Flags: HMW
HStem: 195 73<61 232 306 477> 423 10G<232 306>
VStem: 232 73<32 195 269 433>
LayerCount: 2
Fore
SplineSet
306 269 m 1
 477 269 l 1
 477 195 l 1
 306 195 l 1
 306 32 l 1
 232 32 l 1
 232 195 l 1
 61 195 l 1
 61 269 l 1
 232 269 l 1
 232 433 l 1
 306 433 l 1
 306 269 l 1
EndSplineSet
AlternateSubs2: "'aalt' Alle Alternativen zeigen 1" plus.superior plus.inferior uni2098
Substitution2: "'sinf' Wissenschaftliche Indices 1" plus.inferior
Substitution2: "'sups' Hochgestellte 1" plus.superior
EndChar

StartChar: slash
Encoding: 47 47 9
Width: 342
VWidth: 999
Flags: HW
HStem: 626 20G<245.277 312>
VStem: 15 297
DStem2: 15 -59 75 -59 0.318647 0.947874<19.1188 743.77>
LayerCount: 2
Fore
SplineSet
312 646 m 1
 75 -59 l 1
 15 -59 l 1
 252 646 l 1
 312 646 l 1
EndSplineSet
Ligature2: "'frac' Brueche 1" uni2215
AlternateSubs2: "'aalt' Alle Alternativen zeigen 1" uni2215
EndChar

StartChar: one
Encoding: 49 49 10
Width: 478
VWidth: 999
Flags: HW
HStem: -3 21G<218 286 286 354> 466 41<108 184.331> 558 20G<316 348.75>
VStem: 228 115<2.66453 469.974>
LayerCount: 2
Fore
SplineSet
343 179 m 2
 343 103.8 345.5 57 354 0 c 1
 352 -3 l 1
 352 -3 320.3 0 286 0 c 0
 251 0 219 -3 219 -3 c 1
 218 0 l 1
 226.5 53.5 228 105 228 179 c 2
 228 410 l 2
 228 444 227.5 472 211 472 c 0
 192 472 150 472 108 466 c 1
 106 507 l 1
 194 527 285 558 347 578 c 1
 350.5 578 353 577.8 353 573 c 0
 351.3 560 343 521 343 419 c 2
 343 179 l 2
EndSplineSet
AlternateSubs2: "'aalt' Alle Alternativen zeigen 1" one.oldstyle one.superior one.fitted
Substitution2: "'sups' Hochgestellte 1" one.superior
Substitution2: "'sinf' Wissenschaftliche Indices 1" one.inferior
Substitution2: "'pnum' Proportionalziffern 1" one.fitted
Substitution2: "'onum' Minuskelziffern 1" one.taboldstyle
EndChar

StartChar: two
Encoding: 50 50 11
Width: 478
VWidth: 487
Flags: HW
HStem: 0 95<174 422.926> 527 51<146.3 263.954>
VStem: 293 131<347.782 496.509>
DStem2: 167 194 238 176 0.718358 0.695673<-62.1088 181.122>
LayerCount: 2
Fore
SplineSet
214 527 m 0
 168 527 126 502 95 446 c 1
 72 447 l 1
 52 522 l 1
 55 526 l 1
 79 547 154 578 222 578 c 0
 335 578 424 531 424 429 c 0
 424 357 386.9 320.2 333 268 c 2
 238 176 l 2
 218.1 156.7 174 110 174 95 c 1
 252 95 l 2
 347 95 373 99 428 103 c 1
 425 91 423 53 423 41 c 0
 423 29 425 8 428 -4 c 1
 357 -1 334 0 263 0 c 0
 191 0 125 -2 37 -4 c 1
 36 0 l 1
 36 56 74 99 167 194 c 1
 237 263 l 1
 293 320 293 369 293 430 c 0
 293 498 248 527 214 527 c 0
EndSplineSet
AlternateSubs2: "'aalt' Alle Alternativen zeigen 1" two.oldstyle two.superior two.fitted
Substitution2: "'sups' Hochgestellte 1" two.superior
Substitution2: "'sinf' Wissenschaftliche Indices 1" two.inferior
Substitution2: "'pnum' Proportionalziffern 1" two.fitted
Substitution2: "'onum' Minuskelziffern 1" two.taboldstyle
EndChar

StartChar: three
Encoding: 51 51 12
Width: 478
VWidth: 487
Flags: HW
HStem: -10 49<129.249 263.835> 277 43<164 200.572> 529 49<153.242 271.627>
VStem: 295 111<375.318 505.037> 305 128<86.7836 245.772>
LayerCount: 2
Fore
SplineSet
202 39 m 0
 235 39 305 57.9 305 168 c 0
 305 258 255 279 201 279 c 0
 192 279 175 279 164 277 c 1
 164 320 l 1
 256 325 295 363 295 442 c 0
 295 492 263 529 226 529 c 0
 159 529 138 501 107 445 c 1
 84 446 l 1
 64 521 l 1
 67 525 l 1
 91 546 163 578 235 578 c 0
 322 578 406 546 406 457 c 0
 406 377.8 362 330 293 312 c 1
 293 309 l 1
 363 302 433 262.1 433 171 c 0
 433 39 314 -10 200 -10 c 0
 128 -10 71 22 47 43 c 1
 44 47 l 1
 64 122 l 1
 87 123 l 1
 118 67 130.9 39 202 39 c 0
EndSplineSet
AlternateSubs2: "'aalt' Alle Alternativen zeigen 1" three.oldstyle three.superior three.fitted
Substitution2: "'sups' Hochgestellte 1" three.superior
Substitution2: "'sinf' Wissenschaftliche Indices 1" three.inferior
Substitution2: "'pnum' Proportionalziffern 1" three.fitted
Substitution2: "'onum' Minuskelziffern 1" three.taboldstyle
EndChar

StartChar: four
Encoding: 52 52 13
Width: 478
VWidth: 487
Flags: HMW
HStem: -3 21G<255 321 321 387> 140 62<94 266 377 452.651> 552 20G<274 321 321 387>
VStem: 266 111<2.62554 140 202 473.656>
LayerCount: 2
Fore
SplineSet
266 140 m 1
 73 140 l 2
 39 140 22 139 20 153 c 0
 20 154 13 173.2 30 196 c 0
 88 274 223 483 274 569 c 1
 275 572 l 1
 275 572 286 569 321 569 c 0
 355 569 385 572 385 572 c 1
 387 569 l 1
 379 512 377 503 377 428 c 2
 377 202 l 1
 445 202 l 2
 455 202 459 192 459 183 c 0
 459 172 445 140 432 140 c 2
 377 140 l 1
 377 65.9 379 56.7 387 0 c 1
 385 -3 l 1
 385 -3 355 0 321 0 c 0
 286 0 256 -3 256 -3 c 1
 255 0 l 1
 263 53.8 266 66.9 266 140 c 1
266 475 m 1
 94 202 l 1
 266 202 l 1
 266 475 l 1
EndSplineSet
AlternateSubs2: "'aalt' Alle Alternativen zeigen 1" four.oldstyle four.superior four.fitted
Substitution2: "'sups' Hochgestellte 1" four.superior
Substitution2: "'sinf' Wissenschaftliche Indices 1" four.inferior
Substitution2: "'pnum' Proportionalziffern 1" four.fitted
Substitution2: "'onum' Minuskelziffern 1" four.taboldstyle
EndChar

StartChar: five
Encoding: 53 53 14
Width: 478
VWidth: 487
Flags: HW
HStem: -10 49<144.865 262.543> 304 56<149.907 264.537> 476 92<162.515 390.731>
VStem: 298 123<94.728 266.467>
DStem2: 86.7671 288 149 345 0.108937 0.994049<63.4402 202.674>
LayerCount: 2
Fore
SplineSet
210 -10 m 0
 138 -10 81 22 57 43 c 1
 54 47 l 1
 74 122 l 1
 97 123 l 1
 128 67 156 39 212 39 c 0
 255 39 298 76 298 169 c 0
 298 253.1 269 304 211 304 c 0
 165 304 147 297 108 281 c 1
 86.8 288 l 1
 118 573 l 1
 151 570 190 568 225 568 c 0
 275 568 346 572 400 578 c 1
 406 575 l 1
 391 481 l 1
 352 477 301 476 273 476 c 0
 229.8 476 195.2 479.7 163 483.5 c 1
 149 345 l 1
 170 353 197 360 236 360 c 0
 342 360 421 278 421 186 c 0
 421 63 324 -10 210 -10 c 0
EndSplineSet
AlternateSubs2: "'aalt' Alle Alternativen zeigen 1" five.oldstyle five.superior five.fitted
Substitution2: "'sups' Hochgestellte 1" five.superior
Substitution2: "'sinf' Wissenschaftliche Indices 1" five.inferior
Substitution2: "'pnum' Proportionalziffern 1" five.fitted
Substitution2: "'onum' Minuskelziffern 1" five.taboldstyle
EndChar

StartChar: six
Encoding: 54 54 15
Width: 478
VWidth: 487
Flags: HMW
HStem: -10 38<206.73 304.204> 298 41<180.007 294.084> 543 35<334.813 414.6>
VStem: 44 113<109.686 306.748> 330 113<86.4142 259.76>
LayerCount: 2
Fore
SplineSet
166.2 316.6 m 1
 192.3 334.3 226.6 342 255 342 c 0
 403 342 443 249 443 171 c 0
 443 92 388 -10 250 -10 c 0
 218.2 -10 171 -4.2 132 21 c 0
 81.4 53.7 42 117.7 42 230 c 0
 42 373.7 161 578 414 578 c 1
 417 543 l 1
 356.9 537.5 204.5 525.2 166.2 316.6 c 1
158.8 271.4 m 1
 157.9 260 157 236.2 157 227 c 0
 157 59 205 28 255 28 c 0
 288 28 325 70.9 325 164 c 0
 325 211 324 298 235 298 c 0
 217.5 298 190.4 296.6 158.8 271.4 c 1
EndSplineSet
AlternateSubs2: "'aalt' Alle Alternativen zeigen 1" six.oldstyle six.superior six.fitted
Substitution2: "'sups' Hochgestellte 1" six.superior
Substitution2: "'sinf' Wissenschaftliche Indices 1" six.inferior
Substitution2: "'pnum' Proportionalziffern 1" six.fitted
Substitution2: "'onum' Minuskelziffern 1" six.taboldstyle
EndChar

StartChar: seven
Encoding: 55 55 16
Width: 478
VWidth: 487
Flags: HMW
HStem: -12 21G<136 223> 483.9 84.1<114.132 340.241>
LayerCount: 2
Fore
SplineSet
340.2 483.9 m 1
 284 483.5 200 481.8 79 475 c 1
 81 489 83 512 83 526 c 0
 83 540 81 560 79 574 c 1
 119.2 568.8 222 568 363 568 c 0
 392 568 410 571 424 575 c 1
 437 556 l 1
 331 298 277 152 223 -9 c 1
 139 -12 l 1
 136 -6 l 1
 196.8 131 268.7 308.1 340.2 483.9 c 1
EndSplineSet
AlternateSubs2: "'aalt' Alle Alternativen zeigen 1" seven.oldstyle seven.superior seven.fitted
Substitution2: "'sups' Hochgestellte 1" seven.superior
Substitution2: "'sinf' Wissenschaftliche Indices 1" seven.inferior
Substitution2: "'pnum' Proportionalziffern 1" seven.fitted
Substitution2: "'onum' Minuskelziffern 1" seven.taboldstyle
EndChar

StartChar: nine
Encoding: 57 57 17
Width: 478
VWidth: 487
Flags: HW
HStem: -10 35<70.4 150.187> 229 41<190.916 304.993> 540 38<180.796 278.27>
VStem: 42 113<308.24 481.586> 328 113<261.252 458.314>
LayerCount: 2
Fore
SplineSet
318.8 251.4 m 1
 292.7 233.7 258.4 226 230 226 c 0
 82 226 42 319 42 397 c 0
 42 476 97 578 235 578 c 0
 266.8 578 314 572.2 353 547 c 0
 403.6 514.3 443 450.3 443 338 c 0
 443 194.3 324 -10 71 -10 c 1
 68 25 l 1
 128.1 30.5 280.5 42.8 318.8 251.4 c 1
326.2 296.6 m 1
 327.1 308 328 331.8 328 341 c 0
 328 509 280 540 230 540 c 0
 197 540 160 497.1 160 404 c 0
 160 357 161 270 250 270 c 0
 267.5 270 294.6 271.4 326.2 296.6 c 1
EndSplineSet
AlternateSubs2: "'aalt' Alle Alternativen zeigen 1" nine.oldstyle nine.superior nine.fitted
Substitution2: "'sups' Hochgestellte 1" nine.superior
Substitution2: "'sinf' Wissenschaftliche Indices 1" nine.inferior
Substitution2: "'pnum' Proportionalziffern 1" nine.fitted
Substitution2: "'onum' Minuskelziffern 1" nine.taboldstyle
Colour: ff00ff
EndChar

StartChar: colon
Encoding: 58 58 18
Width: 246
VWidth: 999
Flags: HW
HStem: 35 129<93.7166 171.842 93.7166 171.842> 298 129<93.7166 171.842 93.7166 171.842>
VStem: 67 130<57.9991 138.027 57.9991 138.027 320.999 401.027 320.999 401.027>
LayerCount: 2
Fore
SplineSet
67 360 m 1
 67 365 l 1
 79 395 95 413 130 427 c 1
 134 427 l 1
 168 415 185 398 197 365 c 1
 197 360 l 1
 184 323 167 306 134 298 c 1
 130 298 l 1
 93 306 77 322 67 360 c 1
67 97 m 1
 67 102 l 1
 79 132 95 150 130 164 c 1
 134 164 l 1
 168 152 185 135 197 102 c 1
 197 97 l 1
 184 60 167 43 134 35 c 1
 130 35 l 1
 93 43 77 59 67 97 c 1
EndSplineSet
Colour: ff00ff
EndChar

StartChar: less
Encoding: 60 60 19
Width: 512
Flags: HW
DStem2: 42 262 153 240 0.939793 0.341743<96.7987 435.295> 153 240 42 218 0.939793 -0.341743<0 338.496>
LayerCount: 2
Fore
SplineSet
153 240 m 1
 471 124 l 1
 471 62 l 1
 42 218 l 1
 42 262 l 1
 471 418 l 1
 471 356 l 1
 153 240 l 1
EndSplineSet
EndChar

StartChar: equal
Encoding: 61 61 20
Width: 551
Flags: HW
HStem: 142 56<59 493> 266 57<59 493>
LayerCount: 2
Fore
SplineSet
493 198 m 1
 493 142 l 1
 59 142 l 1
 59 198 l 1
 493 198 l 1
493 323 m 1
 493 266 l 1
 59 266 l 1
 59 323 l 1
 493 323 l 1
EndSplineSet
AlternateSubs2: "'aalt' Alle Alternativen zeigen 1" equal.superior
Substitution2: "'sinf' Wissenschaftliche Indices 1" equal.inferior
Substitution2: "'sups' Hochgestellte 1" equal.superior
EndChar

StartChar: greater
Encoding: 62 62 21
Width: 512
Flags: HW
HStem: 60 356<42 42>
VStem: 42 429<259 354>
DStem2: 42 416 42 354 0.939669 -0.342086<21.2134 359.494> 42 122 42 60 0.940012 0.341142<0 338.447>
LayerCount: 2
Fore
SplineSet
359 238 m 1
 42 354 l 1
 42 416 l 1
 471 259 l 1
 471 215 l 1
 42 60 l 1
 42 122 l 1
 359 238 l 1
EndSplineSet
Colour: ff00ff
EndChar

StartChar: question
Encoding: 63 63 22
Width: 424
VWidth: 487
Flags: HW
HStem: -11 123<141.564 218.965> 610 49<134.252 249.962>
VStem: 118 124<9.77582 88.1892> 157 46<174.052 312.285> 275 113<440.546 581.583>
LayerCount: 2
Fore
SplineSet
195 610 m 0
 139 610 98 561 72 516 c 1
 59 517 l 1
 43 593 l 1
 46 597 l 1
 70.5 617.5 131.5 659 204 659 c 0
 306 659 388 599 388 508 c 0
 388 429 310 385 263 351 c 0
 234.1 329.6 203 302 203 228 c 2
 203 189 l 2
 203 182 188 174 180 174 c 0
 172 174 157 182 157 189 c 2
 157 230 l 2
 157 273 169.6 331.4 234 391 c 0
 274 428 275 457 275 504 c 0
 275 569 252 610 195 610 c 0
119 48 m 1
 119 53 l 1
 131 83 147 101 182 115 c 1
 186 115 l 1
 220 103 237 86 249 53 c 1
 249 48 l 1
 236 11 219 -6 186 -14 c 1
 182 -14 l 1
 145 -6 129 10 119 48 c 1
EndSplineSet
Colour: ff80cc
EndChar

StartChar: at
Encoding: 64 64 23
Width: 988
Flags: HMW
HStem: -160 39<407.274 632.859> 19 42<603 706.824> 30 42<431.029 515.602> 382 33<504.201 588.744> 584 37<401.936 597.238>
VStem: 92 94<102.389 345.27> 317 97<85.6604 259.227> 805 85<185.117 389.903>
LayerCount: 2
Fore
SplineSet
606 320 m 0
 606 355 582 382 557 382 c 0
 543 382 511.2 380.8 476 343 c 0
 431.2 294.8 414 227 414 164 c 0
 414 117 423 72 470 72 c 0
 500 72 550 107 577 193 c 0
 587 226 606 296 606 320 c 0
640 75 m 0
 640 62 647 61 658 61 c 0
 695 61 805 129 805 273 c 0
 805 494 621 584 504 584 c 0
 349 584 186 459 186 228 c 0
 186 80 277 -121 521 -121 c 0
 598 -121 669 -97 731 -46 c 1
 743 -50 750 -62 752 -75 c 1
 688 -124 625 -160 502 -160 c 0
 265 -160 92 -7 92 221 c 0
 92 428 260 621 513 621 c 0
 739 621 890 476 890 287 c 0
 890 147 772 19 638 19 c 0
 568 19 550 55 550 76 c 1
 509 38 468 30 444 30 c 0
 328 30 317 117 317 158 c 0
 317 303 439 415 554 415 c 0
 602 415 631 398 648 377 c 1
 685 410 l 1
 712 399 l 1
 653 141 l 2
 647.1 115 640 86 640 75 c 0
EndSplineSet
EndChar

StartChar: A
Encoding: 65 65 24
Width: 669
Flags: HW
HStem: -3 21G<24 68.5 113 136.444 500.087 513.5 632 648.5> 221 53<210.237 444.333> 638 20G<265 429>
AnchorPoint: "unten_punkt" 270 -108 basechar 0
AnchorPoint: "unten_anhang" 58 8 basechar 0
AnchorPoint: "top_akzent" 342 798 basechar 0
AnchorPoint: "top_punkt" 342 700 basechar 0
LayerCount: 2
Fore
SplineSet
317.6 499.8 m 1
 221.6 275.9 l 1
 253.3 275.5 297.1 274 326 274 c 0
 349.7 274 381.1 274.5 409.5 275.1 c 1
 384.7 339.4 354.4 414.4 317.6 499.8 c 1
198.3 219.2 m 1
 164.2 135.1 134.8 56.2 119 -3 c 1
 107 0 85 0 74 0 c 0
 63 0 30 0 18 -3 c 1
 119 218 217 436 313 658 c 1
 383 658 l 1
 475 439 607 98 657 -3 c 1
 640 0 593 0 576 0 c 0
 559 0 522 0 505 -3 c 1
 499 18.7 477.3 93.7 430.5 219.7 c 1
 397.8 220.4 363.1 221 331 221 c 0
 295.3 221 236.3 220.1 198.3 219.2 c 1
EndSplineSet
Position2: "'cpsp' Versalabstaende 1" dx=2 dy=0 dh=5 dv=0
Substitution2: "'c2sc' Versale nach Kapitaelchen 1" a.sc
EndChar

StartChar: B
Encoding: 66 66 25
Width: 645
VWidth: 999
Flags: HW
HStem: -3 53<200.52 424.714> 322 53<225 390.016> 595 53<199.153 388.423>
VStem: 103 122<61.1856 322 375 585.479> 416 129<423.825 565.546> 463 141<106.228 265.94>
AnchorPoint: "unten_punkt" 268 -108 basechar 0
AnchorPoint: "unten_anhang" 250 0 basechar 0
AnchorPoint: "top_punkt" 282 700 basechar 0
AnchorPoint: "top_akzent" 281 798 basechar 0
LayerCount: 2
Fore
SplineSet
225 550 m 2
 225 375 l 1
 303 375 l 2
 386 375 416 396 416 481 c 0
 416 583 372 595 316 595 c 0
 235 595 225 583 225 550 c 2
225 322 m 1
 225 97 l 2
 225 64 242 50 312 50 c 0
 446 50 463 92 463 165 c 0
 463 255 435 322 318 322 c 2
 225 322 l 1
167 645 m 0
 222 645 274 648 309 648 c 0
 495 648 545 560 545 493 c 0
 545 438 503 385 452 360 c 1
 539 335 604 280 604 184 c 0
 604 98 530 -3 331 -3 c 0
 242 -3 231 0 167 0 c 0
 132 0 94 -3 94 -3 c 1
 93 0 l 1
 101 54 103 125 103 200 c 2
 103 445 l 2
 103 520 101 588 93 645 c 1
 95 648 l 1
 95 648 133 645 167 645 c 0
EndSplineSet
Position2: "'cpsp' Versalabstaende 1" dx=2 dy=0 dh=5 dv=0
Substitution2: "'c2sc' Versale nach Kapitaelchen 1" b.sc
EndChar

StartChar: C
Encoding: 67 67 26
Width: 671
VWidth: 999
Flags: HW
HStem: -10 60<294.668 483.017> 602 56<291.215 473.617>
VStem: 37 143<195.035 441.231>
AnchorPoint: "unten_punkt" 369 -110 basechar 0
AnchorPoint: "unten_anhang" 362 -7 basechar 0
AnchorPoint: "top_punkt" 366 700 basechar 0
AnchorPoint: "top_akzent" 366 798 basechar 0
LayerCount: 2
Fore
SplineSet
386 658 m 0
 508 658 604 613 604 613 c 1
 606 610 l 1
 594.2 560.7 589.6 531 586 480 c 1
 576 479 l 1
 535 561 462 602 372 602 c 0
 290 602 180 537 180 334 c 0
 180 193 238 50 381 50 c 0
 474 50 519 67 594 139 c 1
 618 105 l 1
 534 18 451.2 -10 362 -10 c 0
 147 -10 37 154 37 315 c 0
 37 424.9 82.1 522.3 161 584 c 0
 223.5 632.8 295 658 386 658 c 0
EndSplineSet
Position2: "'cpsp' Versalabstaende 1" dx=2 dy=0 dh=5 dv=0
Substitution2: "'c2sc' Versale nach Kapitaelchen 1" c.sc
EndChar

StartChar: D
Encoding: 68 68 27
Width: 751
VWidth: 999
Flags: HW
HStem: -2 53<198.527 472.703> 595 53<199.347 430.093>
VStem: 101 124<61.1856 585.479> 563 145<184.471 417.062>
LayerCount: 2
Fore
SplineSet
225 91 m 2
 225 59 240 51 338 51 c 0
 479 51 563 82 563 284 c 0
 563 438 529 595 313 595 c 0
 264 595 225 590 225 555 c 2
 225 91 l 2
165 645 m 0
 238 645 278 648 351 648 c 0
 543 648 708 494 708 308 c 0
 708 62 510 -2 369 -2 c 0
 266 -2 245 0 165 0 c 0
 130 0 92 -3 92 -3 c 1
 91 0 l 1
 99 54 101 125 101 200 c 2
 101 445 l 2
 101 520 99 588 91 645 c 1
 93 648 l 1
 93 648 131 645 165 645 c 0
EndSplineSet
Position2: "'cpsp' Versalabstaende 1" dx=2 dy=0 dh=5 dv=0
Substitution2: "'c2sc' Versale nach Kapitaelchen 1" d.sc
EndChar

StartChar: E
Encoding: 69 69 28
Width: 564
VWidth: 999
Flags: HW
HStem: 0 63<224.662 454.553> 316 51<220 436.024> 575 21G<228 506> 587 58<224.662 452.004>
VStem: 96 124<64.202 316 367 585.479>
AnchorPoint: "unten_anhang" 279 4 basechar 0
AnchorPoint: "unten_punkt" 279 -107 basechar 0
AnchorPoint: "top_punkt" 280 700 basechar 0
AnchorPoint: "top_akzent" 283 805 basechar 0
LayerCount: 2
Fore
SplineSet
220 200 m 2
 220 183 221 87 228 63 c 1
 362 63 514 75 514 75 c 1
 516 71 l 1
 515 63 514 46 514 36 c 0
 514 26 515 14 516 0 c 1
 514 -3 l 1
 498 -1 475 0 454 0 c 2
 160 0 l 2
 125 0 87 -3 87 -3 c 1
 86 0 l 1
 94 54 96 125 96 200 c 2
 96 445 l 2
 96 520 94 588 86 645 c 1
 88 648 l 1
 88 648 126 645 160 645 c 0
 190 645 444 645 444 645 c 2
 465 645 488 646 504 648 c 1
 506 645 l 1
 505 631 504 618 504 610 c 0
 504 601 505 587 506 579 c 1
 504 575 l 1
 504 575 362 587 228 587 c 1
 221 563 220 462 220 445 c 2
 220 367 l 1
 338 367 388 372 447 377 c 1
 450 374 l 1
 448 365 447 351 447 342 c 0
 447 333 448 318 450 309 c 1
 447 306 l 1
 378 313 268 316 220 316 c 1
 220 200 l 2
EndSplineSet
Position2: "'cpsp' Versalabstaende 1" dx=2 dy=0 dh=5 dv=0
Substitution2: "'c2sc' Versale nach Kapitaelchen 1" e.sc
EndChar

StartChar: F
Encoding: 70 70 29
Width: 519
VWidth: 999
Flags: HW
HStem: -3 21G<88 162 162 232> 316 51<222 438.024> 575 21G<230 508> 587 58<226.662 454.004>
VStem: 98 124<2.67992 316 367 585.479>
AnchorPoint: "unten_anhang" 145 -1 basechar 0
AnchorPoint: "unten_punkt" 201 -111 basechar 0
AnchorPoint: "top_punkt" 287 700 basechar 0
AnchorPoint: "top_akzent" 286 798 basechar 0
LayerCount: 2
Fore
SplineSet
443 645 m 2
 467 645 490 646 506 648 c 1
 508 645 l 1
 507 631 506 618 506 610 c 0
 506 601 507 587 508 579 c 1
 506 575 l 1
 506 575 364 587 230 587 c 1
 223 563 222 462 222 445 c 2
 222 367 l 1
 340 367 390 372 449 377 c 1
 452 374 l 1
 450 365 449 351 449 342 c 0
 449 333 450 318 452 309 c 1
 449 306 l 1
 380 313 270 316 222 316 c 1
 222 200 l 2
 222 125 224 57 232 0 c 1
 230 -3 l 1
 230 -3 196 0 162 0 c 0
 127 0 89 -3 89 -3 c 1
 88 0 l 1
 96 54 98 125 98 200 c 2
 98 445 l 2
 98 520 96 588 88 645 c 1
 90 648 l 1
 90 648 128 645 162 645 c 2
 443 645 l 2
EndSplineSet
Position2: "'cpsp' Versalabstaende 1" dx=2 dy=0 dh=5 dv=0
Substitution2: "'c2sc' Versale nach Kapitaelchen 1" f.sc
EndChar

StartChar: G
Encoding: 71 71 30
Width: 750
VWidth: 999
Flags: HW
HStem: -10 55<314.638 521.515> 602 56<298.087 495.993>
VStem: 39 138<204.618 438.594> 546 128<83.3557 304.327>
AnchorPoint: "unten_anhang" 371 2 basechar 0
AnchorPoint: "unten_punkt" 371 -111 basechar 0
AnchorPoint: "top_punkt" 369 700 basechar 0
AnchorPoint: "top_akzent" 369 798 basechar 0
LayerCount: 2
Fore
SplineSet
546 117 m 2
 546 192 544 250 536 307 c 1
 538 310 l 1
 538 310 576 307 610 307 c 0
 645 307 683 310 683 310 c 1
 684 307 l 1
 676 254 674 212 674 137 c 0
 674 104.6 677.9 90.5 684 83 c 1
 684 80 l 1
 616.5 23.4 503.5 -10 387 -10 c 0
 186 -10 39 134 39 307 c 0
 39 420 80.4 515.5 155 575 c 0
 224 630 302 658 402 658 c 0
 524 658 641 613 641 613 c 1
 643 610 l 1
 631.2 560.7 626.6 531 623 480 c 1
 603 479 l 1
 562 561 478 602 388 602 c 0
 253 602 177 488 177 327 c 0
 177 195 244 45 410 45 c 0
 464 45 512 51 546 83 c 1
 546 117 l 2
EndSplineSet
Position2: "'cpsp' Versalabstaende 1" dx=2 dy=0 dh=5 dv=0
Substitution2: "'c2sc' Versale nach Kapitaelchen 1" g.sc
EndChar

StartChar: grave
Encoding: 96 96 31
Width: 392
VWidth: 999
Flags: HW
LayerCount: 2
Fore
SplineSet
198 702 m 1
 267 578 l 2
 271 571 276 560 276 552 c 0
 276 543 268 536 259 536 c 0
 251 536 241.1 541.1 224 556 c 2
 103 661 l 1
 105 672 l 1
 113 681 142 704 178 704 c 0
 183 704 194 703 198 702 c 1
EndSplineSet
Substitution2: "'case' Versalformen 1" grave.cap
Colour: ff00ff
EndChar

StartChar: ograve
Encoding: 242 242 32
Width: 528
VWidth: 999
Flags: HW
HStem: -10 50<216.893 336.152> 389 50<201.272 329.488>
VStem: 36 128<111.605 310.233> 374 128<119.272 316.433>
LayerCount: 2
Fore
SplineSet
254 674 m 1
 323 550 l 2
 327 543 332 532 332 524 c 0
 332 515 324 508 315 508 c 0
 307 508 297.1 513.1 280 528 c 2
 159 633 l 1
 161 644 l 1
 169 653 198 676 234 676 c 0
 239 676 250 675 254 674 c 1
36 205 m 0
 36 342 123 439 266 439 c 0
 435 439 492 318 492 214 c 0
 492 107 417 -10 264 -10 c 0
 115 -10 36 95 36 205 c 0
259 389 m 0
 173 389 164 315 164 228 c 0
 164 151 174 40 278 40 c 0
 323 40 364 72 364 187 c 0
 364 326 344 389 259 389 c 0
EndSplineSet
Substitution2: "'smcp' Gemeine nach Kapitaelchen 1" ograve.sc
AlternateSubs2: "'aalt' Alle Alternativen zeigen 1" ograve.sc
Colour: ff00ff
EndChar

StartChar: oacute
Encoding: 243 243 33
Width: 528
VWidth: 999
Flags: HW
HStem: -10 50<216.893 336.152> 389 50<201.272 329.488>
VStem: 36 128<111.605 310.233> 374 128<119.272 316.433>
LayerCount: 2
Fore
SplineSet
292 674 m 1
 295 675 303 676 308 676 c 0
 338 676 357 662 365 652 c 1
 375 629 l 1
 255 521 l 2
 241 509 227 505 217 505 c 0
 209 505 201 513 201 519 c 0
 201 525 203 534 209 543 c 2
 292 674 l 1
36 205 m 0
 36 342 123 439 266 439 c 0
 435 439 492 318 492 214 c 0
 492 107 417 -10 264 -10 c 0
 115 -10 36 95 36 205 c 0
259 389 m 0
 173 389 164 315 164 228 c 0
 164 151 174 40 278 40 c 0
 323 40 364 72 364 187 c 0
 364 326 344 389 259 389 c 0
EndSplineSet
Substitution2: "'smcp' Gemeine nach Kapitaelchen 1" oacute.sc
AlternateSubs2: "'aalt' Alle Alternativen zeigen 1" oacute.sc
Colour: ff00ff
EndChar

StartChar: ocircumflex
Encoding: 244 244 34
Width: 528
VWidth: 999
Flags: HW
HStem: -10 50<216.893 336.152> 389 50<201.272 329.488>
VStem: 36 128<111.605 310.233> 125 253<517 517> 374 128<119.272 316.433>
LayerCount: 2
Fore
SplineSet
290 649 m 1
 320 600 358 556 395 515 c 1
 370 496 l 1
 327 522 298 542 263 579 c 1
 225 540 197 522 157 496 c 1
 132 515 l 1
 168 556 208 601 238 649 c 1
 290 649 l 1
36 205 m 0
 36 342 123 439 266 439 c 0
 435 439 492 318 492 214 c 0
 492 107 417 -10 264 -10 c 0
 115 -10 36 95 36 205 c 0
259 389 m 0
 173 389 164 315 164 228 c 0
 164 151 174 40 278 40 c 0
 323 40 364 72 364 187 c 0
 364 326 344 389 259 389 c 0
EndSplineSet
Substitution2: "'smcp' Gemeine nach Kapitaelchen 1" ocircumflex.sc
AlternateSubs2: "'aalt' Alle Alternativen zeigen 1" ocircumflex.sc
Colour: ff00ff
EndChar

StartChar: otilde
Encoding: 245 245 35
Width: 528
VWidth: 999
Flags: HW
HStem: -10 50<216.893 336.152> 389 50<201.272 329.488> 526 44<263 350> 574 46<145 236> 613 10
VStem: 36 128<111.605 310.233> 374 128<119.272 316.433>
LayerCount: 2
Fore
SplineSet
329 574 m 0
 351 574 364 583 378 632 c 1
 406 622 l 1
 393 554 363 514 315 514 c 0
 292 514 270 529 250 544 c 1
 230 557 210 570 192 570 c 0
 165 570 154 555 143 517 c 1
 117 525 l 1
 131 593 155 631 200 631 c 0
 231 631 254 615 274 599 c 0
 292 585 309 574 329 574 c 0
36 205 m 0
 36 342 123 439 266 439 c 0
 435 439 492 318 492 214 c 0
 492 107 417 -10 264 -10 c 0
 115 -10 36 95 36 205 c 0
259 389 m 0
 173 389 164 315 164 228 c 0
 164 151 174 40 278 40 c 0
 323 40 364 72 364 187 c 0
 364 326 344 389 259 389 c 0
EndSplineSet
Substitution2: "'smcp' Gemeine nach Kapitaelchen 1" otilde.sc
AlternateSubs2: "'aalt' Alle Alternativen zeigen 1" otilde.sc
Colour: ff00ff
EndChar

StartChar: odieresis
Encoding: 246 246 36
Width: 528
VWidth: 999
Flags: HW
HStem: -10 50<215.541 330.028> 389 50<197.099 323.75> 515 113<125.23 214.003 314.997 403.77>
VStem: 36 128<109.813 311.881> 113 113<527.23 616.003> 303 113<527.23 616.003> 364 128<117.449 318.32>
LayerCount: 2
Fore
SplineSet
303 571 m 0
 303 603 328 628 360 628 c 0
 390 628 416 603 416 571 c 0
 416 541 390 515 360 515 c 0
 328 515 303 541 303 571 c 0
113 571 m 0
 113 603 139 628 169 628 c 0
 201 628 226 603 226 571 c 0
 226 541 201 515 169 515 c 0
 139 515 113 541 113 571 c 0
36 205 m 0
 36 342 123 439 266 439 c 0
 435 439 492 318 492 214 c 0
 492 107 417 -10 264 -10 c 0
 115 -10 36 95 36 205 c 0
259 389 m 0
 173 389 164 315 164 228 c 0
 164 151 174 40 278 40 c 0
 323 40 364 72 364 187 c 0
 364 326 344 389 259 389 c 0
EndSplineSet
Substitution2: "'smcp' Gemeine nach Kapitaelchen 1" odieresis.sc
AlternateSubs2: "'aalt' Alle Alternativen zeigen 1" odieresis.sc
Colour: ff00ff
EndChar

StartChar: divide
Encoding: 247 247 37
Width: 527
VWidth: 999
Flags: HW
HStem: 52.8 103.1<242.2 307.073> 208 49<66 461> 320.8 103.1<242.2 307.073>
VStem: 222.4 103.9<338.194 403.915> 222.4 103.9<70.1935 135.915>
LayerCount: 2
Fore
SplineSet
223.3 370.2 m 1
 223.3 374.4 l 1
 233.4 399.5 246.8 414.7 276.1 426.4 c 1
 279.4 426.4 l 1
 307.9 416.3 322.1 402.1 332.2 374.4 c 1
 332.2 370.2 l 1
 321.3 339.2 307.1 325 279.4 318.3 c 1
 276.1 318.3 l 1
 245.1 325 231.7 338.4 223.3 370.2 c 1
223.3 102.2 m 1
 223.3 106.4 l 1
 233.4 131.5 246.8 146.7 276.1 158.4 c 1
 279.4 158.4 l 1
 307.9 148.3 322.1 134.1 332.2 106.4 c 1
 332.2 102.2 l 1
 321.3 71.2 307.1 57 279.4 50.3 c 1
 276.1 50.3 l 1
 245.1 57 231.7 70.4 223.3 102.2 c 1
461 257 m 1
 461 208 l 1
 66 208 l 1
 66 257 l 1
 461 257 l 1
EndSplineSet
Colour: ff00ff
EndChar

StartChar: ugrave
Encoding: 249 249 38
Width: 563
VWidth: 999
Flags: HW
HStem: -10 64<226.889 326.154> -3 21<401 410.667 514.5 523> 412 20<74 143 143 212 378 447 447 516>
VStem: 84 118<78.6508 426.335> 388 118<106.355 426.335>
LayerCount: 2
Fore
SplineSet
248 674 m 1
 317 550 l 2
 321 543 326 532 326 524 c 0
 326 515 318 508 309 508 c 0
 301 508 291.1 513.1 274 528 c 2
 153 633 l 1
 155 644 l 1
 163 653 192 676 228 676 c 0
 233 676 244 675 248 674 c 1
358 64 m 1
 302 4 251 -10 210 -10 c 0
 111 -10 70 57 71 126 c 2
 73 249 l 2
 75 321 71 372 65 429 c 1
 67 432 l 1
 67 432 99 429 133 429 c 0
 168 429 198 432 198 432 c 1
 199 429 l 1
 192 379 193.5 324 191 249 c 2
 189 159 l 2
 187.2 77 216 56 246 56 c 0
 290.8 56 358 90 358 148 c 2
 358 249 l 2
 358 325 358 373 351 429 c 1
 353 432 l 1
 353 432 383 429 417 429 c 0
 452 429 484 432 484 432 c 1
 485 429 l 1
 476 376 476 324 476 249 c 2
 476 192 l 2
 476 117 485 43 493 0 c 1
 491 -3 l 1
 478 -1 440.1 0 427.5 0 c 0
 413 0 387.3 -1.3 374 -3 c 0
 368 -3 365 -2 365 0 c 2
 360 64 l 1
 358 64 l 1
EndSplineSet
Substitution2: "'smcp' Gemeine nach Kapitaelchen 1" ugrave.sc
AlternateSubs2: "'aalt' Alle Alternativen zeigen 1" ugrave.sc
Colour: ff00ff
EndChar

StartChar: uacute
Encoding: 250 250 39
Width: 563
VWidth: 999
Flags: HW
HStem: -10 64<226.889 326.154> -3 21<401 410.667 514.5 523> 412 20<74 143 143 212 378 447 447 516>
VStem: 84 118<78.6508 426.335> 388 118<106.355 426.335>
LayerCount: 2
Fore
SplineSet
318 674 m 1
 321 675 329 676 334 676 c 0
 364 676 383 662 391 652 c 1
 401 629 l 1
 281 521 l 2
 267 509 253 505 243 505 c 0
 235 505 227 513 227 519 c 0
 227 525 229 534 235 543 c 2
 318 674 l 1
358 64 m 1
 302 4 251 -10 210 -10 c 0
 111 -10 70 57 71 126 c 2
 73 249 l 2
 75 321 71 372 65 429 c 1
 67 432 l 1
 67 432 99 429 133 429 c 0
 168 429 198 432 198 432 c 1
 199 429 l 1
 192 379 193.5 324 191 249 c 2
 189 159 l 2
 187.2 77 216 56 246 56 c 0
 290.8 56 358 90 358 148 c 2
 358 249 l 2
 358 325 358 373 351 429 c 1
 353 432 l 1
 353 432 383 429 417 429 c 0
 452 429 484 432 484 432 c 1
 485 429 l 1
 476 376 476 324 476 249 c 2
 476 192 l 2
 476 117 485 43 493 0 c 1
 491 -3 l 1
 478 -1 440.1 0 427.5 0 c 0
 413 0 387.3 -1.3 374 -3 c 0
 368 -3 365 -2 365 0 c 2
 360 64 l 1
 358 64 l 1
EndSplineSet
Substitution2: "'smcp' Gemeine nach Kapitaelchen 1" uacute.sc
AlternateSubs2: "'aalt' Alle Alternativen zeigen 1" uacute.sc
Colour: ff00ff
EndChar

StartChar: ucircumflex
Encoding: 251 251 40
Width: 563
VWidth: 999
Flags: HW
HStem: -10 64<226.889 326.154> -3 21<401 410.667 514.5 523> 412 20<74 143 143 212 378 447 447 516>
VStem: 84 118<78.6508 426.335> 129 253<517 517> 388 118<106.355 426.335>
LayerCount: 2
Fore
SplineSet
324 649 m 1
 354 600 392 556 429 515 c 1
 404 496 l 1
 361 522 332 542 297 579 c 1
 259 540 231 522 191 496 c 1
 166 515 l 1
 202 556 242 601 272 649 c 1
 324 649 l 1
358 64 m 1
 302 4 251 -10 210 -10 c 0
 111 -10 70 57 71 126 c 2
 73 249 l 2
 75 321 71 372 65 429 c 1
 67 432 l 1
 67 432 99 429 133 429 c 0
 168 429 198 432 198 432 c 1
 199 429 l 1
 192 379 193.5 324 191 249 c 2
 189 159 l 2
 187.2 77 216 56 246 56 c 0
 290.8 56 358 90 358 148 c 2
 358 249 l 2
 358 325 358 373 351 429 c 1
 353 432 l 1
 353 432 383 429 417 429 c 0
 452 429 484 432 484 432 c 1
 485 429 l 1
 476 376 476 324 476 249 c 2
 476 192 l 2
 476 117 485 43 493 0 c 1
 491 -3 l 1
 478 -1 440.1 0 427.5 0 c 0
 413 0 387.3 -1.3 374 -3 c 0
 368 -3 365 -2 365 0 c 2
 360 64 l 1
 358 64 l 1
EndSplineSet
Substitution2: "'smcp' Gemeine nach Kapitaelchen 1" ucircumflex.sc
AlternateSubs2: "'aalt' Alle Alternativen zeigen 1" ucircumflex.sc
Colour: ff00ff
EndChar

StartChar: ebreve
Encoding: 277 277 41
Width: 459
VWidth: 999
Flags: HW
HStem: -10 68<217.975 371.091> 243 44<161 327.997> 390 49<203.391 308.5> 501 57<156.968 293.898>
VStem: 32 126<127.31 243 287 299.028> 91 26<607.805 639.769> 328 127<254.5 342.567> 334 27<609.333 639.63>
LayerCount: 2
Fore
SplineSet
131 653 m 1
 133 599 176 559 239 559 c 0
 286 559 343 589 346 653 c 1
 378 638 l 1
 368 533 290 495 239 495 c 0
 158 495 105 557 98 638 c 1
 131 653 l 1
152 277 m 1
 286 277 l 2
 296 277 300 292 300 301 c 0
 300 372 273 390 237 390 c 0
 206.3 390 160.7 364 152 277 c 1
399 107 m 1
 412.7 99.4 419 87 419 72 c 1
 381 20 311 -10 239 -10 c 0
 90 -10 34 91 34 199 c 0
 34 351 143 439 238 439 c 0
 370 439 422 346 422 250 c 0
 422 239 415 233 404 233 c 2
 150 233 l 1
 150 86 202 58 259 58 c 0
 314 58 364 69 399 107 c 1
EndSplineSet
Colour: ff00ff
EndChar

StartChar: Edotaccent
Encoding: 278 278 42
Width: 564
VWidth: 999
Flags: HW
HStem: 0 63<228.662 460.105> 316 51<224 440.426> 575 21<232 506> 587 58<228.662 453.27> 701 138<249.092 348.908>
VStem: 96 128<64.202 316 367 585.479> 230 138<720.092 819.908>
LayerCount: 2
Fore
SplineSet
234 770 m 0
 234 806 263 835 299 835 c 0
 335 835 364 806 364 770 c 0
 364 734 335 705 299 705 c 0
 263 705 234 734 234 770 c 0
220 200 m 2
 220 183 221 87 228 63 c 1
 362 63 514 75 514 75 c 1
 516 71 l 1
 515 63 514 46 514 36 c 0
 514 26 515 14 516 0 c 1
 514 -3 l 1
 498 -1 475 0 454 0 c 2
 160 0 l 2
 125 0 87 -3 87 -3 c 1
 86 0 l 1
 94 54 96 125 96 200 c 2
 96 445 l 2
 96 520 94 588 86 645 c 1
 88 648 l 1
 88 648 126 645 160 645 c 0
 190 645 444 645 444 645 c 2
 465 645 488 646 504 648 c 1
 506 645 l 1
 505 631 504 618 504 610 c 0
 504 601 505 587 506 579 c 1
 504 575 l 1
 504 575 362 587 228 587 c 1
 221 563 220 462 220 445 c 2
 220 367 l 1
 338 367 388 372 447 377 c 1
 450 374 l 1
 448 365 447 351 447 342 c 0
 447 333 448 318 450 309 c 1
 447 306 l 1
 378 313 268 316 220 316 c 1
 220 200 l 2
EndSplineSet
Position2: "'cpsp' Versalabstaende 1" dx=2 dy=0 dh=5 dv=0
Colour: ff00ff
EndChar

StartChar: edotaccent
Encoding: 279 279 43
Width: 459
VWidth: 999
Flags: HW
HStem: -10 68<217.975 371.091> 243 44<161 327.997> 390 49<203.391 308.5> 532 138<197.092 296.908>
VStem: 32 126<127.31 243 287 299.028> 178 138<551.092 650.908> 328 127<254.5 342.567>
LayerCount: 2
Fore
SplineSet
182 601 m 0
 182 637 211 666 247 666 c 0
 283 666 312 637 312 601 c 0
 312 565 283 536 247 536 c 0
 211 536 182 565 182 601 c 0
152 277 m 1
 286 277 l 2
 296 277 300 292 300 301 c 0
 300 372 273 390 237 390 c 0
 206.3 390 160.7 364 152 277 c 1
399 107 m 1
 412.7 99.4 419 87 419 72 c 1
 381 20 311 -10 239 -10 c 0
 90 -10 34 91 34 199 c 0
 34 351 143 439 238 439 c 0
 370 439 422 346 422 250 c 0
 422 239 415 233 404 233 c 2
 150 233 l 1
 150 86 202 58 259 58 c 0
 314 58 364 69 399 107 c 1
EndSplineSet
Colour: ff00ff
EndChar

StartChar: Eogonek
Encoding: 280 280 44
Width: 564
VWidth: 999
Flags: HW
HStem: -224 39<325.181 408.941> 0 25<394.256 430.88> 0 63<228.662 460.105> 316 51<224 440.426> 575 21<232 506> 587 58<228.662 453.27>
VStem: 96 128<64.202 316 367 585.479> 251 60<-173.091 -74.5789>
LayerCount: 2
Fore
SplineSet
344 -224 m 0
 291 -224 251 -193 251 -139 c 0
 251 -91.5 291 -33.4 351.2 0 c 1
 160 0 l 2
 125 0 87 -3 87 -3 c 1
 86 0 l 1
 94 54 96 125 96 200 c 2
 96 445 l 2
 96 520 94 588 86 645 c 1
 88 648 l 1
 88 648 126 645 160 645 c 0
 190 645 444 645 444 645 c 2
 465 645 488 646 504 648 c 1
 506 645 l 1
 505 631 504 618 504 610 c 0
 504 601 505 587 506 579 c 1
 504 575 l 1
 504 575 362 587 228 587 c 1
 221 563 220 462 220 445 c 2
 220 367 l 1
 338 367 388 372 447 377 c 1
 450 374 l 1
 448 365 447 351 447 342 c 0
 447 333 448 318 450 309 c 1
 447 306 l 1
 378 313 268 316 220 316 c 1
 220 200 l 2
 220 183 221 87 228 63 c 1
 362 63 514 75 514 75 c 1
 516 71 l 1
 515 63 514 46 514 36 c 0
 514 26 515 14 516 0 c 1
 514 -3 l 1
 498 -1 475 0 454 0 c 2
 446 0 l 2
 366 0 311 -75 311 -126 c 0
 311 -158 333 -185 369 -185 c 0
 399 -185 419 -170 439 -149 c 1
 454 -157 l 1
 430 -204 380 -224 344 -224 c 0
EndSplineSet
Position2: "'cpsp' Versalabstaende 1" dx=2 dy=0 dh=5 dv=0
Substitution2: "'c2sc' Versale nach Kapitaelchen 1" eogonek.sc
Colour: ff80cc
EndChar

StartChar: eogonek
Encoding: 281 281 45
Width: 459
VWidth: 999
Flags: HW
HStem: -193 44<292.832 361.751> -10 68<217.975 371.091> 243 44<161 327.997> 390 49<203.391 308.5>
VStem: 32 126<127.31 243 287 299.028> 221 66<-143.553 -49.2913> 328 127<254.5 342.567>
LayerCount: 2
Fore
SplineSet
152 277 m 1
 286 277 l 2
 296 277 300 292 300 301 c 0
 300 372 273 390 237 390 c 0
 206.3 390 160.7 364 152 277 c 1
399 107 m 1
 412.7 99.4 419 87 419 72 c 1
 402.3 49.1 379.3 30.5 352.8 16.8 c 1
 310.4 -26.7 287 -59.9 287 -106 c 0
 287 -127 303 -149 329 -149 c 0
 346 -149 368 -134 382 -119 c 1
 385 -120 l 1
 399 -137 l 1
 372 -170 334 -193 300 -193 c 0
 251 -193 221 -164 221 -117 c 0
 221 -76.3 244.3 -39.2 276.1 -7.3 c 1
 263.9 -9.1 251.5 -10 239 -10 c 0
 90 -10 34 91 34 199 c 0
 34 351 143 439 238 439 c 0
 370 439 422 346 422 250 c 0
 422 239 415 233 404 233 c 2
 150 233 l 1
 150 86 202 58 259 58 c 0
 314 58 364 69 399 107 c 1
EndSplineSet
AlternateSubs2: "'aalt' Alle Alternativen zeigen 1" eogonek.sc
Substitution2: "'smcp' Gemeine nach Kapitaelchen 1" eogonek.sc
Colour: ff00ff
EndChar

StartChar: Ecaron
Encoding: 282 282 46
Width: 564
VWidth: 999
Flags: HW
HStem: 0 63<228.662 460.105> 316 51<224 440.426> 575 21<232 506> 587 58<228.662 453.27>
VStem: 96 128<64.202 316 367 585.479>
LayerCount: 2
Fore
SplineSet
268 697 m 1
 238 734 203 764 167 792 c 1
 183 812 l 1
 222 795 256 776 289 751 c 1
 326 777 358 796 396 812 c 1
 411 792 l 1
 373 763 341 731 311 697 c 1
 268 697 l 1
220 200 m 2
 220 183 221 87 228 63 c 1
 362 63 514 75 514 75 c 1
 516 71 l 1
 515 63 514 46 514 36 c 0
 514 26 515 14 516 0 c 1
 514 -3 l 1
 498 -1 475 0 454 0 c 2
 160 0 l 2
 125 0 87 -3 87 -3 c 1
 86 0 l 1
 94 54 96 125 96 200 c 2
 96 445 l 2
 96 520 94 588 86 645 c 1
 88 648 l 1
 88 648 126 645 160 645 c 0
 190 645 444 645 444 645 c 2
 465 645 488 646 504 648 c 1
 506 645 l 1
 505 631 504 618 504 610 c 0
 504 601 505 587 506 579 c 1
 504 575 l 1
 504 575 362 587 228 587 c 1
 221 563 220 462 220 445 c 2
 220 367 l 1
 338 367 388 372 447 377 c 1
 450 374 l 1
 448 365 447 351 447 342 c 0
 447 333 448 318 450 309 c 1
 447 306 l 1
 378 313 268 316 220 316 c 1
 220 200 l 2
EndSplineSet
Position2: "'cpsp' Versalabstaende 1" dx=2 dy=0 dh=5 dv=0
Substitution2: "'c2sc' Versale nach Kapitaelchen 1" ecaron.sc
Colour: ff00ff
EndChar

StartChar: ecaron
Encoding: 283 283 47
Width: 459
VWidth: 999
Flags: HW
HStem: -10 68<217.975 371.091> 243 44<161 327.997> 390 49<203.391 308.5>
VStem: 32 126<127.31 243 287 299.028> 328 127<254.5 342.567>
LayerCount: 2
Fore
SplineSet
259 497 m 1
 209 497 l 1
 180 543 142 586 107 626 c 1
 131 644 l 1
 170 617 196 598 233 560 c 1
 267 596 297 617 336 644 c 1
 360 626 l 1
 324 586 288 544 259 497 c 1
152 277 m 1
 286 277 l 2
 296 277 300 292 300 301 c 0
 300 372 273 390 237 390 c 0
 206.3 390 160.7 364 152 277 c 1
399 107 m 1
 412.7 99.4 419 87 419 72 c 1
 381 20 311 -10 239 -10 c 0
 90 -10 34 91 34 199 c 0
 34 351 143 439 238 439 c 0
 370 439 422 346 422 250 c 0
 422 239 415 233 404 233 c 2
 150 233 l 1
 150 86 202 58 259 58 c 0
 314 58 364 69 399 107 c 1
EndSplineSet
AlternateSubs2: "'aalt' Alle Alternativen zeigen 1" ecaron.sc
Substitution2: "'smcp' Gemeine nach Kapitaelchen 1" ecaron.sc
Colour: ff00ff
EndChar

StartChar: Gcircumflex
Encoding: 284 284 48
Width: 750
VWidth: 999
Flags: HW
HStem: -10 46<295.106 519.78> 611 47<271.555 476.844>
VStem: 32 103<213.43 430.807> 546 86<83.5114 304.327>
LayerCount: 2
Fore
SplineSet
385 805 m 1
 415 769 450 738 486 711 c 1
 470 690 l 1
 431 708 397 727 364 752 c 1
 327 725 295 707 257 690 c 1
 243 711 l 1
 280 739 311 771 342 805 c 1
 385 805 l 1
546 117 m 2
 546 192 544 250 536 307 c 1
 538 310 l 1
 538 310 576 307 610 307 c 0
 645 307 683 310 683 310 c 1
 684 307 l 1
 676 254 674 212 674 137 c 0
 674 104.6 677.9 90.5 684 83 c 1
 684 80 l 1
 616.5 23.4 503.5 -10 387 -10 c 0
 186 -10 39 134 39 307 c 0
 39 420 80.4 515.5 155 575 c 0
 224 630 302 658 402 658 c 0
 524 658 641 613 641 613 c 1
 643 610 l 1
 631.2 560.7 626.6 531 623 480 c 1
 603 479 l 1
 562 561 478 602 388 602 c 0
 253 602 177 488 177 327 c 0
 177 195 244 45 410 45 c 0
 464 45 512 51 546 83 c 1
 546 117 l 2
EndSplineSet
Position2: "'cpsp' Versalabstaende 1" dx=2 dy=0 dh=5 dv=0
Colour: ff00ff
EndChar

StartChar: gcircumflex
Encoding: 285 285 49
Width: 521
VWidth: 999
Flags: HW
HStem: -238 52<165.403 337.345> -15 71<189.385 255.344> -12 75<193.809 365.944> 136 53<191.222 298.809> 386 53<186.378 295.332>
VStem: 32 108<-160.17 -57.419> 59 110<212.61 356.406> 64 77<60.4446 149.891> 103 253<516 516> 318 108<216.393 350.483> 392 103<-131.841 -37.3755>
LayerCount: 2
Fore
SplineSet
268 648 m 1
 298 599 336 555 373 514 c 1
 348 495 l 1
 305 521 276 541 241 578 c 1
 203 539 175 521 135 495 c 1
 110 514 l 1
 146 555 186 600 216 648 c 1
 268 648 l 1
432 289 m 0
 432 195.9 359 141 243 141 c 0
 188.5 141 179.3 148.9 165 154.9 c 1
 154 137.9 151 127 151 107 c 0
 151 64 181 59 209 59 c 0
 214 59 214 60 228 61 c 0
 251 64 274 66 291 66 c 0
 383 66 495 46 495 -68 c 0
 495 -176 334 -238 205 -238 c 0
 132 -238 32 -211 32 -124 c 0
 32 -99.2 37 -68 54 -46 c 1
 78 -32 98.4 -16.6 120 -3 c 1
 91 5 54 32 54 74 c 0
 54 108 92 144 128 165 c 1
 100.2 183 l 1
 78 201 49 226.9 49 287 c 0
 49 383 126 439 234 439 c 0
 255.5 439 285.4 436 303.3 430.4 c 1
 377.9 434.3 434.2 434.9 482 439 c 1
 485 436 l 1
 483 427 482 416 482 407 c 0
 482 398 483 389 485 380 c 1
 482 377 l 1
 447.2 379.4 410.7 385.1 380.9 385.6 c 1
 412 364.6 432 323.5 432 289 c 0
316 279 m 0
 316 354 293 400 233 400 c 0
 181 400 167 347 167 302 c 0
 167 238 177 181 243 181 c 0
 278 181 316 208 316 279 c 0
165 -15 m 1
 139 -42 131 -70.9 131 -104 c 0
 131 -172 199 -196 233 -196 c 0
 319 -196 380 -152 380 -91 c 0
 380 -21.8 312 -17 256 -17 c 0
 242.2 -17 215.5 -18 186 -18 c 0
 177 -18 171.4 -15.8 165 -15 c 1
EndSplineSet
Colour: ff00ff
EndChar

StartChar: Gbreve
Encoding: 286 286 50
Width: 750
VWidth: 999
Flags: HW
HStem: -10 46<295.106 519.78> 611 47<271.555 476.844> 693 52<293 449>
VStem: 32 103<213.43 430.807> 236 28<766 804> 480 27<768 806> 546 86<83.5114 304.327>
LayerCount: 2
Fore
SplineSet
507 806 m 1
 501 735 438 693 372 693 c 0
 299 693 241 736 236 806 c 1
 264 806 l 1
 272 767 319 745 372 745 c 0
 421 745 473 767 480 806 c 1
 507 806 l 1
546 117 m 2
 546 192 544 250 536 307 c 1
 538 310 l 1
 538 310 576 307 610 307 c 0
 645 307 683 310 683 310 c 1
 684 307 l 1
 676 254 674 212 674 137 c 0
 674 104.6 677.9 90.5 684 83 c 1
 684 80 l 1
 616.5 23.4 503.5 -10 387 -10 c 0
 186 -10 39 134 39 307 c 0
 39 420 80.4 515.5 155 575 c 0
 224 630 302 658 402 658 c 0
 524 658 641 613 641 613 c 1
 643 610 l 1
 631.2 560.7 626.6 531 623 480 c 1
 603 479 l 1
 562 561 478 602 388 602 c 0
 253 602 177 488 177 327 c 0
 177 195 244 45 410 45 c 0
 464 45 512 51 546 83 c 1
 546 117 l 2
EndSplineSet
Position2: "'cpsp' Versalabstaende 1" dx=2 dy=0 dh=5 dv=0
Substitution2: "'c2sc' Versale nach Kapitaelchen 1" gbreve.sc
Colour: ff00ff
EndChar

StartChar: gbreve
Encoding: 287 287 51
Width: 521
VWidth: 999
Flags: HW
HStem: -238 52<165.403 337.345> -15 71<189.385 255.344> -12 75<193.809 365.944> 136 53<191.222 298.809> 386 53<186.378 295.332> 497 57<150.968 287.898>
VStem: 32 108<-160.17 -57.419> 59 110<212.61 356.406> 64 77<60.4446 149.891> 85 26<603.805 635.769> 318 108<216.393 350.483> 328 27<605.333 635.63> 392 103<-131.841 -37.3755>
LayerCount: 2
Fore
SplineSet
125 649 m 1
 127 595 170 555 233 555 c 0
 280 555 337 585 340 649 c 1
 372 634 l 1
 362 529 284 491 233 491 c 0
 152 491 99 553 92 634 c 1
 125 649 l 1
432 289 m 0
 432 195.9 359 141 243 141 c 0
 188.5 141 179.3 148.9 165 154.9 c 1
 154 137.9 151 127 151 107 c 0
 151 64 181 59 209 59 c 0
 214 59 214 60 228 61 c 0
 251 64 274 66 291 66 c 0
 383 66 495 46 495 -68 c 0
 495 -176 334 -238 205 -238 c 0
 132 -238 32 -211 32 -124 c 0
 32 -99.2 37 -68 54 -46 c 1
 78 -32 98.4 -16.6 120 -3 c 1
 91 5 54 32 54 74 c 0
 54 108 92 144 128 165 c 1
 100.2 183 l 1
 78 201 49 226.9 49 287 c 0
 49 383 126 439 234 439 c 0
 255.5 439 285.4 436 303.3 430.4 c 1
 377.9 434.3 434.2 434.9 482 439 c 1
 485 436 l 1
 483 427 482 416 482 407 c 0
 482 398 483 389 485 380 c 1
 482 377 l 1
 447.2 379.4 410.7 385.1 380.9 385.6 c 1
 412 364.6 432 323.5 432 289 c 0
316 279 m 0
 316 354 293 400 233 400 c 0
 181 400 167 347 167 302 c 0
 167 238 177 181 243 181 c 0
 278 181 316 208 316 279 c 0
165 -15 m 1
 139 -42 131 -70.9 131 -104 c 0
 131 -172 199 -196 233 -196 c 0
 319 -196 380 -152 380 -91 c 0
 380 -21.8 312 -17 256 -17 c 0
 242.2 -17 215.5 -18 186 -18 c 0
 177 -18 171.4 -15.8 165 -15 c 1
EndSplineSet
AlternateSubs2: "'aalt' Alle Alternativen zeigen 1" gbreve.sc
Substitution2: "'smcp' Gemeine nach Kapitaelchen 1" gbreve.sc
Colour: ff00ff
EndChar

StartChar: Gdotaccent
Encoding: 288 288 52
Width: 750
VWidth: 999
Flags: HW
HStem: -10 46<295.106 519.78> 611 47<271.555 476.844> 714 138<344.092 443.908>
VStem: 32 103<213.43 430.807> 325 138<733.092 832.908> 546 86<83.5114 304.327>
LayerCount: 2
Fore
SplineSet
329 783 m 0
 329 819 358 848 394 848 c 0
 430 848 459 819 459 783 c 0
 459 747 430 718 394 718 c 0
 358 718 329 747 329 783 c 0
546 117 m 2
 546 192 544 250 536 307 c 1
 538 310 l 1
 538 310 576 307 610 307 c 0
 645 307 683 310 683 310 c 1
 684 307 l 1
 676 254 674 212 674 137 c 0
 674 104.6 677.9 90.5 684 83 c 1
 684 80 l 1
 616.5 23.4 503.5 -10 387 -10 c 0
 186 -10 39 134 39 307 c 0
 39 420 80.4 515.5 155 575 c 0
 224 630 302 658 402 658 c 0
 524 658 641 613 641 613 c 1
 643 610 l 1
 631.2 560.7 626.6 531 623 480 c 1
 603 479 l 1
 562 561 478 602 388 602 c 0
 253 602 177 488 177 327 c 0
 177 195 244 45 410 45 c 0
 464 45 512 51 546 83 c 1
 546 117 l 2
EndSplineSet
Position2: "'cpsp' Versalabstaende 1" dx=2 dy=0 dh=5 dv=0
Colour: ff00ff
EndChar

StartChar: gdotaccent
Encoding: 289 289 53
Width: 521
VWidth: 999
Flags: HW
HStem: -238 52<165.403 337.345> -15 71<189.385 255.344> -12 75<193.809 365.944> 136 53<191.222 298.809> 386 53<186.378 295.332> 531 138<194.092 293.908>
VStem: 32 108<-160.17 -57.419> 59 110<212.61 356.406> 64 77<60.4446 149.891> 175 138<550.092 649.908> 318 108<216.393 350.483> 392 103<-131.841 -37.3755>
LayerCount: 2
Fore
SplineSet
179 600 m 0
 179 636 208 665 244 665 c 0
 280 665 309 636 309 600 c 0
 309 564 280 535 244 535 c 0
 208 535 179 564 179 600 c 0
432 289 m 0
 432 195.9 359 141 243 141 c 0
 188.5 141 179.3 148.9 165 154.9 c 1
 154 137.9 151 127 151 107 c 0
 151 64 181 59 209 59 c 0
 214 59 214 60 228 61 c 0
 251 64 274 66 291 66 c 0
 383 66 495 46 495 -68 c 0
 495 -176 334 -238 205 -238 c 0
 132 -238 32 -211 32 -124 c 0
 32 -99.2 37 -68 54 -46 c 1
 78 -32 98.4 -16.6 120 -3 c 1
 91 5 54 32 54 74 c 0
 54 108 92 144 128 165 c 1
 100.2 183 l 1
 78 201 49 226.9 49 287 c 0
 49 383 126 439 234 439 c 0
 255.5 439 285.4 436 303.3 430.4 c 1
 377.9 434.3 434.2 434.9 482 439 c 1
 485 436 l 1
 483 427 482 416 482 407 c 0
 482 398 483 389 485 380 c 1
 482 377 l 1
 447.2 379.4 410.7 385.1 380.9 385.6 c 1
 412 364.6 432 323.5 432 289 c 0
316 279 m 0
 316 354 293 400 233 400 c 0
 181 400 167 347 167 302 c 0
 167 238 177 181 243 181 c 0
 278 181 316 208 316 279 c 0
165 -15 m 1
 139 -42 131 -70.9 131 -104 c 0
 131 -172 199 -196 233 -196 c 0
 319 -196 380 -152 380 -91 c 0
 380 -21.8 312 -17 256 -17 c 0
 242.2 -17 215.5 -18 186 -18 c 0
 177 -18 171.4 -15.8 165 -15 c 1
EndSplineSet
Colour: ff00ff
EndChar

StartChar: Gcommaaccent
Encoding: 290 290 54
Width: 750
VWidth: 999
Flags: HW
HStem: -231 17<330 351.215> -134 81<329.998 402.485> -10 46<295.106 519.78> 611 47<271.555 476.844>
VStem: 32 103<213.43 430.807> 405 32<-177.598 -107.5> 546 86<83.5114 304.327>
LayerCount: 2
Fore
SplineSet
375 -53 m 0
 414 -53 437 -90 437 -125 c 0
 437 -151 420 -227 330 -231 c 1
 326 -214 l 1
 402 -199 405 -141 405 -135 c 0
 405 -131 404 -128 403 -125 c 1
 392 -131 382 -134 374 -134 c 0
 333 -134 324 -109 324 -93 c 0
 324 -77 339 -53 375 -53 c 0
546 117 m 2
 546 192 544 250 536 307 c 1
 538 310 l 1
 538 310 576 307 610 307 c 0
 645 307 683 310 683 310 c 1
 684 307 l 1
 676 254 674 212 674 137 c 0
 674 104.6 677.9 90.5 684 83 c 1
 684 80 l 1
 616.5 23.4 503.5 -10 387 -10 c 0
 186 -10 39 134 39 307 c 0
 39 420 80.4 515.5 155 575 c 0
 224 630 302 658 402 658 c 0
 524 658 641 613 641 613 c 1
 643 610 l 1
 631.2 560.7 626.6 531 623 480 c 1
 603 479 l 1
 562 561 478 602 388 602 c 0
 253 602 177 488 177 327 c 0
 177 195 244 45 410 45 c 0
 464 45 512 51 546 83 c 1
 546 117 l 2
EndSplineSet
Position2: "'cpsp' Versalabstaende 1" dx=2 dy=0 dh=5 dv=0
Colour: ff00ff
EndChar

StartChar: gcommaaccent
Encoding: 291 291 55
Width: 521
VWidth: 999
Flags: HW
HStem: -238 52<165.403 337.345> -15 71<189.385 255.344> -12 75<193.809 365.944> 136 53<191.222 298.809> 386 53<186.378 295.332> 511 82<199.561 272.708> 673 17<251.498 273>
VStem: 32 108<-160.17 -57.419> 59 110<212.61 356.406> 64 77<60.4446 149.891> 166 32<584 635.93> 318 108<216.393 350.483> 392 103<-131.841 -37.3755>
LayerCount: 2
Fore
SplineSet
228 511 m 0
 189 511 166 548 166 584 c 0
 166 610 183 686 273 690 c 1
 277 673 l 1
 200 658 198 598 198 594 c 0
 198 590 199 587 199 584 c 1
 211 590 221 593 229 593 c 0
 269 593 279 568 279 551 c 0
 279 535 263 511 228 511 c 0
432 289 m 0
 432 195.9 359 141 243 141 c 0
 188.5 141 179.3 148.9 165 154.9 c 1
 154 137.9 151 127 151 107 c 0
 151 64 181 59 209 59 c 0
 214 59 214 60 228 61 c 0
 251 64 274 66 291 66 c 0
 383 66 495 46 495 -68 c 0
 495 -176 334 -238 205 -238 c 0
 132 -238 32 -211 32 -124 c 0
 32 -99.2 37 -68 54 -46 c 1
 78 -32 98.4 -16.6 120 -3 c 1
 91 5 54 32 54 74 c 0
 54 108 92 144 128 165 c 1
 100.2 183 l 1
 78 201 49 226.9 49 287 c 0
 49 383 126 439 234 439 c 0
 255.5 439 285.4 436 303.3 430.4 c 1
 377.9 434.3 434.2 434.9 482 439 c 1
 485 436 l 1
 483 427 482 416 482 407 c 0
 482 398 483 389 485 380 c 1
 482 377 l 1
 447.2 379.4 410.7 385.1 380.9 385.6 c 1
 412 364.6 432 323.5 432 289 c 0
316 279 m 0
 316 354 293 400 233 400 c 0
 181 400 167 347 167 302 c 0
 167 238 177 181 243 181 c 0
 278 181 316 208 316 279 c 0
165 -15 m 1
 139 -42 131 -70.9 131 -104 c 0
 131 -172 199 -196 233 -196 c 0
 319 -196 380 -152 380 -91 c 0
 380 -21.8 312 -17 256 -17 c 0
 242.2 -17 215.5 -18 186 -18 c 0
 177 -18 171.4 -15.8 165 -15 c 1
EndSplineSet
Colour: ff00ff
EndChar

StartChar: Hcircumflex
Encoding: 292 292 56
Width: 748
VWidth: 999
Flags: HW
HStem: -3 21<93 167 167 241 501 575 575 649> 311 52<217 543> 628 20<93 167 167 241 501 575 575 649>
VStem: 103 128<2.67992 642.32> 511 128<2.67992 642.32>
LayerCount: 2
Fore
SplineSet
511 445 m 2
 511 520 509 588 501 645 c 1
 503 648 l 1
 503 648 539 645 573 645 c 0
 608 645 644 648 644 648 c 1
 645 645 l 1
 637 592 635 520 635 445 c 2
 635 200 l 2
 635 125 637 57 645 0 c 1
 643 -3 l 1
 643 -3 607 0 573 0 c 0
 538 0 502 -3 502 -3 c 1
 501 0 l 1
 509 54 511 125 511 200 c 2
 511 311 l 1
 227 311 l 1
 227 200 l 2
 227 125 229 57 237 0 c 1
 235 -3 l 1
 235 -3 199 0 165 0 c 0
 130 0 94 -3 94 -3 c 1
 93 0 l 1
 101 54 103 125 103 200 c 2
 103 445 l 2
 103 520 101 588 93 645 c 1
 95 648 l 1
 95 648 131 645 165 645 c 0
 200 645 236 648 236 648 c 1
 237 645 l 1
 229 592 227 520 227 445 c 2
 227 363 l 1
 511 363 l 1
 511 445 l 2
368 803 m 1
 398 767 433 736 469 709 c 1
 453 688 l 1
 414 706 380 725 347 750 c 1
 310 723 278 705 240 688 c 1
 226 709 l 1
 263 737 294 769 325 803 c 1
 368 803 l 1
EndSplineSet
Position2: "'cpsp' Versalabstaende 1" dx=2 dy=0 dh=5 dv=0
Colour: ff00ff
EndChar

StartChar: hcircumflex
Encoding: 293 293 57
Width: 570
VWidth: 999
Flags: HW
HStem: -3 21<73 142 142 211 366 435 435 504> 373 66<270.645 360.574> 678 20<189.465 205.167>
VStem: 83 118<2.6647 320.474 360 667.98> 376 118<2.66453 358.781>
LayerCount: 2
Fore
SplineSet
286 832 m 1
 316 796 351 765 387 738 c 1
 371 717 l 1
 332 735 298 754 265 779 c 1
 228 752 196 734 158 717 c 1
 144 738 l 1
 181 766 212 798 243 832 c 1
 286 832 l 1
376 180 m 2
 376 276 l 2
 376 357 361.1 373 315 373 c 0
 286 373 245 346 201 300 c 1
 201 180 l 2
 201 104 202 56 209 0 c 1
 207 -3 l 1
 207 -3 176.3 0 142 0 c 0
 107 0 74 -3 74 -3 c 1
 73 0 l 1
 81.5 53.5 83 105 83 180 c 2
 83 473 l 2
 83 549 80.7 619.3 73 662 c 1
 75 665 l 1
 115.5 668 176.9 688 202 698 c 1
 208.3 698 211 695 211 688 c 0
 203.3 626.7 201 575 201 501 c 2
 201 360 l 1
 279 429 317 439 356 439 c 0
 396 439 422.9 431.4 449 412 c 0
 484 386 494 340 494 284 c 2
 494 180 l 2
 494 103.8 495.5 57 504 0 c 1
 502 -3 l 1
 502 -3 469.3 0 435 0 c 0
 400 0 369 -3 369 -3 c 1
 368 0 l 1
 374 53 376 105 376 180 c 2
EndSplineSet
Colour: ff00ff
EndChar

StartChar: Hbar
Encoding: 294 294 58
Width: 748
VWidth: 999
Flags: HW
HStem: -3 21<93 167 167 241 501 575 575 649> 311 52<217 543> 512 34<41 656> 628 20<93 167 167 241 501 575 575 649>
VStem: 103 128<2.67992 642.32> 511 128<2.67992 642.32>
LayerCount: 2
Fore
SplineSet
511 363 m 1
 511 445 l 2
 511 468 510.8 490.4 510.3 512 c 1
 227.7 512 l 1
 227.2 490.2 227 467.8 227 445 c 2
 227 363 l 1
 511 363 l 1
511 311 m 1
 227 311 l 1
 227 200 l 2
 227 125 229 57 237 0 c 1
 235 -3 l 1
 235 -3 199 0 165 0 c 0
 130 0 94 -3 94 -3 c 1
 93 0 l 1
 101 54 103 125 103 200 c 2
 103 445 l 2
 103 468 102.8 490.4 102.3 512 c 1
 41 512 l 1
 41 546 l 1
 101.2 546 l 1
 99.7 581.7 97.2 614.9 93 645 c 1
 95 648 l 1
 95 648 131 645 165 645 c 0
 200 645 236 648 236 648 c 1
 237 645 l 1
 232.7 616.6 230.2 582.8 228.7 546 c 1
 509.2 546 l 1
 507.7 581.7 505.2 614.9 501 645 c 1
 503 648 l 1
 503 648 539 645 573 645 c 0
 608 645 644 648 644 648 c 1
 645 645 l 1
 640.7 616.6 638.2 582.8 636.7 546 c 1
 656 546 l 1
 656 512 l 1
 635.7 512 l 1
 635.2 490.2 635 467.8 635 445 c 2
 635 200 l 2
 635 125 637 57 645 0 c 1
 643 -3 l 1
 643 -3 607 0 573 0 c 0
 538 0 502 -3 502 -3 c 1
 501 0 l 1
 509 54 511 125 511 200 c 2
 511 311 l 1
EndSplineSet
Position2: "'cpsp' Versalabstaende 1" dx=2 dy=0 dh=5 dv=0
Colour: ff80cc
EndChar

StartChar: hbar
Encoding: 295 295 59
Width: 570
VWidth: 999
Flags: HW
HStem: -3 21<73 142 142 211 386 455 455 524> 373 66<277.694 380.574> 530 39<26 341> 678 20<189.465 205.167>
VStem: 83 118<2.6647 318.568 360 667.98> 396 118<2.66453 358.781>
LayerCount: 2
Fore
SplineSet
376 180 m 2
 376 276 l 2
 376 357 361.1 373 315 373 c 0
 286 373 245 346 201 300 c 1
 201 180 l 2
 201 104 202 56 209 0 c 1
 207 -3 l 1
 207 -3 176.3 0 142 0 c 0
 107 0 74 -3 74 -3 c 1
 73 0 l 1
 81.5 53.5 83 105 83 180 c 2
 83 473 l 2
 83 492.5 82.9 511.6 82.5 530 c 1
 26 530 l 1
 26 569 l 1
 81.4 569 l 1
 79.9 606 77.3 638.3 73 662 c 1
 75 665 l 1
 115.5 668 176.9 688 202 698 c 1
 208.3 698 211 695 211 688 c 0
 205.9 647.2 203.2 610.7 201.9 569 c 1
 341 569 l 1
 341 530 l 1
 201.1 530 l 1
 201 520.7 201 511.1 201 501 c 2
 201 360 l 1
 279 429 317 439 356 439 c 0
 396 439 422.9 431.4 449 412 c 0
 484 386 494 340 494 284 c 2
 494 180 l 2
 494 103.8 495.5 57 504 0 c 1
 502 -3 l 1
 502 -3 469.3 0 435 0 c 0
 400 0 369 -3 369 -3 c 1
 368 0 l 1
 374 53 376 105 376 180 c 2
EndSplineSet
Colour: ff80cc
EndChar

StartChar: Itilde
Encoding: 296 296 60
Width: 331
VWidth: 999
Flags: HW
HStem: -3 21<96 170 170 244> 628 20<96 170 170 244> 697 44<162 249> 745 46<44 135> 784 10
VStem: 106 128<2.67992 642.32>
LayerCount: 2
Fore
SplineSet
228 745 m 0
 250 745 263 754 277 803 c 1
 305 793 l 1
 292 725 262 685 214 685 c 0
 191 685 169 700 149 715 c 1
 129 728 109 741 91 741 c 0
 64 741 53 726 42 688 c 1
 16 696 l 1
 30 764 54 802 99 802 c 0
 130 802 153 786 173 770 c 0
 191 756 208 745 228 745 c 0
106 445 m 2
 106 520 104 588 96 645 c 1
 98 648 l 1
 98 648 134 645 168 645 c 0
 203 645 239 648 239 648 c 1
 240 645 l 1
 232 592 230 520 230 445 c 2
 230 200 l 2
 230 125 232 57 240 0 c 1
 238 -3 l 1
 238 -3 202 0 168 0 c 0
 133 0 97 -3 97 -3 c 1
 96 0 l 1
 104 54 106 125 106 200 c 2
 106 445 l 2
EndSplineSet
Position2: "'cpsp' Versalabstaende 1" dx=2 dy=0 dh=5 dv=0
Colour: ff00ff
EndChar

StartChar: itilde
Encoding: 297 297 61
Width: 306
VWidth: 999
Flags: HW
HStem: -3 21<84 153 153 222> 419 20<200.5 216> 526 44<149.2 227.5> 574 46<43 124.9> 613 10
VStem: 94 118<2.6647 408.973>
LayerCount: 2
Fore
SplineSet
208.6 574 m 0
 228.4 574 240.1 583 252.7 632 c 1
 277.9 622 l 1
 266.2 554 239.2 514 196 514 c 0
 175.3 514 155.5 529 137.5 544 c 1
 119.5 557 101.5 570 85.3 570 c 0
 61 570 51.1 555 41.2 517 c 1
 17.8 525 l 1
 30.4 593 52 631 92.5 631 c 0
 120.4 631 141.1 615 159.1 599 c 0
 175.3 585 190.6 574 208.6 574 c 0
94 235 m 2
 94 310 92 368 84 411 c 1
 86 414 l 1
 126 417 188 429 213 439 c 1
 219 439 222 436 222 429 c 0
 214 368 212 326 212 251 c 2
 212 180 l 2
 212 104 214 57 222 0 c 1
 220 -3 l 1
 220 -3 187 0 153 0 c 0
 118 0 85 -3 85 -3 c 1
 84 0 l 1
 92 54 94 105 94 180 c 2
 94 235 l 2
EndSplineSet
Colour: ff00ff
EndChar

StartChar: Imacron
Encoding: 298 298 62
Width: 331
VWidth: 999
Flags: HW
HStem: -3 21<96 170 170 244> 628 20<96 170 170 244> 733 44<9.0876 287.515>
VStem: 8 281<733.205 777> 106 128<2.67992 642.32>
LayerCount: 2
Fore
SplineSet
292 730 m 2
 18 730 l 2
 7 730 3 739 3 748 c 0
 3 760 15 780 28 780 c 2
 304 780 l 2
 314 780 318 771 318 763 c 0
 318 750 306 730 292 730 c 2
106 445 m 2
 106 520 104 588 96 645 c 1
 98 648 l 1
 98 648 134 645 168 645 c 0
 203 645 239 648 239 648 c 1
 240 645 l 1
 232 592 230 520 230 445 c 2
 230 200 l 2
 230 125 232 57 240 0 c 1
 238 -3 l 1
 238 -3 202 0 168 0 c 0
 133 0 97 -3 97 -3 c 1
 96 0 l 1
 104 54 106 125 106 200 c 2
 106 445 l 2
EndSplineSet
Position2: "'cpsp' Versalabstaende 1" dx=2 dy=0 dh=5 dv=0
Colour: ff00ff
EndChar

StartChar: imacron
Encoding: 299 299 63
Width: 306
VWidth: 999
Flags: HW
HStem: -3 21<84 153 153 222> 419 20<200.5 216> 538 44<9.57884 260.164>
VStem: 8.6 252.9<538.205 582> 94 118<2.6647 408.973>
LayerCount: 2
Fore
SplineSet
264.2 535 m 2
 17.6 535 l 2
 7.7 535 4.1 544 4.1 553 c 0
 4.1 565 14.9 585 26.6 585 c 2
 275 585 l 2
 284 585 287.6 576 287.6 568 c 0
 287.6 555 276.8 535 264.2 535 c 2
94 235 m 2
 94 310 92 368 84 411 c 1
 86 414 l 1
 126 417 188 429 213 439 c 1
 219 439 222 436 222 429 c 0
 214 368 212 326 212 251 c 2
 212 180 l 2
 212 104 214 57 222 0 c 1
 220 -3 l 1
 220 -3 187 0 153 0 c 0
 118 0 85 -3 85 -3 c 1
 84 0 l 1
 92 54 94 105 94 180 c 2
 94 235 l 2
EndSplineSet
Colour: ff00ff
EndChar

StartChar: Ibreve
Encoding: 300 300 64
Width: 331
VWidth: 999
Flags: HW
HStem: -3 21<96 170 170 244> 628 20<96 170 170 244> 692 52<70 226>
VStem: 13 28<765 803> 106 128<2.67992 642.32> 257 27<767 805>
LayerCount: 2
Fore
SplineSet
284 805 m 1
 278 734 215 692 149 692 c 0
 76 692 18 735 13 805 c 1
 41 805 l 1
 49 766 96 744 149 744 c 0
 198 744 250 766 257 805 c 1
 284 805 l 1
106 445 m 2
 106 520 104 588 96 645 c 1
 98 648 l 1
 98 648 134 645 168 645 c 0
 203 645 239 648 239 648 c 1
 240 645 l 1
 232 592 230 520 230 445 c 2
 230 200 l 2
 230 125 232 57 240 0 c 1
 238 -3 l 1
 238 -3 202 0 168 0 c 0
 133 0 97 -3 97 -3 c 1
 96 0 l 1
 104 54 106 125 106 200 c 2
 106 445 l 2
EndSplineSet
Position2: "'cpsp' Versalabstaende 1" dx=2 dy=0 dh=5 dv=0
Colour: ff00ff
EndChar

StartChar: ibreve
Encoding: 301 301 65
Width: 306
VWidth: 999
Flags: HW
HStem: -3 21<84 153 153 222> 419 20<200.5 216> 503 57<74.2712 197.508>
VStem: 14.9 23.4<609.805 641.769> 94 118<2.6647 408.973> 233.6 24.3<611.333 641.63>
LayerCount: 2
Fore
SplineSet
50.9 655 m 1
 52.7 601 91.4 561 148.1 561 c 0
 190.4 561 241.7 591 244.4 655 c 1
 273.2 640 l 1
 264.2 535 194 497 148.1 497 c 0
 75.2 497 27.5 559 21.2 640 c 1
 50.9 655 l 1
94 235 m 2
 94 310 92 368 84 411 c 1
 86 414 l 1
 126 417 188 429 213 439 c 1
 219 439 222 436 222 429 c 0
 214 368 212 326 212 251 c 2
 212 180 l 2
 212 104 214 57 222 0 c 1
 220 -3 l 1
 220 -3 187 0 153 0 c 0
 118 0 85 -3 85 -3 c 1
 84 0 l 1
 92 54 94 105 94 180 c 2
 94 235 l 2
EndSplineSet
Colour: ff00ff
EndChar

StartChar: Iogonek
Encoding: 302 302 66
Width: 331
VWidth: 999
Flags: HW
HStem: -225 39<73.1814 157.134> -3 21<96 170 170 244> -1 25<142.256 178.88> 628 20<96 170 170 244>
VStem: -1 60<-174.091 -75.5789> 106 128<2.67992 642.32>
LayerCount: 2
Fore
SplineSet
92 -225 m 0
 39 -225 -1 -194 -1 -140 c 0
 -1 -93.2 38 -36 96.8 -2.4 c 1
 96 0 l 1
 104 54 106 125 106 200 c 2
 106 445 l 2
 106 520 104 588 96 645 c 1
 98 648 l 1
 98 648 134 645 168 645 c 0
 203 645 239 648 239 648 c 1
 240 645 l 1
 232 592 230 520 230 445 c 2
 230 200 l 2
 230 125 232 57 240 0 c 1
 238 -3 l 1
 238 -3 217.9 -1.3 193.6 -0.5 c 1
 194 -1 l 1
 114 -1 59 -76 59 -127 c 0
 59 -159 81 -186 117 -186 c 0
 147 -186 168 -171 187 -150 c 1
 202 -158 l 1
 178 -205 128 -225 92 -225 c 0
EndSplineSet
Position2: "'cpsp' Versalabstaende 1" dx=2 dy=0 dh=5 dv=0
Colour: ff80cc
EndChar

StartChar: iogonek
Encoding: 303 303 67
Width: 306
VWidth: 999
Flags: HW
HStem: -225 39<52.2133 135.045> -3 21<84 153 153 222> -1 25<119.395 156.6> 419 20<200.5 216> 531 138<103.092 202.908>
VStem: -23 60<-174.091 -75.5789> 84 138<550.092 649.908> 94 118<2.6647 408.973>
LayerCount: 2
Fore
SplineSet
70 -225 m 0
 16 -225 -23 -194 -23 -140 c 0
 -23 -90.5 19.8 -29.4 84.4 3.1 c 1
 92 56 94 106.4 94 180 c 2
 94 235 l 2
 94 310 92 368 84 411 c 1
 86 414 l 1
 126 417 188 429 213 439 c 1
 219 439 222 436 222 429 c 0
 214 368 212 326 212 251 c 2
 212 180 l 2
 212 104 214 57 222 0 c 1
 220 -3 l 1
 220 -3 197.4 -0.9 170.4 -0.2 c 1
 171 -1 l 1
 91 -1 37 -76 37 -127 c 0
 37 -159 59 -186 95 -186 c 0
 124 -186 145 -171 164 -150 c 1
 180 -158 l 1
 156 -205 105 -225 70 -225 c 0
88 600 m 0
 88 636 117 665 153 665 c 0
 189 665 218 636 218 600 c 0
 218 564 189 535 153 535 c 0
 117 535 88 564 88 600 c 0
EndSplineSet
Colour: ff80cc
EndChar

StartChar: Idotaccent
Encoding: 304 304 68
Width: 331
VWidth: 999
Flags: HW
HStem: -3 21<96 170 170 244> 628 20<96 170 170 244> 711 138<115.092 214.908>
VStem: 96 138<730.092 829.908> 106 128<2.67992 642.32>
LayerCount: 2
Fore
SplineSet
100 780 m 0
 100 816 129 845 165 845 c 0
 201 845 230 816 230 780 c 0
 230 744 201 715 165 715 c 0
 129 715 100 744 100 780 c 0
106 445 m 2
 106 520 104 588 96 645 c 1
 98 648 l 1
 98 648 134 645 168 645 c 0
 203 645 239 648 239 648 c 1
 240 645 l 1
 232 592 230 520 230 445 c 2
 230 200 l 2
 230 125 232 57 240 0 c 1
 238 -3 l 1
 238 -3 202 0 168 0 c 0
 133 0 97 -3 97 -3 c 1
 96 0 l 1
 104 54 106 125 106 200 c 2
 106 445 l 2
EndSplineSet
Substitution2: "'c2sc' Versale nach Kapitaelchen 1" idotaccent.sc
Position2: "'cpsp' Versalabstaende 1" dx=2 dy=0 dh=5 dv=0
Colour: ff00ff
EndChar

StartChar: afii10057
Encoding: 1032 1032 69
Width: 385
VWidth: 999
Flags: HW
HStem: -10 60<57.8935 169.935> 628 20G<200 253 253 306>
VStem: 210 86<132.814 642.32>
AnchorPoint: "top_akzent" 252 806 basechar 0
AnchorPoint: "top_punkt" 251 723 basechar 0
LayerCount: 2
Fore
SplineSet
210 258 m 2
 210 445 l 2
 210 520 208 588 200 645 c 1
 202 648 l 1
 202 648 219 645 253 645 c 0
 288 645 305 648 305 648 c 1
 306 645 l 1
 298 592 296 520 296 445 c 2
 296 280 l 2
 296 165.5 285.8 135.1 233 66 c 0
 191.8 12.1 138 -10 75 -10 c 0
 56 -10 38 -6 30 -1 c 1
 29 2 l 1
 40 21 50 57 57 84 c 1
 68 85 l 1
 79 65 97 50 126 50 c 0
 205 50 210 170 210 258 c 2
EndSplineSet
EndChar

StartChar: afii10061
Encoding: 1036 1036 70
Width: 632
VWidth: 999
Flags: HW
HStem: -4 21<443 478.5 586.5 596> -3 21<96 170 170 244> 312 45<187 249.712> 569 89<450.534 559.69> 628 20<96 170 170 244> 698 122
VStem: 106 128<2.67992 642.32> 288 201
LayerCount: 2
Fore
SplineSet
427 820 m 1
 489 768 l 1
 345 710 l 2
 324 701 311 698 302 698 c 0
 293 698 288 703 288 713 c 0
 288 720 290 725 303 734 c 2
 427 820 l 1
106 445 m 2
 106 520 104 588 96 645 c 1
 98 648 l 1
 98 648 134 645 168 645 c 0
 203 645 239 648 239 648 c 1
 240 645 l 1
 232 592 230 520 230 445 c 2
 230 364.8 l 1
 284.3 387.8 296.2 458.1 347 531 c 0
 390.3 593.1 449 658 527 658 c 0
 554 658 558 655 584 648 c 1
 589 642 l 1
 560 551 l 1
 548 548 l 1
 528 562 511 569 483 569 c 0
 460 569 424 550 388 502 c 0
 343.6 442.8 328 360 285 340 c 1
 285 337 l 1
 357 325 376.8 296.9 429 237 c 0
 513.7 139.8 512 89 596 0 c 1
 593 -4 l 1
 580 -2 541 0 516 0 c 0
 490 0 490 -2 467 -4 c 1
 419 73 399 117 371 169 c 0
 335 235.9 307.8 288.1 230 306 c 1
 230 200 l 2
 230 125 232 57 240 0 c 1
 238 -3 l 1
 238 -3 202 0 168 0 c 0
 133 0 97 -3 97 -3 c 1
 96 0 l 1
 104 54 106 125 106 200 c 2
 106 445 l 2
EndSplineSet
LCarets2: 1 0 
Colour: ff00ff
EndChar

StartChar: uni040D
Encoding: 1037 1037 71
Width: 700
VWidth: 999
Flags: HW
HStem: -3 21<96 170 170 244 502 576 576 650> 628 20<96 170 170 244 502 576 576 650>
VStem: 106 128<2.67992 642.32> 512 128<2.67992 642.32>
DStem2: 187 134 187 78 0.608002 0.793935<0 493.367>
LayerCount: 2
Fore
SplineSet
299 818 m 1
 420 734 l 2
 431 726 435 720 435 713 c 0
 435 703 430 698 420 698 c 0
 412 698 398 701 377 710 c 2
 223 773 l 1
 299 818 l 1
106 445 m 2
 106 520 104 588 96 645 c 1
 98 648 l 1
 98 648 134 645 168 645 c 0
 203 645 239 648 239 648 c 1
 240 645 l 1
 232 592 230 520 230 445 c 2
 230 200 l 2
 230 196.7 230 193.5 230 190.2 c 1
 509.8 555.5 l 1
 508.3 587.6 505.8 617.6 502 645 c 1
 504 648 l 1
 504 648 540 645 574 645 c 0
 609 645 645 648 645 648 c 1
 646 645 l 1
 638 592 636 520 636 445 c 2
 636 200 l 2
 636 125 638 57 646 0 c 1
 644 -3 l 1
 644 -3 608 0 574 0 c 0
 539 0 503 -3 503 -3 c 1
 502 0 l 1
 510 54 512 125 512 200 c 2
 512 445 l 2
 512 464.4 511.8 483.4 511.5 501.8 c 1
 230.6 135 l 1
 231.7 85.5 234.4 40 240 0 c 1
 238 -3 l 1
 238 -3 202 0 168 0 c 0
 133 0 97 -3 97 -3 c 1
 96 0 l 1
 104 54 106 125 106 200 c 2
 106 445 l 2
EndSplineSet
LCarets2: 1 0 
Colour: ff00ff
EndChar

StartChar: afii10062
Encoding: 1038 1038 72
Width: 580
VWidth: 999
Flags: HW
HStem: -22 67<133 228.079> 628 20<54.5 65.8588 152.5 165.28 462.421 482 552.006 555> 697 31<266.536 357.309>
VStem: 187 70<735.681 802.162> 366 70<734.774 802.125>
DStem2: 278.595 138.281 342 161 0.410131 0.912027<-105.377 13.9628 113.393 328.053>
LayerCount: 2
Fore
SplineSet
436 774 m 0
 436 722 374 697 311 697 c 0
 245 697 187 721 187 773 c 0
 187 795 199 804 226 804 c 0
 247 804 257 788 257 773 c 0
 257 771 256 766 256 765 c 0
 256 745 279 728 312 728 c 0
 342 728 367 742 367 764 c 0
 367 765 366 772 366 773 c 0
 366 788 375 804 398 804 c 0
 424 804 436 794 436 774 c 0
342 161 m 2
 293.9 54.1 244 -22 154 -22 c 0
 112 -22 66 1 66 33 c 0
 66 61 81 84 113 84 c 0
 127 84 149 77 159 65 c 0
 166 56 181 45 195 45 c 0
 237.7 45 253.9 81.1 278.6 138.3 c 1
 192.3 339.9 85.7 567.8 46 648 c 1
 63 645 89 645 106 645 c 0
 123 645 144 645 161 648 c 1
 169.6 618 224.1 470.1 323.2 242.5 c 1
 384.4 386.9 448.8 546.4 476 648 c 1
 488 645 515 645 526 645 c 0
 537 645 549 645 561 648 c 1
 342 161 l 2
EndSplineSet
LCarets2: 1 0 
Colour: ff00ff
EndChar

StartChar: afii10020
Encoding: 1043 1043 73
Width: 481
VWidth: 999
Flags: HW
HStem: -3 21<88 142 142 195> 591 54<189.662 412.584>
VStem: 99 86<2.67992 589.791>
LayerCount: 2
Fore
SplineSet
185 445 m 2
 185 200 l 2
 185 125 187 53 195 0 c 1
 194 -3 l 1
 194 -3 177 0 142 0 c 0
 108 0 90 -3 90 -3 c 1
 88 0 l 1
 96 57 99 125 99 200 c 2
 99 445 l 2
 99 520 97 591 89 645 c 1
 90 648 l 1
 90 648 108 645 142 645 c 2
 415 645 l 2
 436 645 459 646 475 648 c 1
 477 645 l 1
 476 631 475 626 475 616 c 0
 475 606 476 591 477 583 c 1
 475 579 l 1
 475 579 327 591 193 591 c 1
 186 567 185 462 185 445 c 2
EndSplineSet
Colour: ff00ff
EndChar

StartChar: afii10021
Encoding: 1044 1044 74
Width: 708
VWidth: 999
Flags: HW
HStem: 0 44<192.009 452.856> 601 44<276.411 452.674>
VStem: 39 36<-138 -59.5127> 461 86<60.1801 586.818> 570 36<-138 -59.5127>
LayerCount: 2
Fore
SplineSet
425 44 m 2
 443 44 450 50 453 59 c 0
 460 83 461 183 461 200 c 2
 461 445 l 2
 461 462 460 564 453 588 c 1
 446 597 442 601 427 601 c 2
 313 601 l 2
 286 601 276 591 274 566 c 0
 265.9 465 251 361 239 293 c 0
 217 176 192 77 192 56 c 0
 192 44 205 44 219 44 c 2
 425 44 l 2
178 0 m 2
 98 0 86 -65 75 -138 c 1
 73 -141 l 1
 41 -141 l 1
 39 -138 l 1
 27 11 l 2
 27 21 32 29 57 32 c 0
 77.1 34.4 98 32 112 47 c 0
 138 73 156 145 188 301 c 1
 210 415 222 518 222 581 c 0
 222 603 219 625 216 645 c 1
 217 648 l 1
 217 648 244 645 278 645 c 2
 504 645 l 2
 538 645 556 648 556 648 c 1
 557 645 l 1
 549 591 547 520 547 445 c 2
 547 200 l 2
 547 90 554 35 588 32 c 0
 613 29.8 618 21 618 11 c 2
 606 -138 l 1
 604 -141 l 1
 572 -141 l 1
 570 -138 l 1
 559 -65 547 0 467 0 c 2
 178 0 l 2
EndSplineSet
EndChar

StartChar: afii10024
Encoding: 1046 1046 75
Width: 924
VWidth: 999
Flags: HW
HStem: -4 21G<35 44.5 147 181 743 777 879.5 889> -3 21<409 483 483 557> 312 45<364.57 424 500 559.43> 569 89<70.0289 172.306 751.694 853.971> 628 20<409 483 483 557>
VStem: 419 128<2.67992 642.32>
LayerCount: 2
Fore
SplineSet
249 169 m 0
 223 117 204 73 158 -4 c 1
 136 -2 136 0 111 0 c 0
 88 0 51 -2 38 -4 c 1
 35 0 l 1
 115 89 113 140 194 237 c 0
 244 297 262 325 331 337 c 1
 331 340 l 1
 290 360 274.9 443 233 502 c 0
 198.9 550 165 569 143 569 c 0
 116 569 100 562 81 548 c 1
 70 551 l 1
 42 642 l 1
 47 648 l 1
 72 655 75 658 101 658 c 0
 175 658 230.9 593 272 531 c 0
 329.9 443.7 334.8 360.3 419 357.1 c 1
 419 445 l 2
 419 520 417 588 409 645 c 1
 411 648 l 1
 411 648 447 645 481 645 c 0
 516 645 552 648 552 648 c 1
 553 645 l 1
 545 592 543 520 543 445 c 2
 543 365.9 l 1
 592.6 389.9 604.4 459.2 652 531 c 0
 693.1 593 749 658 823 658 c 0
 849 658 852 655 877 648 c 1
 882 642 l 1
 854 551 l 1
 843 548 l 1
 824 562 808 569 781 569 c 0
 759 569 725.1 550 691 502 c 0
 649.1 443 634 360 593 340 c 1
 593 337 l 1
 662 325 680 297 730 237 c 0
 811 140 809 89 889 0 c 1
 886 -4 l 1
 873 -2 836 0 813 0 c 0
 788 0 788 -2 766 -4 c 1
 720 73 701 117 675 169 c 0
 641 235.2 615 287.1 543 305.5 c 1
 543 200 l 2
 543 125 545 57 553 0 c 1
 551 -3 l 1
 551 -3 515 0 481 0 c 0
 446 0 410 -3 410 -3 c 1
 409 0 l 1
 417 54 419 125 419 200 c 2
 419 311.6 l 1
 317.1 303.1 288.4 245.8 249 169 c 0
EndSplineSet
Colour: ff80cc
EndChar

StartChar: afii10025
Encoding: 1047 1047 76
Width: 542
VWidth: 999
Flags: HW
HStem: -12 37<172.536 324.196> 336 37<158.005 306.843> 469 21G<49 91> 624 34<165.85 309.892>
VStem: 49 30<470.533 513.383> 375 80<432.684 569.184> 405 92<100.605 254.446>
LayerCount: 2
Fore
SplineSet
248 25 m 0
 318 25 405 68 405 176 c 0
 405 227 366 336 249 336 c 2
 176 336 l 2
 165 336 158 343 158 354 c 0
 158 365 165 373 176 373 c 2
 223 373 l 2
 342 373 375 451 375 506 c 0
 375 573 311 624 249 624 c 0
 126 624 103 550 79 469 c 1
 49 471 l 1
 69 646 l 1
 156 646 191 658 251 658 c 0
 344 658 455 611 455 516 c 0
 455 437 412 387 340 360 c 1
 411 340 497 299 497 192 c 0
 497 41 363 -12 245 -12 c 0
 164 -12 115 19 84 43 c 0
 57 64 36 91 36 118 c 0
 36 144 47 165 70 165 c 0
 98 165 108 152 119 120 c 0
 140 59 172 25 248 25 c 0
EndSplineSet
EndChar

StartChar: afii10026
Encoding: 1048 1048 77
Width: 700
VWidth: 999
Flags: HW
HStem: -3 21<96 170 170 244 502 576 576 650> 628 20<96 170 170 244 502 576 576 650>
VStem: 106 128<2.67992 642.32> 512 128<2.67992 642.32>
DStem2: 187 134 187 78 0.608002 0.793935<0 493.367>
LayerCount: 2
Fore
SplineSet
106 445 m 2
 106 520 104 588 96 645 c 1
 98 648 l 1
 98 648 134 645 168 645 c 0
 203 645 239 648 239 648 c 1
 240 645 l 1
 232 592 230 520 230 445 c 2
 230 200 l 2
 230 196.7 230 193.5 230 190.2 c 1
 509.8 555.5 l 1
 508.3 587.6 505.8 617.6 502 645 c 1
 504 648 l 1
 504 648 540 645 574 645 c 0
 609 645 645 648 645 648 c 1
 646 645 l 1
 638 592 636 520 636 445 c 2
 636 200 l 2
 636 125 638 57 646 0 c 1
 644 -3 l 1
 644 -3 608 0 574 0 c 0
 539 0 503 -3 503 -3 c 1
 502 0 l 1
 510 54 512 125 512 200 c 2
 512 445 l 2
 512 464.4 511.8 483.4 511.5 501.8 c 1
 230.6 135 l 1
 231.7 85.5 234.4 40 240 0 c 1
 238 -3 l 1
 238 -3 202 0 168 0 c 0
 133 0 97 -3 97 -3 c 1
 96 0 l 1
 104 54 106 125 106 200 c 2
 106 445 l 2
EndSplineSet
EndChar

StartChar: afii10027
Encoding: 1049 1049 78
Width: 700
VWidth: 999
Flags: HW
HStem: -3 21<96 170 170 244 502 576 576 650> 628 20<96 170 170 244 502 576 576 650> 697 31<305.536 396.309>
VStem: 106 128<2.67992 642.32> 226 70<735.681 802.162> 405 70<734.774 802.125> 512 128<2.67992 642.32>
DStem2: 187 134 187 78 0.608002 0.793935<0 493.367>
LayerCount: 2
Fore
SplineSet
475 774 m 0
 475 722 413 697 350 697 c 0
 284 697 226 721 226 773 c 0
 226 795 238 804 265 804 c 0
 286 804 296 788 296 773 c 0
 296 771 295 766 295 765 c 0
 295 745 318 728 351 728 c 0
 381 728 406 742 406 764 c 0
 406 765 405 772 405 773 c 0
 405 788 414 804 437 804 c 0
 463 804 475 794 475 774 c 0
106 445 m 2
 106 520 104 588 96 645 c 1
 98 648 l 1
 98 648 134 645 168 645 c 0
 203 645 239 648 239 648 c 1
 240 645 l 1
 232 592 230 520 230 445 c 2
 230 200 l 2
 230 196.7 230 193.5 230 190.2 c 1
 509.8 555.5 l 1
 508.3 587.6 505.8 617.6 502 645 c 1
 504 648 l 1
 504 648 540 645 574 645 c 0
 609 645 645 648 645 648 c 1
 646 645 l 1
 638 592 636 520 636 445 c 2
 636 200 l 2
 636 125 638 57 646 0 c 1
 644 -3 l 1
 644 -3 608 0 574 0 c 0
 539 0 503 -3 503 -3 c 1
 502 0 l 1
 510 54 512 125 512 200 c 2
 512 445 l 2
 512 464.4 511.8 483.4 511.5 501.8 c 1
 230.6 135 l 1
 231.7 85.5 234.4 40 240 0 c 1
 238 -3 l 1
 238 -3 202 0 168 0 c 0
 133 0 97 -3 97 -3 c 1
 96 0 l 1
 104 54 106 125 106 200 c 2
 106 445 l 2
EndSplineSet
LCarets2: 1 0 
Colour: ff00ff
EndChar

StartChar: afii10033
Encoding: 1055 1055 79
Width: 708
VWidth: 999
Flags: HW
HStem: -3 21<90 144 144 197 511 564 564 618> 601 44<195.326 512.674>
VStem: 101 86<2.67992 586.818> 521 86<2.67992 586.818>
LayerCount: 2
Fore
SplineSet
564 645 m 2
 598 645 616 648 616 648 c 1
 617 645 l 1
 609 591 607 520 607 445 c 2
 607 200 l 2
 607 125 610 57 618 0 c 1
 616 -3 l 1
 616 -3 598 0 564 0 c 0
 529 0 512 -3 512 -3 c 1
 511 0 l 1
 519 53 521 125 521 200 c 2
 521 445 l 2
 521 462 520 564 513 588 c 1
 506 597 502 601 487 601 c 2
 221 601 l 2
 206 601 202 597 195 588 c 1
 188 564 187 462 187 445 c 2
 187 200 l 2
 187 125 189 53 197 0 c 1
 196 -3 l 1
 196 -3 179 0 144 0 c 0
 110 0 92 -3 92 -3 c 1
 90 0 l 1
 98 57 101 125 101 200 c 2
 101 445 l 2
 101 520 99 591 91 645 c 1
 92 648 l 1
 92 648 110 645 144 645 c 2
 564 645 l 2
EndSplineSet
Colour: ff00ff
EndChar

StartChar: afii10034
Encoding: 1056 1056 80
Width: 563
VWidth: 999
Flags: HW
HStem: -3 21<93 165 165 239> 282 43<229.825 382.127> 609 43<199.753 387.631>
VStem: 103 126<2.67992 292 328.76 600.25> 420 139<404.457 553.964>
LayerCount: 2
Fore
SplineSet
215 565 m 2
 215 335 l 1
 228 328 269 325 294 325 c 0
 358.1 325 402 367 402 468 c 0
 402 587 354 609 295 609 c 0
 223 609 215 594 215 565 c 2
93 445 m 2
 93 520 91 588 83 645 c 1
 85 648 l 1
 85 648 121 645 155 645 c 0
 185 645 276 652 302 652 c 0
 373.1 652 427.7 642.6 463 618 c 0
 519 579 533 522.3 533 486 c 0
 533 401 467 280 285 280 c 0
 250 280 237 283 215 290 c 1
 215 200 l 2
 215 125 217 57 225 0 c 1
 223 -3 l 1
 223 -3 189 0 155 0 c 0
 120 0 84 -3 84 -3 c 1
 83 0 l 1
 91 54 93 125 93 200 c 2
 93 445 l 2
EndSplineSet
Colour: ff00ff
EndChar

StartChar: afii10035
Encoding: 1057 1057 81
Width: 671
VWidth: 999
Flags: HW
HStem: -10 60<292.337 479.108> 602 56<291.317 481.844>
VStem: 37 145<196.877 427.375>
LayerCount: 2
Fore
SplineSet
386 658 m 0
 508 658 604 613 604 613 c 1
 606 610 l 1
 594.2 560.7 589.6 531 586 480 c 1
 576 479 l 1
 535 561 462 602 372 602 c 0
 290 602 180 537 180 334 c 0
 180 193 238 50 381 50 c 0
 474 50 519 67 594 139 c 1
 618 105 l 1
 534 18 451.2 -10 362 -10 c 0
 147 -10 37 154 37 315 c 0
 37 424.9 82.1 522.3 161 584 c 0
 223.5 632.8 295 658 386 658 c 0
EndSplineSet
Colour: ff00ff
EndChar

StartChar: afii10036
Encoding: 1058 1058 82
Width: 582
VWidth: 999
Flags: HW
HStem: -3 21<217 291 291 365> 577 68<17.7551 222.338 359.662 564.245>
VStem: 227 128<2.67992 575.82>
LayerCount: 2
Fore
SplineSet
229 436 m 2
 229 453 228 553 221 577 c 1
 87 577 17 565 17 565 c 1
 15 569 l 1
 17 584 17 617 15 645 c 1
 17 648 l 1
 33 646 56 645 77 645 c 2
 505 645 l 2
 526 645 549 646 565 648 c 1
 567 645 l 1
 565 617 565 584 567 569 c 1
 565 565 l 1
 565 565 495 577 361 577 c 1
 354 553 353 453 353 436 c 2
 353 200 l 2
 353 125 355 57 363 0 c 1
 361 -3 l 1
 361 -3 325 0 291 0 c 0
 256 0 220 -3 220 -3 c 1
 219 0 l 1
 227 54 229 125 229 200 c 2
 229 436 l 2
EndSplineSet
Colour: ff00ff
EndChar

StartChar: afii10037
Encoding: 1059 1059 83
Width: 580
VWidth: 999
Flags: HW
HStem: -22 67<133 228.079> 628 20G<54.5 65.8588 152.5 165.28 462.421 482 552.006 555>
DStem2: 278.595 138.281 342 161 0.410131 0.912027<-105.377 13.9628 113.393 328.053>
LayerCount: 2
Fore
SplineSet
342 161 m 2
 293.9 54.1 244 -22 154 -22 c 0
 112 -22 66 1 66 33 c 0
 66 61 81 84 113 84 c 0
 127 84 149 77 159 65 c 0
 166 56 181 45 195 45 c 0
 237.7 45 253.9 81.1 278.6 138.3 c 1
 192.3 339.9 85.7 567.8 46 648 c 1
 63 645 89 645 106 645 c 0
 123 645 144 645 161 648 c 1
 169.6 618 224.1 470.1 323.2 242.5 c 1
 384.4 386.9 448.8 546.4 476 648 c 1
 488 645 515 645 526 645 c 0
 537 645 549 645 561 648 c 1
 342 161 l 2
EndSplineSet
EndChar

StartChar: afii10039
Encoding: 1061 1061 84
Width: 613
VWidth: 999
Flags: HW
HStem: -2 28<4 61 169 190 398 420 570 617> 586 27<411 444 538 597>
DStem2: 122 99 155 73 0.593199 0.805056<-35.2356 230.04 328.87 586.289> 191 543 249 326 0.578967 -0.815351<-35.4928 216.477 291.97 559.314>
LayerCount: 2
Fore
SplineSet
586 -3 m 1
 568 0 525 0 507 0 c 0
 489 0 446 0 428 -3 c 1
 378.8 91.5 337 168.7 284.3 257.9 c 1
 231.5 176.8 177.6 88.7 128 -3 c 1
 117 0 98 0 86 0 c 0
 75 0 34 0 23 -3 c 1
 245.2 323 l 1
 38 648 l 1
 55 645 98 645 115 645 c 0
 132 645 175 645 193 648 c 1
 219 594.1 256.8 529.4 318.4 429.1 c 1
 381.5 520.9 406 559.2 454 648 c 1
 465 645 506 645 517 645 c 0
 528 645 548 645 559 648 c 1
 357 366.5 l 1
 586 -3 l 1
EndSplineSet
Colour: ff00ff
EndChar

StartChar: afii10040
Encoding: 1062 1062 85
Width: 639
VWidth: 999
Flags: HW
HStem: 0 44<183.144 451.533> 628 20G<78 132 132 185 448 501 501 555>
VStem: 89 86<60.1801 642.32> 458 86<46.9378 642.32> 566 36<-138 -59.6869>
LayerCount: 2
Fore
SplineSet
544 200 m 2
 544 90 550.2 35 584 32 c 0
 608.9 29.8 614 20.7 614 11 c 2
 602 -138 l 1
 600 -141 l 1
 568 -141 l 1
 566 -138 l 1
 555.1 -65.4 542.7 0 463 0 c 2
 132 0 l 2
 98 0 80 -3 80 -3 c 1
 79 0 l 1
 87 54 89 125 89 200 c 2
 89 445 l 2
 89 520 86 588 78 645 c 1
 80 648 l 1
 80 648 98 645 132 645 c 0
 167 645 184 648 184 648 c 1
 185 645 l 1
 177 592 175 520 175 445 c 2
 175 200 l 2
 175 183 176 83 183 59 c 0
 186 50 193 44 211 44 c 2
 422 44 l 2
 440 44 447 50 450 59 c 0
 457 83 458 183 458 200 c 2
 458 445 l 2
 458 520 456 592 448 645 c 1
 449 648 l 1
 449 648 466 645 501 645 c 0
 535 645 553 648 553 648 c 1
 555 645 l 1
 547 588 544 520 544 445 c 2
 544 200 l 2
EndSplineSet
EndChar

StartChar: afii10041
Encoding: 1063 1063 86
Width: 633
VWidth: 999
Flags: HW
HStem: -3 21<436 510 510 584> 244 64<213.903 364.049> 628 20G<84 137 137 190 436 510 510 584>
VStem: 94 86<340.66 642.32> 446 128<2.67992 642.32>
LayerCount: 2
Fore
SplineSet
180 445 m 2
 180 417 l 2
 180 335 220 308 292 308 c 0
 320.5 308 383 311.9 446 353 c 1
 446 445 l 2
 446 520 444 588 436 645 c 1
 438 648 l 1
 438 648 474 645 508 645 c 0
 543 645 579 648 579 648 c 1
 580 645 l 1
 572 592 570 520 570 445 c 2
 570 200 l 2
 570 125 572 57 580 0 c 1
 578 -3 l 1
 578 -3 542 0 508 0 c 0
 473 0 437 -3 437 -3 c 1
 436 0 l 1
 444 54 446 125 446 200 c 2
 446 308.9 l 1
 374.1 259.5 307.2 244 250 244 c 0
 136 244 94 323 94 422 c 2
 94 445 l 2
 94 520 92 588 84 645 c 1
 86 648 l 1
 86 648 103 645 137 645 c 0
 172 645 189 648 189 648 c 1
 190 645 l 1
 182 592 180 520 180 445 c 2
EndSplineSet
EndChar

StartChar: afii10042
Encoding: 1064 1064 87
Width: 960
VWidth: 999
Flags: HW
HStem: 0 44<197.144 430.533 531.144 766.533> 628 20G<92 146 146 199 426 480 480 533 763 816 816 870>
VStem: 103 86<60.1801 642.32> 437 86<60.1801 642.32> 773 86<47.6754 642.32>
LayerCount: 2
Fore
SplineSet
859 200 m 2
 859.3 125 861 57 869 0 c 1
 867 -3 l 1
 867 -3 850 0 816 0 c 2
 147 0 l 2
 112 0 94 -3 94 -3 c 1
 93 0 l 1
 101 54 103 125 103 200 c 2
 103 445 l 2
 103 520 100 588 92 645 c 1
 94 648 l 1
 94 648 112 645 146 645 c 0
 181 645 198 648 198 648 c 1
 199 645 l 1
 191 592 189 520 189 445 c 2
 189 200 l 2
 189 183 190 83 197 59 c 0
 200 50 207 44 225 44 c 2
 401 44 l 2
 419 44 426 50 429 59 c 0
 436 83 437 183 437 200 c 2
 437 445 l 2
 437 520 434 588 426 645 c 1
 428 648 l 1
 428 648 446 645 480 645 c 0
 515 645 532 648 532 648 c 1
 533 645 l 1
 525 592 523 520 523 445 c 2
 523 200 l 2
 523 183 524 83 531 59 c 0
 534 50 541 44 559 44 c 2
 737 44 l 2
 755 44 762 50 765 59 c 0
 772 83 773 183 773 200 c 2
 773 445 l 2
 773 520 771 592 763 645 c 1
 764 648 l 1
 764 648 781 645 816 645 c 0
 850 645 868 648 868 648 c 1
 870 645 l 1
 862 588 859 520 859 445 c 2
 859 200 l 2
EndSplineSet
EndChar

StartChar: afii10043
Encoding: 1065 1065 88
Width: 948
VWidth: 999
Flags: HW
HStem: 0 44<197.144 430.533 531.144 766.533> 628 20G<92 146 146 199 426 480 480 533 763 816 816 870>
VStem: 103 86<60.1801 642.32> 437 86<60.1801 642.32> 773 86<46.9378 642.32> 881 36<-138 -59.6869>
LayerCount: 2
Fore
SplineSet
147 0 m 2
 112 0 94 -3 94 -3 c 1
 93 0 l 1
 101 54 103 125 103 200 c 2
 103 445 l 2
 103 520 100 588 92 645 c 1
 94 648 l 1
 94 648 112 645 146 645 c 0
 181 645 198 648 198 648 c 1
 199 645 l 1
 191 592 189 520 189 445 c 2
 189 200 l 2
 189 183 190 83 197 59 c 0
 200 50 207 44 225 44 c 2
 401 44 l 2
 419 44 426 50 429 59 c 0
 436 83 437 183 437 200 c 2
 437 445 l 2
 437 520 434 588 426 645 c 1
 428 648 l 1
 428 648 446 645 480 645 c 0
 515 645 532 648 532 648 c 1
 533 645 l 1
 525 592 523 520 523 445 c 2
 523 200 l 2
 523 183 524 83 531 59 c 0
 534 50 541 44 559 44 c 2
 737 44 l 2
 755 44 762 50 765 59 c 0
 772 83 773 183 773 200 c 2
 773 445 l 2
 773 520 771 592 763 645 c 1
 764 648 l 1
 764 648 781 645 816 645 c 0
 850 645 868 648 868 648 c 1
 870 645 l 1
 862 588 859 520 859 445 c 2
 859 200 l 2
 859 90 865.3 35 899 32 c 0
 923.9 29.8 929 20.7 929 11 c 2
 917 -138 l 1
 915 -141 l 1
 883 -141 l 1
 881 -138 l 1
 870.1 -65.4 857.7 0 778 0 c 2
 147 0 l 2
EndSplineSet
EndChar

StartChar: afii10044
Encoding: 1066 1066 89
Width: 717
VWidth: 999
Flags: HW
HStem: -2 35<330.629 502.725> 329 44<348 522.728> 569 21G<50 254> 581 64<52.7551 257.32>
VStem: 262 86<37.7419 329 373 578.197> 587 94<103.061 266.903>
LayerCount: 2
Fore
SplineSet
348 329 m 1
 348 84 l 2
 348 51 350 33 405 33 c 0
 557 33 587 121 587 183 c 0
 587 243 561 329 433 329 c 2
 348 329 l 1
302 645 m 2
 340 645 357 648 357 648 c 1
 358 645 l 1
 350 592 350.1 520 348 445 c 1
 348 373 l 1
 406 373 l 2
 652 373 681 272 681 183 c 0
 681 16 524 -2 403 -2 c 0
 367 -2 336 0 307 0 c 0
 273 0 253 -3 253 -3 c 1
 252 0 l 1
 260 54 262 125 262 200 c 2
 262 445 l 2
 261.8 462 261 557 254 581 c 1
 120 581 52 569 52 569 c 1
 50 573 l 1
 52 588 52 617 50 645 c 1
 52 648 l 1
 68 646 91 645 112 645 c 2
 302 645 l 2
EndSplineSet
EndChar

StartChar: afii10045
Encoding: 1067 1067 90
Width: 786
VWidth: 999
Flags: HW
HStem: -2 21<588 662 662 736> -2 35<171.629 343.725> 329 44<189 363.728> 628 20<92 146 146 199> 629 20<588 662 662 736>
VStem: 103 86<37.7419 329 373 642.32> 428 94<103.061 266.903> 598 128<3.67992 643.32>
LayerCount: 2
Fore
SplineSet
598 446 m 2
 598 521 596 589 588 646 c 1
 590 649 l 1
 590 649 626 646 660 646 c 0
 695 646 731 649 731 649 c 1
 732 646 l 1
 724 593 722 521 722 446 c 2
 722 201 l 2
 722 126 724 58 732 1 c 1
 730 -2 l 1
 730 -2 694 1 660 1 c 0
 625 1 589 -2 589 -2 c 1
 588 1 l 1
 596 55 598 126 598 201 c 2
 598 446 l 2
148 0 m 0
 114 0 94 -3 94 -3 c 1
 93 0 l 1
 101 54 103 125 103 200 c 2
 103 445 l 2
 103 520 100 588 92 645 c 1
 94 648 l 1
 94 648 112 645 146 645 c 0
 181 645 198 648 198 648 c 1
 199 645 l 1
 191 592 189 520 189 445 c 2
 189 373 l 1
 247 373 l 2
 493 373 522 272 522 183 c 0
 522 16 365 -2 244 -2 c 0
 208 -2 177 0 148 0 c 0
189 329 m 1
 189 84 l 2
 189 51 191 33 246 33 c 0
 398 33 428 121 428 183 c 0
 428 243 402 329 274 329 c 2
 189 329 l 1
EndSplineSet
Colour: ff00ff
EndChar

StartChar: afii10046
Encoding: 1068 1068 91
Width: 558
VWidth: 999
Flags: HW
HStem: -2 35<171.629 343.725> 329 44<189 363.728> 628 20G<92 146 146 199>
VStem: 103 86<37.7419 329 373 642.32> 428 94<103.061 266.903>
LayerCount: 2
Fore
SplineSet
148 0 m 0
 114 0 94 -3 94 -3 c 1
 93 0 l 1
 101 54 103 125 103 200 c 2
 103 445 l 2
 103 520 100 588 92 645 c 1
 94 648 l 1
 94 648 112 645 146 645 c 0
 181 645 198 648 198 648 c 1
 199 645 l 1
 191 592 189 520 189 445 c 2
 189 373 l 1
 247 373 l 2
 493 373 522 272 522 183 c 0
 522 16 365 -2 244 -2 c 0
 208 -2 177 0 148 0 c 0
189 329 m 1
 189 84 l 2
 189 51 191 33 246 33 c 0
 398 33 428 121 428 183 c 0
 428 243 402 329 274 329 c 2
 189 329 l 1
EndSplineSet
EndChar

StartChar: afii10047
Encoding: 1069 1069 92
Width: 604
VWidth: 999
Flags: HMW
HStem: -12 34<194 359> 273 56<309 422> 311 49<155 284> 621 37<189 346>
VStem: 472 89<186 307 344 460>
LayerCount: 2
Fore
SplineSet
472 307 m 1
 417 273 373 273 360 273 c 0
 298 273 255 311 196 311 c 0
 158 311 142 295 134 295 c 0
 130 295 125 298 125 307 c 0
 125 332 188 360 247 360 c 0
 313 360 342 329 400 329 c 0
 429 329 452 335 471 344 c 1
 461 550 352 621 271 621 c 0
 176 621 98 540 72 454 c 1
 42 458 l 1
 53 511 61 558 63 613 c 1
 121 616 174 658 279 658 c 0
 444 658 561 550 561 333 c 0
 561 113 445 -12 275 -12 c 0
 189 -12 133 19 102 43 c 0
 75 64 54 95 54 122 c 0
 54 148 66 165 84 165 c 0
 113 165 125 152 135 120 c 0
 159 48 214 21 286 21 c 0
 413 21 471 169 472 307 c 1
EndSplineSet
EndChar

StartChar: afii10048
Encoding: 1070 1070 93
Width: 905
VWidth: 999
Flags: HW
HStem: -12 39<517.224 661.561> -3 21<96 170 170 244> 302 44<187 285> 619 39<495.321 644.165> 628 20<96 170 170 244>
VStem: 106 128<2.67992 642.32> 285 96<193.326 302 346 446.919> 770 96<190.805 458.298>
LayerCount: 2
Fore
SplineSet
562 619 m 0
 478 619 381 537 381 327 c 0
 381 135 484 27 592 27 c 0
 695 27 770 131 770 310 c 0
 770 518 687 619 562 619 c 0
106 445 m 2
 106 520 104 588 96 645 c 1
 98 648 l 1
 98 648 134 645 168 645 c 0
 203 645 239 648 239 648 c 1
 240 645 l 1
 232 592 230 520 230 445 c 2
 230 346 l 1
 286 346 l 1
 299 525 417 658 573 658 c 0
 741 658 866 527 866 329 c 0
 866 129 752 -12 574 -12 c 0
 416 -12 287 108 285 302 c 1
 230 302 l 1
 230 200 l 2
 230 125 232 57 240 0 c 1
 238 -3 l 1
 238 -3 202 0 168 0 c 0
 133 0 97 -3 97 -3 c 1
 96 0 l 1
 104 54 106 125 106 200 c 2
 106 445 l 2
EndSplineSet
EndChar

StartChar: afii10049
Encoding: 1071 1071 94
Width: 561
VWidth: 999
Flags: HW
HStem: -3 21G<0 12 112.5 127.5 370 423 423 476> 286 44<273.038 380> 613 39<216.656 397.701>
VStem: 71 97<391.218 564.52> 380 86<2.67992 286 330 603.161>
LayerCount: 2
Fore
SplineSet
297 613 m 0
 236 613 168 596 168 478 c 0
 168 353 235 330 332 330 c 2
 380 330 l 1
 380 569 l 2
 380 598 368 613 297 613 c 0
219.2 300 m 1
 199 305.1 184.1 311.3 171 318 c 0
 117 345 71 397 71 479 c 0
 71 529 88 570 124 604 c 0
 172 649 235 652 298 652 c 0
 323 652 393 645 423 645 c 0
 457 645 474 648 474 648 c 1
 476 645 l 1
 468 588 466 520 466 445 c 2
 466 200 l 2
 466 125 468 54 476 0 c 1
 475 -3 l 1
 475 -3 458 0 423 0 c 0
 389 0 372 -3 372 -3 c 1
 370 0 l 1
 378 57 380 125 380 200 c 2
 380 286 l 1
 355.1 286 333.2 286.6 313.9 287.6 c 1
 285.4 254.7 256.5 214.9 229 176 c 0
 178.1 103.9 133 31 122 -3 c 1
 103 0 73 0 54 0 c 0
 34 0 22 0 2 -3 c 1
 0 0 l 1
 50.1 56.7 155.4 215.9 219.2 300 c 1
EndSplineSet
EndChar

StartChar: afii10089
Encoding: 1095 1095 95
Width: 510
VWidth: 999
Flags: HW
HStem: -3 21<323 373 373 423> 137 44<162.252 301.419> 412 20G<57 107 107 157 323 373 373 423>
VStem: 68 80<195.691 426.366> 333 80<2.66468 426.335>
LayerCount: 2
Fore
SplineSet
68 291 m 0
 68 366.5 65 376 57 429 c 1
 58 432 l 1
 58 432 72 429 107 429 c 0
 141 429 155 432 155 432 c 1
 157 429 l 1
 149 372 148 368 148 293 c 0
 148 215 155 181 217 181 c 0
 265 181 301.5 192.5 333 223 c 1
 333 250 l 2
 333 321 332 375 323 429 c 1
 324 432 l 1
 324 432 338 429 373 429 c 0
 407 429 421 432 421 432 c 1
 423 429 l 1
 414 372 414 325 413 250 c 1
 413 179 l 2
 413 104 414 57 423 0 c 1
 421 -3 l 1
 421 -3 407 0 373 0 c 0
 338 0 324 -3 324 -3 c 1
 323 0 l 1
 332 53.9 333 104.8 333 178.5 c 1
 294.9 150.5 263 137 204 137 c 0
 106 137 68 185 68 291 c 0
EndSplineSet
EndChar

StartChar: afii10090
Encoding: 1096 1096 96
Width: 807
VWidth: 999
Flags: HW
HStem: 0 41<185.326 354.674 451.326 622.533> 412 20G<87 137 137 187 353 403 403 453 619 670 670 720>
VStem: 97 80<55.1837 426.335> 363 80<55.1837 426.335> 629 80<43.5547 426.335>
CounterMasks: 1 38
LayerCount: 2
Fore
SplineSet
709 200 m 2
 709 125.5 711 54 719 0 c 1
 718 -3 l 1
 718 -3 700 0 666 0 c 2
 140 0 l 2
 106 0 88 -3 88 -3 c 1
 87 0 l 1
 95 54 97 125 97 200 c 2
 97 250 l 2
 97 325 96 372 87 429 c 1
 89 432 l 1
 89 432 103 429 137 429 c 0
 172 429 186 432 186 432 c 1
 187 429 l 1
 178 375 177 324 177 250 c 2
 177 200 l 2
 177 183 178 78 185 54 c 1
 192 45 196 41 211 41 c 2
 329 41 l 2
 344 41 348 45 355 54 c 1
 362 78 363 183 363 200 c 2
 363 250 l 2
 363 325 362 372 353 429 c 1
 355 432 l 1
 355 432 369 429 403 429 c 0
 438 429 452 432 452 432 c 1
 453 429 l 1
 444 375 443 324 443 250 c 2
 443 200 l 2
 443 183 444 78 451 54 c 1
 458 45 462 41 477 41 c 2
 609 41 l 2
 624 41 614 45 621 54 c 1
 628 78 629 183 629 200 c 2
 629 249 l 2
 629 325 627.5 372 619 429 c 1
 621 432 l 1
 621 432 635.7 429 670 429 c 0
 705 429 719 432 719 432 c 1
 720 429 l 1
 711.5 375.5 709 324.1 709 249 c 2
 709 200 l 2
EndSplineSet
EndChar

StartChar: afii10091
Encoding: 1097 1097 97
Width: 813
VWidth: 999
Flags: HW
HStem: 0 41<185.326 354.674 451.326 622.533> 412 20G<87 137 137 187 353 403 403 453 619 670 670 720>
VStem: 97 80<55.1837 426.335> 363 80<55.1837 426.335> 629 80<41.465 426.335> 731 36<-125 -51.0881>
LayerCount: 2
Fore
SplineSet
140 0 m 2
 106 0 88 -3 88 -3 c 1
 87 0 l 1
 95 54 97 125 97 200 c 2
 97 250 l 2
 97 325 96 372 87 429 c 1
 89 432 l 1
 89 432 103 429 137 429 c 0
 172 429 186 432 186 432 c 1
 187 429 l 1
 178 375 177 324 177 250 c 2
 177 200 l 2
 177 183 178 78 185 54 c 1
 192 45 196 41 211 41 c 2
 329 41 l 2
 344 41 348 45 355 54 c 1
 362 78 363 183 363 200 c 2
 363 250 l 2
 363 325 362 372 353 429 c 1
 355 432 l 1
 355 432 369 429 403 429 c 0
 438 429 452 432 452 432 c 1
 453 429 l 1
 444 375 443 324 443 250 c 2
 443 200 l 2
 443 183 444 78 451 54 c 1
 458 45 462 41 477 41 c 2
 609 41 l 2
 624 41 614 45 621 54 c 1
 628 78 629 183 629 200 c 2
 629 249 l 2
 629 325 627.5 372 619 429 c 1
 621 432 l 1
 621 432 635.7 429 670 429 c 0
 705 429 719 432 719 432 c 1
 720 429 l 1
 711.5 375.5 709 324.1 709 249 c 2
 709 200 l 2
 709 90 715.3 35 749 32 c 0
 773.9 29.8 779 20.7 779 11 c 2
 767 -125 l 1
 765 -128 l 1
 733 -128 l 1
 731 -125 l 1
 720.1 -52.4 707.7 0 628 0 c 2
 140 0 l 2
EndSplineSet
EndChar

StartChar: afii10092
Encoding: 1098 1098 98
Width: 539
VWidth: 999
Flags: HW
HStem: -2 36<257.183 402.245> 219 37<273 402.262> 374 55<34.7075 190>
VStem: 193 80<40.3429 219 256 372.311> 428 80<60.92 197.087>
LayerCount: 2
Fore
SplineSet
428 126 m 0
 428 179 411 219 340 219 c 2
 273 219 l 1
 273 79 l 2
 273 44 290 34 336 34 c 0
 386 34 428 44 428 126 c 0
193 250 m 2
 193 321 190 374 190 374 c 1
 65 374 34 363 34 363 c 1
 32 366 l 1
 34 380 34 403 32 429 c 1
 34 431 l 1
 49 430 70 429 89 429 c 2
 233 429 l 2
 267 429 281 432 281 432 c 1
 283 429 l 1
 274 372 273 334 273 259 c 2
 273 256 l 1
 330 256 l 2
 426 256 508 230 508 136 c 0
 508 52 446 -2 335 -2 c 0
 295.2 -2 272.8 0 233 0 c 0
 198 0 184 -3 184 -3 c 1
 183 0 l 1
 192 54 193 105 193 179 c 2
 193 250 l 2
EndSplineSet
EndChar

StartChar: afii10093
Encoding: 1099 1099 99
Width: 681
VWidth: 999
Flags: HW
HStem: -3 21<496 546 546 596> -2 36<165.183 310.245> 219 37<181 310.262> 412 20<91 141 141 191 496 546 546 596>
VStem: 101 80<40.3429 219 256 426.342> 336 80<60.92 197.087> 506 80<2.66468 426.335>
LayerCount: 2
Fore
SplineSet
506 250 m 2
 506 321 505 375 496 429 c 1
 497 432 l 1
 497 432 511 429 546 429 c 0
 580 429 594 432 594 432 c 1
 596 429 l 1
 587 372 587 325 586 250 c 1
 586 179 l 2
 586 104 587 57 596 0 c 1
 594 -3 l 1
 594 -3 580 0 546 0 c 0
 511 0 497 -3 497 -3 c 1
 496 0 l 1
 505 54 506 105 506 179 c 2
 506 250 l 2
336 126 m 0
 336 179 319 219 248 219 c 2
 181 219 l 1
 181 79 l 2
 181 44 198 34 244 34 c 0
 294 34 336 44 336 126 c 0
181 259 m 2
 181 256 l 1
 238 256 l 2
 334 256 416 230 416 136 c 0
 416 52 354 -2 243 -2 c 0
 203.2 -2 180.8 0 141 0 c 0
 106 0 92 -3 92 -3 c 1
 91 0 l 1
 100 54 101 105 101 179 c 2
 101 250 l 2
 101 321 100 375 91 429 c 1
 92 432 l 1
 92 432 106 429 141 429 c 0
 175 429 189 432 189 432 c 1
 191 429 l 1
 182 372 181 334 181 259 c 2
EndSplineSet
Colour: ff00ff
EndChar

StartChar: afii10094
Encoding: 1100 1100 100
Width: 447
VWidth: 999
Flags: HW
HStem: -2 36<165.183 310.245> 219 37<181 310.262> 412 20G<91 141 141 191>
VStem: 101 80<40.3429 219 256 426.342> 336 80<60.92 197.087>
LayerCount: 2
Fore
SplineSet
336 126 m 0
 336 179 319 219 248 219 c 2
 181 219 l 1
 181 79 l 2
 181 44 198 34 244 34 c 0
 294 34 336 44 336 126 c 0
181 259 m 2
 181 256 l 1
 238 256 l 2
 334 256 416 230 416 136 c 0
 416 52 354 -2 243 -2 c 0
 203.2 -2 180.8 0 141 0 c 0
 106 0 92 -3 92 -3 c 1
 91 0 l 1
 100 54 101 105 101 179 c 2
 101 250 l 2
 101 321 100 375 91 429 c 1
 92 432 l 1
 92 432 106 429 141 429 c 0
 175 429 189 432 189 432 c 1
 191 429 l 1
 182 372 181 334 181 259 c 2
EndSplineSet
EndChar

StartChar: afii10095
Encoding: 1101 1101 101
Width: 434
VWidth: 999
Flags: HMW
HStem: -10 31<133.489 237.744> 180 49<160.832 302.074> 207 41<92.6331 188.46> 408 31<122.738 236.146>
VStem: 314 77<116.594 208 230.421 318.818>
LayerCount: 2
Fore
SplineSet
313 236 m 1
 306 309 272 408 182 408 c 0
 102 408 81 351 67 290 c 1
 40 294 l 1
 46 338 49 372 51 427 c 1
 121 427 121 439 192 439 c 0
 315 439 391 335 391 225 c 0
 391 68 284 -10 178 -10 c 0
 96 -10 37 34 37 86 c 0
 37 100 49 115 67 115 c 0
 78 115 100 111 105 78 c 0
 111 44 142 21 185 21 c 0
 279 21 314 130 314 208 c 1
 292 196 259 180 228 180 c 0
 184 180 155 207 120 207 c 0
 108 207 98 202 90 202 c 0
 84 202 83 211 83 215 c 0
 83 230 128 248 171 248 c 0
 216 248 233 229 271 229 c 0
 287 229 301 231 313 236 c 1
EndSplineSet
EndChar

StartChar: afii10096
Encoding: 1102 1102 102
Width: 686
VWidth: 999
Flags: HW
HStem: -10 40<417.354 526.87> -3 21<83 133 133 183> 198 39<171 268> 401 38<398.927 505.267> 412 20<83 133 133 183>
VStem: 93 80<2.66468 426.335> 268 85<110.436 198 237 323.327> 564 85<107.458 329.038>
LayerCount: 2
Fore
SplineSet
449 401 m 0
 375 401 353 313 353 226 c 0
 353 149 381 30 475 30 c 0
 516 30 564 53 564 185 c 0
 564 331 527 401 449 401 c 0
93 250 m 2
 93 321 92 375 83 429 c 1
 84 432 l 1
 84 432 98 429 133 429 c 0
 167 429 181 432 181 432 c 1
 183 429 l 1
 174 372 174 325 173 250 c 1
 173 237 l 1
 269 237 l 1
 279 356 344 439 459 439 c 0
 603 439 649 321 649 217 c 0
 649 117 597 -10 458 -10 c 0
 330 -10 270 97 268 198 c 1
 173 198 l 1
 173 179 l 2
 173 104 174 57 183 0 c 1
 181 -3 l 1
 181 -3 167 0 133 0 c 0
 98 0 84 -3 84 -3 c 1
 83 0 l 1
 92 54 93 105 93 179 c 2
 93 250 l 2
EndSplineSet
EndChar

StartChar: afii10097
Encoding: 1103 1103 103
Width: 429
VWidth: 999
Flags: HW
HStem: -3 30<10 25> 195 35<206.934 268> 204 26<157.163 165> 402 30<151.259 285.062>
VStem: 38 85<253.842 371.816> 268 80<2.65817 195 230 398.777>
LayerCount: 2
Fore
SplineSet
268 230 m 1
 268 366 l 2
 268 398 253 402 214 402 c 0
 140 402 123 368 123 321 c 0
 123 271 146 230 203 230 c 2
 268 230 l 1
348 251 m 2
 348 178 l 2
 348 108 349 54 358 0 c 1
 357 -3 l 1
 357 -3 343 0 308 0 c 0
 274 0 260 -3 260 -3 c 1
 258 0 l 1
 267 57 268 95 268 169 c 2
 268 195 l 1
 243 195 l 2
 203 195 179 145 159 84 c 0
 145 43 118 1 83 0 c 2
 10 -3 l 1
 7 0 l 1
 7 19 l 2
 7 26 13 27 17 27 c 2
 25 28 l 2
 52 31 86 98 100 136 c 0
 116 177 137 198 165 204 c 1
 110 204 38 239 38 310 c 0
 38 339 56 432 217 432 c 0
 254 432 272 429 308 429 c 0
 343 429 357 432 357 432 c 1
 358 429 l 1
 349 375 348 324 348 251 c 2
EndSplineSet
EndChar

StartChar: uni04AE
Encoding: 1198 1198 104
Width: 633
VWidth: 999
Flags: HW
HStem: -3 21<242.42 247 376 381.566> 628 20<24.5 36 163.5 199.5 475.375 507 545.5 599.5>
VStem: 246 130<41.9429 329>
LayerCount: 2
Fore
SplineSet
376.3 285.6 m 1
 377.2 186.5 379.9 44.9 384 -3 c 1
 368 0 326 0 311 0 c 0
 296 0 255 0 239 -3 c 1
 244.7 52.5 245.8 177.5 246 275.1 c 1
 207.9 340.2 56 588 16 648 c 1
 33 645 77 645 94 645 c 0
 111 645 155 645 172 648 c 1
 222.8 548.3 277.9 458.8 337.2 357.5 c 1
 392.3 445.1 453.7 549.7 501 648 c 1
 513 645 551 645 564 645 c 0
 576 645 593 645 606 648 c 1
 485.3 463.5 417.3 365.5 376.3 285.6 c 1
EndSplineSet
Colour: ff00ff
EndChar

StartChar: uni04C0
Encoding: 1216 1216 105
Width: 331
VWidth: 999
Flags: HW
HStem: -3 21<96 170 170 244> 628 20<96 170 170 244>
VStem: 106 128<2.67992 642.32>
LayerCount: 2
Fore
SplineSet
106 445 m 2
 106 520 104 588 96 645 c 1
 98 648 l 1
 98 648 134 645 168 645 c 0
 203 645 239 648 239 648 c 1
 240 645 l 1
 232 592 230 520 230 445 c 2
 230 200 l 2
 230 125 232 57 240 0 c 1
 238 -3 l 1
 238 -3 202 0 168 0 c 0
 133 0 97 -3 97 -3 c 1
 96 0 l 1
 104 54 106 125 106 200 c 2
 106 445 l 2
EndSplineSet
Colour: ff00ff
EndChar

StartChar: uni04D0
Encoding: 1232 1232 106
Width: 669
VWidth: 999
Flags: HW
HStem: -3 21<24 68.5 113 136.444 500.087 513.5 632 648.5> 221 53<210.237 444.333> 638 20<265 429> 698 31<285.536 376.309>
VStem: 206 70<736.681 803.162> 385 70<735.774 803.125>
LayerCount: 2
Fore
SplineSet
455 775 m 0
 455 723 393 698 330 698 c 0
 264 698 206 722 206 774 c 0
 206 796 218 805 245 805 c 0
 266 805 276 789 276 774 c 0
 276 772 275 767 275 766 c 0
 275 746 298 729 331 729 c 0
 361 729 386 743 386 765 c 0
 386 766 385 773 385 774 c 0
 385 789 394 805 417 805 c 0
 443 805 455 795 455 775 c 0
317.6 499.8 m 1
 221.6 275.9 l 1
 253.3 275.5 297.1 274 326 274 c 0
 349.7 274 381.1 274.5 409.5 275.1 c 1
 384.7 339.4 354.4 414.4 317.6 499.8 c 1
198.3 219.2 m 1
 164.2 135.1 134.8 56.2 119 -3 c 1
 107 0 85 0 74 0 c 0
 63 0 30 0 18 -3 c 1
 119 218 217 436 313 658 c 1
 383 658 l 1
 475 439 607 98 657 -3 c 1
 640 0 593 0 576 0 c 0
 559 0 522 0 505 -3 c 1
 499 18.7 477.3 93.7 430.5 219.7 c 1
 397.8 220.4 363.1 221 331 221 c 0
 295.3 221 236.3 220.1 198.3 219.2 c 1
EndSplineSet
LCarets2: 1 0 
Colour: ff00ff
EndChar

StartChar: uni04D1
Encoding: 1233 1233 107
Width: 476
VWidth: 999
Flags: HW
HStem: -10 60<134 255.262 367.5 464.115> 385 54<171.557 288.207> 489 31<171.971 246.548>
VStem: 42 119<59.5392 158.158> 88 73<526.553 605.612> 257 73<526.548 606.379> 311 118<89.0564 219 268.049 360.659>
DStem2: 218 247 231 198 0.972082 0.234641<-58.6762 83.8337>
LayerCount: 2
Fore
SplineSet
330 577 m 0
 330 522 272 489 208 489 c 0
 143 489 88 522 88 576 c 0
 88 594 104 609 127 609 c 0
 149 609 161 595 161 579 c 0
 161 576 161 574 160 571 c 0
 159 568 159 565 159 563 c 0
 159 541 179 520 209 520 c 0
 238 520 259 540 259 562 c 0
 259 565 259 568 258 571 c 0
 257 573 257 575 257 578 c 0
 257 595 274 609 292 609 c 0
 316 609 330 596 330 577 c 0
291 222 m 1
 211 201 l 2
 155.2 186.3 153 149 153 107 c 0
 153 80 170 50 200 50 c 0
 228 50 251 61 274 84 c 0
 281.1 91.1 289 116 289 129 c 2
 291 222 l 1
397 80 m 0
 397 47 418 44 458 44 c 1
 464 39 466.7 31.7 468 23 c 1
 438 0 408.1 -10 369 -10 c 0
 326 -10 298 16 290 48 c 1
 288 48 l 1
 238 3 200.1 -10 161 -10 c 0
 91 -10 34 29 34 98 c 0
 34 166 102 226.8 198 250 c 2
 285 271 l 2
 288 272 291 276 291 283 c 0
 291 360.1 266 385 222 385 c 0
 177 385 140 362 109 306 c 1
 86 307 l 1
 66 382 l 1
 69 386 l 1
 93 407 159 439 231 439 c 0
 279.1 439 329.3 427.5 361 399.1 c 0
 388.6 374.3 401 337.1 401 277 c 0
 401 266 397 109 397 80 c 0
EndSplineSet
LCarets2: 1 0 
Colour: ff00ff
EndChar

StartChar: uni04D2
Encoding: 1234 1234 108
Width: 669
VWidth: 999
Flags: HW
HStem: -3 21<24 68.5 113 136.444 500.087 513.5 632 648.5> 221 53<210.237 444.333> 638 20<265 429> 712 92<210.347 287.653 370.347 447.653>
VStem: 203 92<719.347 796.653> 363 92<719.347 796.653>
LayerCount: 2
Fore
SplineSet
380 756 m 0
 380 788 405 813 437 813 c 0
 467 813 493 788 493 756 c 0
 493 726 467 700 437 700 c 0
 405 700 380 726 380 756 c 0
190 756 m 0
 190 788 216 813 246 813 c 0
 278 813 303 788 303 756 c 0
 303 726 278 700 246 700 c 0
 216 700 190 726 190 756 c 0
317.6 499.8 m 1
 221.6 275.9 l 1
 253.3 275.5 297.1 274 326 274 c 0
 349.7 274 381.1 274.5 409.5 275.1 c 1
 384.7 339.4 354.4 414.4 317.6 499.8 c 1
198.3 219.2 m 1
 164.2 135.1 134.8 56.2 119 -3 c 1
 107 0 85 0 74 0 c 0
 63 0 30 0 18 -3 c 1
 119 218 217 436 313 658 c 1
 383 658 l 1
 475 439 607 98 657 -3 c 1
 640 0 593 0 576 0 c 0
 559 0 522 0 505 -3 c 1
 499 18.7 477.3 93.7 430.5 219.7 c 1
 397.8 220.4 363.1 221 331 221 c 0
 295.3 221 236.3 220.1 198.3 219.2 c 1
EndSplineSet
LCarets2: 1 0 
Colour: ff00ff
EndChar

StartChar: uni04D3
Encoding: 1235 1235 109
Width: 476
VWidth: 999
Flags: HW
HStem: -10 60<134 255.262 367.5 464.115> 385 54<171.557 288.207> 527 92<94.3474 171.653 254.347 331.653>
VStem: 42 119<59.5392 158.158> 87 92<534.347 611.653> 247 92<534.347 611.653> 311 118<89.0564 219 268.049 360.659>
DStem2: 218 247 231 198 0.972082 0.234641<-58.6762 83.8337>
LayerCount: 2
Fore
SplineSet
275 571 m 0
 275 603 300 628 332 628 c 0
 362 628 388 603 388 571 c 0
 388 541 362 515 332 515 c 0
 300 515 275 541 275 571 c 0
85 571 m 0
 85 603 111 628 141 628 c 0
 173 628 198 603 198 571 c 0
 198 541 173 515 141 515 c 0
 111 515 85 541 85 571 c 0
291 222 m 1
 211 201 l 2
 155.2 186.3 153 149 153 107 c 0
 153 80 170 50 200 50 c 0
 228 50 251 61 274 84 c 0
 281.1 91.1 289 116 289 129 c 2
 291 222 l 1
397 80 m 0
 397 47 418 44 458 44 c 1
 464 39 466.7 31.7 468 23 c 1
 438 0 408.1 -10 369 -10 c 0
 326 -10 298 16 290 48 c 1
 288 48 l 1
 238 3 200.1 -10 161 -10 c 0
 91 -10 34 29 34 98 c 0
 34 166 102 226.8 198 250 c 2
 285 271 l 2
 288 272 291 276 291 283 c 0
 291 360.1 266 385 222 385 c 0
 177 385 140 362 109 306 c 1
 86 307 l 1
 66 382 l 1
 69 386 l 1
 93 407 159 439 231 439 c 0
 279.1 439 329.3 427.5 361 399.1 c 0
 388.6 374.3 401 337.1 401 277 c 0
 401 266 397 109 397 80 c 0
EndSplineSet
LCarets2: 1 0 
Colour: ff00ff
EndChar

StartChar: uni04D4
Encoding: 1236 1236 110
Width: 802
VWidth: 999
Flags: HW
HStem: -2 29<4 35 167 201 342 374> 0 39<514.23 740.226> 266 39<271 429> 329 34<512 654.005> 605 40<517.062 711.984> 618 28<296 333>
VStem: 429 83<40.8651 266 305 329 363 597.745> 671 33<247 312.081 407 445>
DStem2: 102.87 85 148 68 0.46188 0.886943<-25.6807 228.955 272.783 581.116>
LayerCount: 2
Fore
SplineSet
222 278.5 m 1
 170.6 171.8 125.5 69.1 98 -3 c 1
 86 0 64 0 53 0 c 0
 42 0 30 0 18 -3 c 1
 124 200 221 410 366 645.7 c 1
 366.2 645.3 l 1
 368 648 l 1
 368 648 385 645 419 645 c 0
 449 645 632 645 632 645 c 2
 653 645 676 646 692 648 c 1
 694 645 l 1
 693 631 692 622 692 614 c 0
 692 605 693 596 694 588 c 1
 692 584 l 1
 692 584 614.7 594.3 509 594.3 c 0
 433.5 594.3 419.2 585.3 424.4 545.5 c 1
 438.6 475.1 454.6 402.4 470.7 333 c 1
 582.8 333.2 637.5 338.1 695 343 c 1
 698 340 l 1
 696 331 695 321 695 312 c 0
 695 303 696 293 698 284 c 1
 695 281 l 1
 633.7 287.2 535.4 290.3 480.5 290.9 c 1
 502 199.9 523 116.9 539.5 55.8 c 1
 639.3 59.2 752 66 752 66 c 2
 754 62 l 1
 753 54 752 39 752 29 c 0
 752 19 753 14 754 0 c 1
 752 -3 l 1
 736 -1 713 0 692 0 c 2
 555 0 l 1
 553.5 0 l 1
 500 0 l 2
 483 0 467 0 450 -3 c 1
 450 32.7 436.6 117.3 405.9 279.4 c 1
 383.7 279.8 361.3 280 340 280 c 0
 308.7 280 259.3 279.3 222 278.5 c 1
397.2 324.7 m 1
 356.5 533.5 l 1
 354.5 533.5 l 1
 318.2 469.5 280.5 397.6 245 325.7 c 1
 274.6 325.1 310.2 324 335 324 c 0
 352.9 324 375.1 324.3 397.2 324.7 c 1
EndSplineSet
Colour: ff00ff
EndChar

StartChar: uni04D5
Encoding: 1237 1237 111
Width: 687
VWidth: 999
Flags: HW
HStem: -10 50<135.407 255.127 438.656 562.972> 218 40<209.155 296 375 554.771> 394 45<146.355 264.956 426.84 534.254>
VStem: 39 82<54.0916 159.063> 296 78<112.964 215> 562 84<266.765 365.2>
LayerCount: 2
Fore
SplineSet
296 215 m 1
 163 203 121 157 121 106 c 0
 121 61 145 40 192 40 c 0
 228 40 271 61 285 100 c 0
 291.4 117.9 296 165 296 215 c 1
375 258 m 1
 515 266 562 245 562 306 c 0
 562 338 537 394 489 394 c 0
 426 394 383 343 375 258 c 1
202 394 m 0
 157.5 394 115 350 89 305 c 1
 76 306 l 1
 60 373 l 1
 63 377 l 1
 87.5 397.5 138.5 439 211 439 c 0
 235 439 311 436 348 369 c 1
 381 414 433 439 490 439 c 0
 604 439 646 343 646 309 c 0
 646 278.1 640 254 620 237 c 1
 584.3 217.3 509.5 225.4 374 218 c 1
 374 112 423 44 498 44 c 0
 552 44 591 77 621 112 c 1
 641 84 l 1
 612 30 550 -10 484 -10 c 0
 393 -10 360 34 340 59 c 1
 294 15 245 -10 190 -10 c 0
 85 -10 39 33 39 101 c 0
 39 184 126 243 296 255 c 1
 294.8 348.6 274.8 394 202 394 c 0
EndSplineSet
Colour: ff00ff
EndChar

StartChar: uni04D6
Encoding: 1238 1238 112
Width: 564
VWidth: 999
Flags: HW
HStem: 0 63<228.662 460.105> 316 51<224 440.426> 575 21<232 506> 587 58<228.662 453.27> 698 31<228.536 319.309>
VStem: 96 128<64.202 316 367 585.479> 149 70<736.681 803.162> 328 70<735.774 803.125>
LayerCount: 2
Fore
SplineSet
398 775 m 0
 398 723 336 698 273 698 c 0
 207 698 149 722 149 774 c 0
 149 796 161 805 188 805 c 0
 209 805 219 789 219 774 c 0
 219 772 218 767 218 766 c 0
 218 746 241 729 274 729 c 0
 304 729 329 743 329 765 c 0
 329 766 328 773 328 774 c 0
 328 789 337 805 360 805 c 0
 386 805 398 795 398 775 c 0
220 200 m 2
 220 183 221 87 228 63 c 1
 362 63 514 75 514 75 c 1
 516 71 l 1
 515 63 514 46 514 36 c 0
 514 26 515 14 516 0 c 1
 514 -3 l 1
 498 -1 475 0 454 0 c 2
 160 0 l 2
 125 0 87 -3 87 -3 c 1
 86 0 l 1
 94 54 96 125 96 200 c 2
 96 445 l 2
 96 520 94 588 86 645 c 1
 88 648 l 1
 88 648 126 645 160 645 c 0
 190 645 444 645 444 645 c 2
 465 645 488 646 504 648 c 1
 506 645 l 1
 505 631 504 618 504 610 c 0
 504 601 505 587 506 579 c 1
 504 575 l 1
 504 575 362 587 228 587 c 1
 221 563 220 462 220 445 c 2
 220 367 l 1
 338 367 388 372 447 377 c 1
 450 374 l 1
 448 365 447 351 447 342 c 0
 447 333 448 318 450 309 c 1
 447 306 l 1
 378 313 268 316 220 316 c 1
 220 200 l 2
EndSplineSet
LCarets2: 1 0 
Colour: ff00ff
EndChar

StartChar: uni04D7
Encoding: 1239 1239 113
Width: 459
VWidth: 999
Flags: HW
HStem: -10 68<217.975 371.091> 243 44<161 327.997> 390 49<203.391 308.5> 489 31<184.971 259.548>
VStem: 32 126<127.31 243 287 299.028> 101 73<526.553 605.612> 270 73<526.548 606.379> 328 127<254.5 342.567>
LayerCount: 2
Fore
SplineSet
343 577 m 0
 343 522 285 489 221 489 c 0
 156 489 101 522 101 576 c 0
 101 594 117 609 140 609 c 0
 162 609 174 595 174 579 c 0
 174 576 174 574 173 571 c 0
 172 568 172 565 172 563 c 0
 172 541 192 520 222 520 c 0
 251 520 272 540 272 562 c 0
 272 565 272 568 271 571 c 0
 270 573 270 575 270 578 c 0
 270 595 287 609 305 609 c 0
 329 609 343 596 343 577 c 0
152 277 m 1
 286 277 l 2
 296 277 300 292 300 301 c 0
 300 372 273 390 237 390 c 0
 206.3 390 160.7 364 152 277 c 1
399 107 m 1
 412.7 99.4 419 87 419 72 c 1
 381 20 311 -10 239 -10 c 0
 90 -10 34 91 34 199 c 0
 34 351 143 439 238 439 c 0
 370 439 422 346 422 250 c 0
 422 239 415 233 404 233 c 2
 150 233 l 1
 150 86 202 58 259 58 c 0
 314 58 364 69 399 107 c 1
EndSplineSet
LCarets2: 1 0 
Colour: ff00ff
EndChar

StartChar: uni04D8
Encoding: 1240 1240 114
Width: 644
VWidth: 999
Flags: HW
HStem: -12 34<246.269 393.278> 216 44<122 511> 624 34<207.892 368.818>
VStem: 521 90<221.919 443.038>
LayerCount: 2
Fore
SplineSet
97 523 m 1
 74 547 l 1
 153 621 200 658 310 658 c 0
 525 658 611 485 611 326 c 0
 611 131 509 -12 316 -12 c 0
 124 -12 53 118 42 260 c 1
 520 260 l 1
 521 271 521 283 521 297 c 0
 521 483 429 624 294 624 c 0
 201 624 150 575 97 523 c 1
122 216 m 1
 153 86 225 22 323 22 c 0
 429 22 493 116 511 216 c 1
 122 216 l 1
EndSplineSet
Colour: ff00ff
EndChar

StartChar: afii10846
Encoding: 1241 1241 115
Width: 459
VWidth: 999
Flags: HW
HStem: -11 49<115.5 220.609> 141 44<96.003 263> 370 68<52.909 206.025>
VStem: -31 127<85.433 173.5> 266 126<128.972 141 185 300.69>
LayerCount: 2
Fore
SplineSet
276 151 m 1
 142 151 l 2
 132 151 128 136 128 127 c 0
 128 56 155 38 191 38 c 0
 221.7 38 267.3 64 276 151 c 1
29 321 m 1
 15.3 328.6 9 341 9 356 c 1
 47 408 117 438 189 438 c 0
 338 438 394 337 394 229 c 0
 394 77 285 -11 190 -11 c 0
 58 -11 6 82 6 178 c 0
 6 189 13 195 24 195 c 2
 278 195 l 1
 278 342 226 370 169 370 c 0
 114 370 64 359 29 321 c 1
EndSplineSet
Colour: ff00ff
EndChar

StartChar: uni04DA
Encoding: 1242 1242 116
Width: 644
VWidth: 999
Flags: HW
HStem: -12 34<246.269 393.278> 216 44<122 511> 624 34<207.892 368.818> 706 90<192.481 269.519 382.301 458.653>
VStem: 186 90<712.481 789.519> 375 91<713.347 789.699> 521 90<221.919 443.038>
LayerCount: 2
Fore
SplineSet
375 752 m 0
 375 776 396 797 420 797 c 0
 445 797 466 776 466 752 c 0
 466 727 445 706 420 706 c 0
 396 706 375 727 375 752 c 0
186 751 m 0
 186 776 206 796 231 796 c 0
 256 796 276 776 276 751 c 0
 276 726 256 706 231 706 c 0
 206 706 186 726 186 751 c 0
97 523 m 1
 74 547 l 1
 153 621 200 658 310 658 c 0
 525 658 611 485 611 326 c 0
 611 131 509 -12 316 -12 c 0
 124 -12 53 118 42 260 c 1
 520 260 l 1
 521 271 521 283 521 297 c 0
 521 483 429 624 294 624 c 0
 201 624 150 575 97 523 c 1
122 216 m 1
 153 86 225 22 323 22 c 0
 429 22 493 116 511 216 c 1
 122 216 l 1
EndSplineSet
LCarets2: 1 0 
Colour: ff00ff
EndChar

StartChar: uni04DB
Encoding: 1243 1243 117
Width: 459
VWidth: 999
Flags: HW
HStem: -11 49<115.5 220.609> 141 44<96.003 263> 370 68<52.909 206.025> 527 92<92.3474 169.653 252.347 329.653>
VStem: -31 127<85.433 173.5> 85 92<534.347 611.653> 245 92<534.347 611.653> 266 126<128.972 141 185 300.69>
LayerCount: 2
Fore
SplineSet
262 571 m 0
 262 603 287 628 319 628 c 0
 349 628 375 603 375 571 c 0
 375 541 349 515 319 515 c 0
 287 515 262 541 262 571 c 0
72 571 m 0
 72 603 98 628 128 628 c 0
 160 628 185 603 185 571 c 0
 185 541 160 515 128 515 c 0
 98 515 72 541 72 571 c 0
276 151 m 1
 142 151 l 2
 132 151 128 136 128 127 c 0
 128 56 155 38 191 38 c 0
 221.7 38 267.3 64 276 151 c 1
29 321 m 1
 15.3 328.6 9 341 9 356 c 1
 47 408 117 438 189 438 c 0
 338 438 394 337 394 229 c 0
 394 77 285 -11 190 -11 c 0
 58 -11 6 82 6 178 c 0
 6 189 13 195 24 195 c 2
 278 195 l 1
 278 342 226 370 169 370 c 0
 114 370 64 359 29 321 c 1
EndSplineSet
LCarets2: 1 0 
Colour: ff00ff
EndChar

StartChar: uni04E0
Encoding: 1248 1248 118
Width: 608
VWidth: 999
Flags: HW
HStem: -211 37<215 357> 605 39<141 167 167 446>
VStem: 475 89<-42 146>
DStem2: 250 252 367 288 0.48636 0.873758<88.8042 404.592>
LayerCount: 2
Fore
SplineSet
167 645 m 2
 522 645 l 2
 543 645 550 639 550 631 c 0
 550 621 544 605 535 590 c 2
 367 288 l 1
 501 261 564 162 564 51 c 0
 564 -88 432 -211 272 -211 c 0
 192 -211 42 -176 42 -110 c 0
 42 -87 52 -60 86 -60 c 0
 113 -60 141 -74 154 -95 c 0
 186 -144 236 -174 291 -174 c 0
 378 -174 475 -53 475 42 c 0
 475 201 360 255 291 255 c 0
 275 255 264 255 250 252 c 1
 446 605 l 1
 197 605 l 1
 123 604 94 521 90 477 c 1
 64 479 l 1
 85 667 l 1
 108 662 143 645 167 645 c 2
EndSplineSet
Colour: ff00ff
EndChar

StartChar: uni04E1
Encoding: 1249 1249 119
Width: 416
VWidth: 999
Flags: HW
HStem: -235 35<149 244> 103 34<216 268> 395 34<107 295>
VStem: 40 27<303 337> 312 81<-120 61>
DStem2: 127 107 216 137 0.505072 0.863077<70.4402 332.658>
LayerCount: 2
Fore
SplineSet
127 107 m 1
 295 395 l 1
 150 395 l 2
 120 395 86 374 66 301 c 1
 40 304 l 1
 48 353 54 397 55 442 c 1
 80 442 l 1
 82 436 91 429 106 429 c 2
 309 429 l 2
 338 429 374 435 376 435 c 0
 383 435 389 433 389 429 c 0
 389 425 383 414 367 387 c 2
 216 137 l 1
 312 137 393 84 393 -22 c 0
 393 -141 308 -235 185 -235 c 0
 100 -235 42 -174 42 -142 c 0
 42 -124 52 -106 74 -106 c 0
 97 -106 110 -116 118 -140 c 0
 126 -162 153 -200 193 -200 c 0
 243 -200 312 -146 312 -38 c 0
 312 63 281 103 203 103 c 0
 192 103 162 96 144 92 c 1
 127 107 l 1
EndSplineSet
Colour: ff00ff
EndChar

StartChar: uni04E6
Encoding: 1254 1254 120
Width: 759
VWidth: 999
Flags: HW
HStem: -10 53<307.847 481.169> 605 53<285.311 463.989> 706 90<218.481 295.519 408.301 484.653>
VStem: 42 141<188.284 438.592> 212 90<712.481 789.519> 401 91<713.347 789.699> 576 141<199.265 456.948>
LayerCount: 2
Fore
SplineSet
401 752 m 0
 401 776 422 797 446 797 c 0
 471 797 492 776 492 752 c 0
 492 727 471 706 446 706 c 0
 422 706 401 727 401 752 c 0
212 751 m 0
 212 776 232 796 257 796 c 0
 282 796 302 776 302 751 c 0
 302 726 282 706 257 706 c 0
 232 706 212 726 212 751 c 0
364 605 m 0
 268 605 183 537 183 327 c 0
 183 135 278 43 398 43 c 0
 512 43 576 131 576 310 c 0
 576 518 505 605 364 605 c 0
717 329 m 0
 717 129 592.1 -10 378 -10 c 0
 180 -10 42 122 42 310 c 0
 42 506 174 658 377 658 c 0
 590 658 717 527 717 329 c 0
EndSplineSet
LCarets2: 1 0 
Colour: ff00ff
EndChar

StartChar: uni04E7
Encoding: 1255 1255 121
Width: 528
VWidth: 999
Flags: HW
HStem: -10 50<216.893 336.152> 389 50<201.272 329.488> 528 92<135.347 212.653 295.347 372.653>
VStem: 36 128<111.605 310.233> 128 92<535.347 612.653> 288 92<535.347 612.653> 374 128<119.272 316.433>
LayerCount: 2
Fore
SplineSet
36 205 m 0
 36 342 123 439 266 439 c 0
 435 439 492 318 492 214 c 0
 492 107 417 -10 264 -10 c 0
 115 -10 36 95 36 205 c 0
259 389 m 0
 173 389 164 315 164 228 c 0
 164 151 174 40 278 40 c 0
 323 40 364 72 364 187 c 0
 364 326 344 389 259 389 c 0
305 572 m 0
 305 604 330 629 362 629 c 0
 392 629 418 604 418 572 c 0
 418 542 392 516 362 516 c 0
 330 516 305 542 305 572 c 0
115 572 m 0
 115 604 141 629 171 629 c 0
 203 629 228 604 228 572 c 0
 228 542 203 516 171 516 c 0
 141 516 115 542 115 572 c 0
EndSplineSet
LCarets2: 1 0 
Colour: ff00ff
EndChar

StartChar: uni04E8
Encoding: 1256 1256 122
Width: 759
VWidth: 999
Flags: HW
HStem: -10 53<307.847 481.169> 266 57<387.324 534.392> 312 58<177.336 340.102> 605 53<285.311 463.989>
VStem: 42 141<188.284 438.592> 100 15<267.333 271.234> 576 141<199.265 456.948>
LayerCount: 2
Fore
SplineSet
717 329 m 0
 717 129 592.1 -10 378 -10 c 0
 180 -10 42 122 42 310 c 0
 42 506 174 658 377 658 c 0
 590 658 717 527 717 329 c 0
576 316.3 m 1
 534 277.6 483.9 266 446 266 c 0
 354 266 330 312 255 312 c 0
 236.9 312 209.8 310 183.5 303.2 c 1
 191.1 127.4 283.1 43 398 43 c 0
 512 43 576 131 576 310 c 0
 576 312.1 576 314.2 576 316.3 c 1
574.6 358.9 m 1
 563.9 531.7 493.4 605 364 605 c 0
 271.8 605 189.8 542.4 183.4 351.6 c 1
 215 364.1 249 370 273 370 c 0
 371 370 401 323 464 323 c 0
 495.7 323 542.1 335.6 574.6 358.9 c 1
EndSplineSet
Colour: ff00ff
EndChar

StartChar: uni04E9
Encoding: 1257 1257 123
Width: 528
VWidth: 999
Flags: HMW
HStem: -12 36<202 328> 179 49<204 349> 207 42<118 238> 409 33<183 304>
VStem: 44 79<124 320> 377 79<113 318>
AnchorPoint: "unten_punkt" 246 -107 basechar 0
AnchorPoint: "top_punkt" 245 550 basechar 0
AnchorPoint: "top_akzent" 236 645 basechar 0
LayerCount: 2
Fore
SplineSet
36 205 m 0
 36 342 123 439 266 439 c 0
 435 439 492 318 492 214 c 0
 492 107 417 -10 264 -10 c 0
 115 -10 36 95 36 205 c 0
362.9 238.1 m 1
 357.6 341.6 332.8 389 259 389 c 0
 177.9 389 165.3 323.1 164.1 242.6 c 1
 180.7 246.5 198.2 249 213 249 c 0
 258 249 280 229 318 229 c 0
 333.8 229 349.7 233.2 362.9 238.1 c 1
363.8 208.8 m 1
 340.9 195.4 306 179 274 179 c 0
 231.9 179 198.5 205.8 164.3 207 c 1
 166.5 132.3 183.2 40 278 40 c 0
 323 40 364 72 364 187 c 0
 364 194.5 363.9 201.8 363.8 208.8 c 1
EndSplineSet
Colour: ff80cc
EndChar

StartChar: uni04EA
Encoding: 1258 1258 124
Width: 759
VWidth: 999
Flags: HW
HStem: -10 53<307.847 481.169> 266 57<387.324 534.392> 312 58<177.336 340.102> 605 53<285.311 463.989> 708 90<215.481 292.519 405.301 481.653>
VStem: 42 141<188.284 438.592> 100 15<267.333 271.234> 209 90<714.481 791.519> 398 91<715.347 791.699> 576 141<199.265 456.948>
LayerCount: 2
Fore
SplineSet
398 754 m 0
 398 778 419 799 443 799 c 0
 468 799 489 778 489 754 c 0
 489 729 468 708 443 708 c 0
 419 708 398 729 398 754 c 0
209 753 m 0
 209 778 229 798 254 798 c 0
 279 798 299 778 299 753 c 0
 299 728 279 708 254 708 c 0
 229 708 209 728 209 753 c 0
717 329 m 0
 717 129 592.1 -10 378 -10 c 0
 180 -10 42 122 42 310 c 0
 42 506 174 658 377 658 c 0
 590 658 717 527 717 329 c 0
576 316.3 m 1
 534 277.6 483.9 266 446 266 c 0
 354 266 330 312 255 312 c 0
 236.9 312 209.8 310 183.5 303.2 c 1
 191.1 127.4 283.1 43 398 43 c 0
 512 43 576 131 576 310 c 0
 576 312.1 576 314.2 576 316.3 c 1
574.6 358.9 m 1
 563.9 531.7 493.4 605 364 605 c 0
 271.8 605 189.8 542.4 183.4 351.6 c 1
 215 364.1 249 370 273 370 c 0
 371 370 401 323 464 323 c 0
 495.7 323 542.1 335.6 574.6 358.9 c 1
EndSplineSet
LCarets2: 1 0 
Colour: ff00ff
EndChar

StartChar: uni04EB
Encoding: 1259 1259 125
Width: 528
VWidth: 999
Flags: HW
HStem: -12 36<202 328> 179 49<204 349> 207 42<118 238> 409 33<183 304> 527 92<137.347 214.653 297.347 374.653>
VStem: 44 79<124 320> 130 92<534.347 611.653> 290 92<534.347 611.653> 377 79<113 318>
LayerCount: 2
Fore
SplineSet
36 205 m 0
 36 342 123 439 266 439 c 0
 435 439 492 318 492 214 c 0
 492 107 417 -10 264 -10 c 0
 115 -10 36 95 36 205 c 0
307 571 m 0
 307 603 332 628 364 628 c 0
 394 628 420 603 420 571 c 0
 420 541 394 515 364 515 c 0
 332 515 307 541 307 571 c 0
117 571 m 0
 117 603 143 628 173 628 c 0
 205 628 230 603 230 571 c 0
 230 541 205 515 173 515 c 0
 143 515 117 541 117 571 c 0
362.9 238.1 m 1
 357.6 341.6 332.8 389 259 389 c 0
 177.9 389 165.3 323.1 164.1 242.6 c 1
 180.7 246.5 198.2 249 213 249 c 0
 258 249 280 229 318 229 c 0
 333.8 229 349.7 233.2 362.9 238.1 c 1
363.8 208.8 m 1
 340.9 195.4 306 179 274 179 c 0
 231.9 179 198.5 205.8 164.3 207 c 1
 166.5 132.3 183.2 40 278 40 c 0
 323 40 364 72 364 187 c 0
 364 194.5 363.9 201.8 363.8 208.8 c 1
EndSplineSet
LCarets2: 1 0 
Colour: ff00ff
EndChar

StartChar: uni04EF
Encoding: 1263 1263 126
Width: 524
VWidth: 999
Flags: HW
HStem: -237 21<118 135.595 211 235> 412 20<44 56.4194 169.5 194.265 387.463 410 489.5 501> 538 44<111.088 389.515>
VStem: 110 281<538.205 582>
LayerCount: 2
Fore
SplineSet
37 432 m 1
 51 429 92 429 105 429 c 0
 119 429 155 429 168 432 c 1
 202.6 326.3 245.6 223.1 290.8 114 c 1
 335 212.4 377 328.4 410 432 c 1
 420 429 453 429 463 429 c 0
 473 429 496 429 506 432 c 1
 473 365 254 -112 216 -237 c 1
 206 -234 177 -232 167 -232 c 0
 157 -232 123 -234 113 -237 c 1
 158.2 -161.7 192.8 -93.8 224.8 -19.1 c 1
 222.2 -12 l 2
 184.1 88.7 75.8 345.4 37 432 c 1
394 535 m 2
 120 535 l 2
 109 535 105 544 105 553 c 0
 105 565 117 585 130 585 c 2
 406 585 l 2
 416 585 420 576 420 568 c 0
 420 555 408 535 394 535 c 2
291.5 88.6 m 1
 290.7 87.6 l 1
 292.7 87.6 l 1
 291.5 88.6 l 1
EndSplineSet
LCarets2: 1 0 
Colour: ff00ff
EndChar

StartChar: uni04F1
Encoding: 1265 1265 127
Width: 524
VWidth: 999
Flags: HW
HStem: -237 21<118 135.595 211 235> 412 20<44 56.4194 169.5 194.265 387.463 410 489.5 501> 527 92<142.347 219.653 302.347 379.653>
VStem: 135 92<534.347 611.653> 295 92<534.347 611.653>
LayerCount: 2
Fore
SplineSet
37 432 m 1
 51 429 92 429 105 429 c 0
 119 429 155 429 168 432 c 1
 202.6 326.3 245.6 223.1 290.8 114 c 1
 335 212.4 377 328.4 410 432 c 1
 420 429 453 429 463 429 c 0
 473 429 496 429 506 432 c 1
 473 365 254 -112 216 -237 c 1
 206 -234 177 -232 167 -232 c 0
 157 -232 123 -234 113 -237 c 1
 158.2 -161.7 192.8 -93.8 224.8 -19.1 c 1
 222.2 -12 l 2
 184.1 88.7 75.8 345.4 37 432 c 1
312 571 m 0
 312 603 337 628 369 628 c 0
 399 628 425 603 425 571 c 0
 425 541 399 515 369 515 c 0
 337 515 312 541 312 571 c 0
122 571 m 0
 122 603 148 628 178 628 c 0
 210 628 235 603 235 571 c 0
 235 541 210 515 178 515 c 0
 148 515 122 541 122 571 c 0
291.5 88.6 m 1
 290.7 87.6 l 1
 292.7 87.6 l 1
 291.5 88.6 l 1
EndSplineSet
LCarets2: 1 0 
Colour: ff00ff
EndChar

StartChar: uni04F3
Encoding: 1267 1267 128
Width: 524
VWidth: 999
Flags: HW
HStem: -237 21<118 135.595 211 235> 412 20<44 56.4194 169.5 194.265 387.463 410 489.5 501>
LayerCount: 2
Fore
SplineSet
37 432 m 1
 51 429 92 429 105 429 c 0
 119 429 155 429 168 432 c 1
 202.6 326.3 245.6 223.1 290.8 114 c 1
 335 212.4 377 328.4 410 432 c 1
 420 429 453 429 463 429 c 0
 473 429 496 429 506 432 c 1
 473 365 254 -112 216 -237 c 1
 206 -234 177 -232 167 -232 c 0
 157 -232 123 -234 113 -237 c 1
 158.2 -161.7 192.8 -93.8 224.8 -19.1 c 1
 222.2 -12 l 2
 184.1 88.7 75.8 345.4 37 432 c 1
457 609 m 0
 457 597 452 592 444 584 c 2
 346 492 l 2
 341 487 336 484 331 484 c 0
 323 484 316 490 316 499 c 0
 316 503 317 508 320 513 c 2
 388 634 l 2
 390 637 397 652 416 652 c 0
 440 652 457 633 457 609 c 0
328 621 m 0
 328 616 327 610 323 605 c 2
 231 496 l 2
 222 485 214 481 207 481 c 0
 199 481 194 487 194 496 c 0
 194 500 195 505 197 510 c 2
 256 644 l 2
 261 655 275 657 286 657 c 0
 308 657 328 640 328 621 c 0
291.5 88.6 m 1
 290.7 87.6 l 1
 292.7 87.6 l 1
 291.5 88.6 l 1
EndSplineSet
LCarets2: 1 0 
Colour: ff00ff
EndChar

StartChar: uni1E00
Encoding: 7680 7680 129
Width: 669
VWidth: 999
Flags: HW
HStem: -215 27<274.238 341.262> -76 27<273.737 342.086> -3 21<24 68.5 113 136.444 500.087 513.5 632 648.5> 221 53<210.237 444.333> 638 20<265 429>
VStem: 222 32<-170.178 -92.558> 362 31<-169.958 -93.519>
LayerCount: 2
Fore
SplineSet
308 -76 m 0
 277 -76 254 -102 254 -132 c 0
 254 -160 277 -188 308 -188 c 0
 339 -188 362 -160 362 -132 c 0
 362 -101 338 -76 308 -76 c 0
222 -132 m 0
 222 -86 261 -49 307 -49 c 0
 353 -49 393 -85 393 -132 c 0
 393 -177 355 -215 307 -215 c 0
 261 -215 222 -178 222 -132 c 0
317.6 499.8 m 1
 221.6 275.9 l 1
 253.3 275.5 297.1 274 326 274 c 0
 349.7 274 381.1 274.5 409.5 275.1 c 1
 384.7 339.4 354.4 414.4 317.6 499.8 c 1
198.3 219.2 m 1
 164.2 135.1 134.8 56.2 119 -3 c 1
 107 0 85 0 74 0 c 0
 63 0 30 0 18 -3 c 1
 119 218 217 436 313 658 c 1
 383 658 l 1
 475 439 607 98 657 -3 c 1
 640 0 593 0 576 0 c 0
 559 0 522 0 505 -3 c 1
 499 18.7 477.3 93.7 430.5 219.7 c 1
 397.8 220.4 363.1 221 331 221 c 0
 295.3 221 236.3 220.1 198.3 219.2 c 1
EndSplineSet
LCarets2: 1 0 
Colour: ff00ff
EndChar

StartChar: uni1E01
Encoding: 7681 7681 130
Width: 476
VWidth: 999
Flags: HW
HStem: -216 27<190.238 257.262> -77 27<189.737 258.086> -10 60<134 255.262 367.5 464.115> 385 54<171.557 288.207>
VStem: 42 119<59.5392 158.158> 138 32<-171.178 -93.558> 278 31<-170.958 -94.519> 311 118<89.0564 219 268.049 360.659>
DStem2: 218 247 231 198 0.972082 0.234641<-58.6762 83.8337>
LayerCount: 2
Fore
SplineSet
224 -77 m 0
 193 -77 170 -103 170 -133 c 0
 170 -161 193 -189 224 -189 c 0
 255 -189 278 -161 278 -133 c 0
 278 -102 254 -77 224 -77 c 0
138 -133 m 0
 138 -87 177 -50 223 -50 c 0
 269 -50 309 -86 309 -133 c 0
 309 -178 271 -216 223 -216 c 0
 177 -216 138 -179 138 -133 c 0
291 222 m 1
 211 201 l 2
 155.2 186.3 153 149 153 107 c 0
 153 80 170 50 200 50 c 0
 228 50 251 61 274 84 c 0
 281.1 91.1 289 116 289 129 c 2
 291 222 l 1
397 80 m 0
 397 47 418 44 458 44 c 1
 464 39 466.7 31.7 468 23 c 1
 438 0 408.1 -10 369 -10 c 0
 326 -10 298 16 290 48 c 1
 288 48 l 1
 238 3 200.1 -10 161 -10 c 0
 91 -10 34 29 34 98 c 0
 34 166 102 226.8 198 250 c 2
 285 271 l 2
 288 272 291 276 291 283 c 0
 291 360.1 266 385 222 385 c 0
 177 385 140 362 109 306 c 1
 86 307 l 1
 66 382 l 1
 69 386 l 1
 93 407 159 439 231 439 c 0
 279.1 439 329.3 427.5 361 399.1 c 0
 388.6 374.3 401 337.1 401 277 c 0
 401 266 397 109 397 80 c 0
EndSplineSet
LCarets2: 1 0 
Colour: ff00ff
EndChar

StartChar: uni1E02
Encoding: 7682 7682 131
Width: 645
VWidth: 999
Flags: HW
HStem: -3 53<202.825 424.714> 322 53<231 390.016> 595 53<201.575 388.423> 702 138<252.092 351.908>
VStem: 103 128<58.1877 322 375 588.462> 233 138<721.092 820.908> 416 129<423.825 565.546> 463 141<106.228 265.94>
LayerCount: 2
Fore
SplineSet
237 771 m 0
 237 807 266 836 302 836 c 0
 338 836 367 807 367 771 c 0
 367 735 338 706 302 706 c 0
 266 706 237 735 237 771 c 0
225 550 m 2
 225 375 l 1
 303 375 l 2
 386 375 416 396 416 481 c 0
 416 583 372 595 316 595 c 0
 235 595 225 583 225 550 c 2
225 322 m 1
 225 97 l 2
 225 64 242 50 312 50 c 0
 446 50 463 92 463 165 c 0
 463 255 435 322 318 322 c 2
 225 322 l 1
167 645 m 0
 222 645 274 648 309 648 c 0
 495 648 545 560 545 493 c 0
 545 438 503 385 452 360 c 1
 539 335 604 280 604 184 c 0
 604 98 530 -3 331 -3 c 0
 242 -3 231 0 167 0 c 0
 132 0 94 -3 94 -3 c 1
 93 0 l 1
 101 54 103 125 103 200 c 2
 103 445 l 2
 103 520 101 588 93 645 c 1
 95 648 l 1
 95 648 133 645 167 645 c 0
EndSplineSet
LCarets2: 1 0 
Colour: ff00ff
EndChar

StartChar: uni1E03
Encoding: 7683 7683 132
Width: 550
VWidth: 999
Flags: HW
HStem: -10 53<217.548 340.742> 376 63<234.637 352.402> 532 138<234.092 333.908> 678 20<181.465 197.167>
VStem: 75 118<67.4067 351.44 384 667.981> 215 138<551.092 650.908> 394 123<140.419 328.762>
LayerCount: 2
Fore
SplineSet
219 601 m 0
 219 637 248 666 284 666 c 0
 320 666 349 637 349 601 c 0
 349 565 320 536 284 536 c 0
 248 536 219 565 219 601 c 0
193 90 m 1
 205 59 247 40 278 40 c 0
 330 40 390 108 390 222 c 0
 390 319 357 376 296 376 c 0
 271.9 376 242 372 193 337 c 1
 193 90 l 1
193 500 m 2
 193 384 l 1
 253 429 283 439 326 439 c 0
 379.1 439 417.6 425.2 457 389 c 0
 493.8 355.2 511 301 511 242 c 0
 511 72 379 -10 269 -10 c 0
 224 -10 181 10 157 42 c 1
 142.5 29 114 2 105 -12 c 1
 95.5 -12 76 -6.8 70 -3 c 1
 74.2 18.8 75 32 75 71 c 2
 75 474 l 2
 75 550 72.7 619.3 65 662 c 1
 67 665 l 1
 107.5 668 168.9 688 194 698 c 1
 200.3 698 203 695 203 688 c 0
 195.3 626.7 193 574 193 500 c 2
EndSplineSet
LCarets2: 1 0 
Colour: ff00ff
EndChar

StartChar: uni1E04
Encoding: 7684 7684 133
Width: 645
VWidth: 999
Flags: HW
HStem: -154 138<239.092 338.908> -3 53<202.825 424.714> 322 53<231 390.016> 595 53<201.575 388.423>
VStem: 103 128<58.1877 322 375 588.462> 220 138<-134.908 -35.092> 416 129<423.825 565.546> 463 141<106.228 265.94>
LayerCount: 2
Fore
SplineSet
224 -85 m 0
 224 -49 253 -20 289 -20 c 0
 325 -20 354 -49 354 -85 c 0
 354 -121 325 -150 289 -150 c 0
 253 -150 224 -121 224 -85 c 0
225 550 m 2
 225 375 l 1
 303 375 l 2
 386 375 416 396 416 481 c 0
 416 583 372 595 316 595 c 0
 235 595 225 583 225 550 c 2
225 322 m 1
 225 97 l 2
 225 64 242 50 312 50 c 0
 446 50 463 92 463 165 c 0
 463 255 435 322 318 322 c 2
 225 322 l 1
167 645 m 0
 222 645 274 648 309 648 c 0
 495 648 545 560 545 493 c 0
 545 438 503 385 452 360 c 1
 539 335 604 280 604 184 c 0
 604 98 530 -3 331 -3 c 0
 242 -3 231 0 167 0 c 0
 132 0 94 -3 94 -3 c 1
 93 0 l 1
 101 54 103 125 103 200 c 2
 103 445 l 2
 103 520 101 588 93 645 c 1
 95 648 l 1
 95 648 133 645 167 645 c 0
EndSplineSet
LCarets2: 1 0 
Colour: ff00ff
EndChar

StartChar: uni1E05
Encoding: 7685 7685 134
Width: 550
VWidth: 999
Flags: HW
HStem: -154 138<194.092 293.908> -10 53<217.548 340.742> 376 63<234.637 352.402> 678 20<181.465 197.167>
VStem: 75 118<67.4067 351.44 384 667.981> 175 138<-134.908 -35.0922> 394 123<140.419 328.762>
LayerCount: 2
Fore
SplineSet
179 -85 m 0
 179 -49 208 -20 244 -20 c 0
 280 -20 309 -49 309 -85 c 0
 309 -121 280 -150 244 -150 c 0
 208 -150 179 -121 179 -85 c 0
193 90 m 1
 205 59 247 40 278 40 c 0
 330 40 390 108 390 222 c 0
 390 319 357 376 296 376 c 0
 271.9 376 242 372 193 337 c 1
 193 90 l 1
193 500 m 2
 193 384 l 1
 253 429 283 439 326 439 c 0
 379.1 439 417.6 425.2 457 389 c 0
 493.8 355.2 511 301 511 242 c 0
 511 72 379 -10 269 -10 c 0
 224 -10 181 10 157 42 c 1
 142.5 29 114 2 105 -12 c 1
 95.5 -12 76 -6.8 70 -3 c 1
 74.2 18.8 75 32 75 71 c 2
 75 474 l 2
 75 550 72.7 619.3 65 662 c 1
 67 665 l 1
 107.5 668 168.9 688 194 698 c 1
 200.3 698 203 695 203 688 c 0
 195.3 626.7 193 574 193 500 c 2
EndSplineSet
LCarets2: 1 0 
Colour: ff00ff
EndChar

StartChar: uni1E06
Encoding: 7686 7686 135
Width: 645
VWidth: 999
Flags: HW
HStem: -106 44<137 148 148 415> -3 53<202.825 424.714> 322 53<231 390.016> 595 53<201.575 388.423>
VStem: 103 128<58.1877 322 375 588.462> 416 129<423.825 565.546> 463 141<106.228 265.94>
LayerCount: 2
Fore
SplineSet
393 -106 m 2
 148 -106 l 2
 140 -106 136 -98 136 -91 c 0
 136 -79 146 -62 158 -62 c 2
 403 -62 l 2
 412 -62 416 -69 416 -76 c 0
 416 -88 406 -106 393 -106 c 2
225 550 m 2
 225 375 l 1
 303 375 l 2
 386 375 416 396 416 481 c 0
 416 583 372 595 316 595 c 0
 235 595 225 583 225 550 c 2
225 322 m 1
 225 97 l 2
 225 64 242 50 312 50 c 0
 446 50 463 92 463 165 c 0
 463 255 435 322 318 322 c 2
 225 322 l 1
167 645 m 0
 222 645 274 648 309 648 c 0
 495 648 545 560 545 493 c 0
 545 438 503 385 452 360 c 1
 539 335 604 280 604 184 c 0
 604 98 530 -3 331 -3 c 0
 242 -3 231 0 167 0 c 0
 132 0 94 -3 94 -3 c 1
 93 0 l 1
 101 54 103 125 103 200 c 2
 103 445 l 2
 103 520 101 588 93 645 c 1
 95 648 l 1
 95 648 133 645 167 645 c 0
EndSplineSet
LCarets2: 1 0 
Colour: ff00ff
EndChar

StartChar: uni1E07
Encoding: 7687 7687 136
Width: 550
VWidth: 999
Flags: HW
HStem: -110 44<107 118 118 385> -10 53<217.548 340.742> 376 63<234.637 352.402> 678 20<181.465 197.167>
VStem: 75 118<67.4067 351.44 384 667.981> 394 123<140.419 328.762>
LayerCount: 2
Fore
SplineSet
363 -110 m 2
 118 -110 l 2
 110 -110 106 -102 106 -95 c 0
 106 -83 116 -66 128 -66 c 2
 373 -66 l 2
 382 -66 386 -73 386 -80 c 0
 386 -92 376 -110 363 -110 c 2
193 90 m 1
 205 59 247 40 278 40 c 0
 330 40 390 108 390 222 c 0
 390 319 357 376 296 376 c 0
 271.9 376 242 372 193 337 c 1
 193 90 l 1
193 500 m 2
 193 384 l 1
 253 429 283 439 326 439 c 0
 379.1 439 417.6 425.2 457 389 c 0
 493.8 355.2 511 301 511 242 c 0
 511 72 379 -10 269 -10 c 0
 224 -10 181 10 157 42 c 1
 142.5 29 114 2 105 -12 c 1
 95.5 -12 76 -6.8 70 -3 c 1
 74.2 18.8 75 32 75 71 c 2
 75 474 l 2
 75 550 72.7 619.3 65 662 c 1
 67 665 l 1
 107.5 668 168.9 688 194 698 c 1
 200.3 698 203 695 203 688 c 0
 195.3 626.7 193 574 193 500 c 2
EndSplineSet
LCarets2: 1 0 
Colour: ff00ff
EndChar

StartChar: uni1E08
Encoding: 7688 7688 137
Width: 671
VWidth: 999
Flags: HW
HStem: -185 25<286.659 383.933> -84 32<356.31 393.165> -10 60<292.337 479.108> 602 56<291.317 481.844> 697 122
VStem: 37 145<196.877 427.375> 269 201 400 53<-150.949 -88.278>
DStem2: 307 -84 356 -55 0.397156 0.917751<46.0754 95.3334>
LayerCount: 2
Fore
SplineSet
408 819 m 1
 470 767 l 1
 326 709 l 2
 305 700 292 697 283 697 c 0
 274 697 269 702 269 712 c 0
 269 719 271 724 284 733 c 2
 408 819 l 1
358 -84 m 0
 339 -84 329 -85 313 -90 c 1
 307 -84 l 1
 340.4 -9.4 l 1
 139.6 1.2 37 159.5 37 315 c 0
 37 424.9 82.1 522.3 161 584 c 0
 223.5 632.8 295 658 386 658 c 0
 508 658 604 613 604 613 c 1
 606 610 l 1
 594.2 560.7 589.6 531 586 480 c 1
 576 479 l 1
 535 561 462 602 372 602 c 0
 290 602 180 537 180 334 c 0
 180 193 238 50 381 50 c 0
 474 50 519 67 594 139 c 1
 618 105 l 1
 538 22.1 459.1 -7.2 374.7 -9.8 c 1
 356 -55 l 1
 364 -53 373 -52 382 -52 c 0
 422 -52 453 -76 453 -114 c 0
 453 -157 407 -185 346 -185 c 0
 314 -185 297 -179 272 -168 c 1
 282 -146 l 1
 309 -156 320 -160 340 -160 c 0
 370 -160 400 -146 400 -119 c 0
 400 -98 381 -84 358 -84 c 0
EndSplineSet
LCarets2: 1 0 
Colour: ff00ff
EndChar

StartChar: uni1E09
Encoding: 7689 7689 138
Width: 446
VWidth: 999
Flags: HW
HStem: -179 25<152.659 249.933> -78 32<222.31 259.165> -10 63<220.503 355.8> 385 54<213.956 342.262>
VStem: 36 123<120.418 308.55> 266 53<-144.949 -82.278>
DStem2: 173 -78 222 -49 0.397156 0.917751<46.0754 95.3334>
LayerCount: 2
Fore
SplineSet
312 674 m 1
 315 675 323 676 328 676 c 0
 358 676 377 662 385 652 c 1
 395 629 l 1
 275 521 l 2
 261 509 247 505 237 505 c 0
 229 505 221 513 221 519 c 0
 221 525 223 534 229 543 c 2
 312 674 l 1
224 -78 m 0
 205 -78 195 -79 179 -84 c 1
 173 -78 l 1
 204.9 -6.8 l 1
 155.8 1.1 124.2 23.2 96 54 c 0
 62.4 90.7 42 139.5 42 202 c 0
 42 359 131 439 265 439 c 0
 315 439 383 422 414 406 c 1
 416 403 l 1
 392 306 l 1
 374 305 l 1
 345 366 312.5 388 274 388 c 0
 208 388 161 330.1 161 228 c 0
 161 170.8 175 130 193 101 c 0
 211 72 246 47 275 47 c 0
 315 47 359 54 387 88 c 1
 403 88 l 1
 403 72 405.8 53.5 408 44 c 1
 363 6 324.4 -10 248 -10 c 0
 244.7 -10 241.4 -10 238.2 -9.9 c 1
 222 -49 l 1
 230 -47 239 -46 248 -46 c 0
 288 -46 319 -70 319 -108 c 0
 319 -151 273 -179 212 -179 c 0
 180 -179 163 -173 138 -162 c 1
 148 -140 l 1
 175 -150 186 -154 206 -154 c 0
 236 -154 266 -140 266 -113 c 0
 266 -92 247 -78 224 -78 c 0
EndSplineSet
LCarets2: 1 0 
Colour: ff00ff
EndChar

StartChar: uni1E0A
Encoding: 7690 7690 139
Width: 751
VWidth: 999
Flags: HW
HStem: -2 44<168.546 432.266> 604 44<169.401 389.698> 706 138<265.092 364.908>
VStem: 101 86<49.3073 594.385> 246 138<725.092 824.908> 552 103<179.784 425.325>
LayerCount: 2
Fore
SplineSet
250 775 m 0
 250 811 279 840 315 840 c 0
 351 840 380 811 380 775 c 0
 380 739 351 710 315 710 c 0
 279 710 250 739 250 775 c 0
225 91 m 2
 225 59 240 51 338 51 c 0
 479 51 563 82 563 284 c 0
 563 438 529 595 313 595 c 0
 264 595 225 590 225 555 c 2
 225 91 l 2
165 645 m 0
 238 645 278 648 351 648 c 0
 543 648 708 494 708 308 c 0
 708 62 510 -2 369 -2 c 0
 266 -2 245 0 165 0 c 0
 130 0 92 -3 92 -3 c 1
 91 0 l 1
 99 54 101 125 101 200 c 2
 101 445 l 2
 101 520 99 588 91 645 c 1
 93 648 l 1
 93 648 131 645 165 645 c 0
EndSplineSet
LCarets2: 1 0 
Colour: ff00ff
EndChar

StartChar: uni1E0B
Encoding: 7691 7691 140
Width: 561
VWidth: 999
Flags: HW
HStem: -10 66<206.415 316.415> -3 21<393 402.667 506.5 515> 385 54<211.48 348.898> 532 138<201.092 300.908> 678 20<486.465 502.167>
VStem: 40 123<106.56 296.929> 182 138<551.092 650.908> 380 118<96.6489 355.244 417 667.981>
LayerCount: 2
Fore
SplineSet
186 601 m 0
 186 637 215 666 251 666 c 0
 287 666 316 637 316 601 c 0
 316 565 287 536 251 536 c 0
 215 536 186 565 186 601 c 0
370 118 m 1
 370 326 l 1
 346 364 322 385 275 385 c 0
 226.6 385 163 356 163 221 c 0
 163 96 209 56 263 56 c 0
 303.5 56 333.5 71.5 370 118 c 1
370 64 m 1
 321 17 284 -10 227 -10 c 0
 111 -10 44 80 44 203 c 0
 44 274.9 67 338 130 387 c 0
 174.7 421.8 218.7 439 296 439 c 0
 316 439 347 430 370 417 c 1
 370 474 l 2
 370 550 367.7 619.3 360 662 c 1
 362 665 l 1
 402.5 668 463.9 688 489 698 c 1
 495.3 698 498 695 498 688 c 0
 490.3 626.7 488 574 488 500 c 2
 488 192 l 2
 488 117 497 43 505 0 c 1
 503 -3 l 1
 490 -1 452.1 0 439.5 0 c 0
 425 0 399.3 -1.3 386 -3 c 0
 380 -3 377 -2 377 0 c 2
 372 64 l 1
 370 64 l 1
EndSplineSet
LCarets2: 1 0 
Colour: ff00ff
EndChar

StartChar: uni1E0C
Encoding: 7692 7692 141
Width: 751
VWidth: 999
Flags: HW
HStem: -154 138<259.092 358.908> -2 44<168.546 432.266> 604 44<169.401 389.698>
VStem: 101 86<49.3073 594.385> 240 138<-134.908 -35.092> 552 103<179.784 425.325>
LayerCount: 2
Fore
SplineSet
244 -85 m 0
 244 -49 273 -20 309 -20 c 0
 345 -20 374 -49 374 -85 c 0
 374 -121 345 -150 309 -150 c 0
 273 -150 244 -121 244 -85 c 0
225 91 m 2
 225 59 240 51 338 51 c 0
 479 51 563 82 563 284 c 0
 563 438 529 595 313 595 c 0
 264 595 225 590 225 555 c 2
 225 91 l 2
165 645 m 0
 238 645 278 648 351 648 c 0
 543 648 708 494 708 308 c 0
 708 62 510 -2 369 -2 c 0
 266 -2 245 0 165 0 c 0
 130 0 92 -3 92 -3 c 1
 91 0 l 1
 99 54 101 125 101 200 c 2
 101 445 l 2
 101 520 99 588 91 645 c 1
 93 648 l 1
 93 648 131 645 165 645 c 0
EndSplineSet
LCarets2: 1 0 
Colour: ff00ff
EndChar

StartChar: uni1E0D
Encoding: 7693 7693 142
Width: 561
VWidth: 999
Flags: HW
HStem: -154 138<255.092 354.908> -10 66<206.415 316.415> -3 21<393 402.667 506.5 515> 385 54<211.48 348.898> 678 20<486.465 502.167>
VStem: 40 123<106.56 296.929> 236 138<-134.908 -35.0922> 380 118<96.6489 355.244 417 667.981>
LayerCount: 2
Fore
SplineSet
240 -85 m 0
 240 -49 269 -20 305 -20 c 0
 341 -20 370 -49 370 -85 c 0
 370 -121 341 -150 305 -150 c 0
 269 -150 240 -121 240 -85 c 0
370 118 m 1
 370 326 l 1
 346 364 322 385 275 385 c 0
 226.6 385 163 356 163 221 c 0
 163 96 209 56 263 56 c 0
 303.5 56 333.5 71.5 370 118 c 1
370 64 m 1
 321 17 284 -10 227 -10 c 0
 111 -10 44 80 44 203 c 0
 44 274.9 67 338 130 387 c 0
 174.7 421.8 218.7 439 296 439 c 0
 316 439 347 430 370 417 c 1
 370 474 l 2
 370 550 367.7 619.3 360 662 c 1
 362 665 l 1
 402.5 668 463.9 688 489 698 c 1
 495.3 698 498 695 498 688 c 0
 490.3 626.7 488 574 488 500 c 2
 488 192 l 2
 488 117 497 43 505 0 c 1
 503 -3 l 1
 490 -1 452.1 0 439.5 0 c 0
 425 0 399.3 -1.3 386 -3 c 0
 380 -3 377 -2 377 0 c 2
 372 64 l 1
 370 64 l 1
EndSplineSet
LCarets2: 1 0 
Colour: ff00ff
EndChar

StartChar: uni1E0E
Encoding: 7694 7694 143
Width: 751
VWidth: 999
Flags: HW
HStem: -105 44<144 155 155 422> -2 44<168.546 432.266> 604 44<169.401 389.698>
VStem: 101 86<49.3073 594.385> 552 103<179.784 425.325>
LayerCount: 2
Fore
SplineSet
400 -105 m 2
 155 -105 l 2
 147 -105 143 -97 143 -90 c 0
 143 -78 153 -61 165 -61 c 2
 410 -61 l 2
 419 -61 423 -68 423 -75 c 0
 423 -87 413 -105 400 -105 c 2
225 91 m 2
 225 59 240 51 338 51 c 0
 479 51 563 82 563 284 c 0
 563 438 529 595 313 595 c 0
 264 595 225 590 225 555 c 2
 225 91 l 2
165 645 m 0
 238 645 278 648 351 648 c 0
 543 648 708 494 708 308 c 0
 708 62 510 -2 369 -2 c 0
 266 -2 245 0 165 0 c 0
 130 0 92 -3 92 -3 c 1
 91 0 l 1
 99 54 101 125 101 200 c 2
 101 445 l 2
 101 520 99 588 91 645 c 1
 93 648 l 1
 93 648 131 645 165 645 c 0
EndSplineSet
LCarets2: 1 0 
Colour: ff00ff
EndChar

StartChar: uni1E0F
Encoding: 7695 7695 144
Width: 561
VWidth: 999
Flags: HW
HStem: -109 44<146 157 157 424> -10 66<206.415 316.415> -3 21<393 402.667 506.5 515> 385 54<211.48 348.898> 678 20<486.465 502.167>
VStem: 40 123<106.56 296.929> 380 118<96.6489 355.244 417 667.981>
LayerCount: 2
Fore
SplineSet
402 -109 m 2
 157 -109 l 2
 149 -109 145 -101 145 -94 c 0
 145 -82 155 -65 167 -65 c 2
 412 -65 l 2
 421 -65 425 -72 425 -79 c 0
 425 -91 415 -109 402 -109 c 2
370 118 m 1
 370 326 l 1
 346 364 322 385 275 385 c 0
 226.6 385 163 356 163 221 c 0
 163 96 209 56 263 56 c 0
 303.5 56 333.5 71.5 370 118 c 1
370 64 m 1
 321 17 284 -10 227 -10 c 0
 111 -10 44 80 44 203 c 0
 44 274.9 67 338 130 387 c 0
 174.7 421.8 218.7 439 296 439 c 0
 316 439 347 430 370 417 c 1
 370 474 l 2
 370 550 367.7 619.3 360 662 c 1
 362 665 l 1
 402.5 668 463.9 688 489 698 c 1
 495.3 698 498 695 498 688 c 0
 490.3 626.7 488 574 488 500 c 2
 488 192 l 2
 488 117 497 43 505 0 c 1
 503 -3 l 1
 490 -1 452.1 0 439.5 0 c 0
 425 0 399.3 -1.3 386 -3 c 0
 380 -3 377 -2 377 0 c 2
 372 64 l 1
 370 64 l 1
EndSplineSet
LCarets2: 1 0 
Colour: ff00ff
EndChar

StartChar: uni1E10
Encoding: 7696 7696 145
Width: 751
VWidth: 999
Flags: HW
HStem: -181 25<103.659 200.933> -80 32<173.31 210.165> -2 44<168.546 432.266> 604 44<169.401 389.698>
VStem: 101 86<49.3073 594.385> 217 53<-146.949 -84.278> 552 103<179.784 425.325>
DStem2: 124 -80 173 -51 0.397156 0.917751<46.0754 95.3334>
LayerCount: 2
Fore
SplineSet
175 -80 m 0
 156 -80 146 -81 130 -86 c 1
 124 -80 l 1
 159.9 -0 l 1
 126.4 -0.3 92 -3 92 -3 c 2
 91 0 l 1
 99 54 101 125 101 200 c 2
 101 445 l 2
 101 520 99 588 91 645 c 1
 93 648 l 1
 93 648 131 645 165 645 c 0
 238 645 278 648 351 648 c 0
 543 648 708 494 708 308 c 0
 708 62 510 -2 369 -2 c 0
 279.7 -2 252.1 -0.5 194.1 -0.1 c 1
 173 -51 l 1
 181 -49 190 -48 199 -48 c 0
 239 -48 270 -72 270 -110 c 0
 270 -153 224 -181 163 -181 c 0
 131 -181 114 -175 89 -164 c 1
 99 -142 l 1
 126 -152 137 -156 157 -156 c 0
 187 -156 217 -142 217 -115 c 0
 217 -94 198 -80 175 -80 c 0
225 91 m 2
 225 59 240 51 338 51 c 0
 479 51 563 82 563 284 c 0
 563 438 529 595 313 595 c 0
 264 595 225 590 225 555 c 2
 225 91 l 2
EndSplineSet
LCarets2: 1 0 
Colour: ff00ff
EndChar

StartChar: uni1E11
Encoding: 7697 7697 146
Width: 561
VWidth: 999
Flags: HW
HStem: -177 25<200.659 297.933> -76 32<270.31 307.165> -10 66<206.415 316.415> -3 21<393 402.667 506.5 515> 385 54<211.48 348.898> 678 20<486.465 502.167>
VStem: 40 123<106.56 296.929> 314 53<-142.949 -80.278> 380 118<96.6489 355.244 417 667.981>
DStem2: 221 -76 270 -47 0.397156 0.917751<46.0754 95.3334>
LayerCount: 2
Fore
SplineSet
272 -76 m 0
 253 -76 243 -77 227 -82 c 1
 221 -76 l 1
 251.4 -8.2 l 1
 243.6 -9.4 235.5 -10 227 -10 c 0
 111 -10 44 80 44 203 c 0
 44 274.9 67 338 130 387 c 0
 174.7 421.8 218.7 439 296 439 c 0
 316 439 347 430 370 417 c 1
 370 474 l 2
 370 550 367.7 619.3 360 662 c 1
 362 665 l 1
 402.5 668 463.9 688 489 698 c 1
 495.3 698 498 695 498 688 c 0
 490.3 626.7 488 574 488 500 c 2
 488 192 l 2
 488 117 497 43 505 0 c 1
 503 -3 l 1
 490 -1 452.1 0 439.5 0 c 0
 425 0 399.3 -1.3 386 -3 c 0
 380 -3 377 -2 377 0 c 2
 372 64 l 1
 370 64 l 1
 341.8 36.9 317.5 16.5 291.1 4 c 1
 270 -47 l 1
 278 -45 287 -44 296 -44 c 0
 336 -44 367 -68 367 -106 c 0
 367 -149 321 -177 260 -177 c 0
 228 -177 211 -171 186 -160 c 1
 196 -138 l 1
 223 -148 234 -152 254 -152 c 0
 284 -152 314 -138 314 -111 c 0
 314 -90 295 -76 272 -76 c 0
370 118 m 1
 370 326 l 1
 346 364 322 385 275 385 c 0
 226.6 385 163 356 163 221 c 0
 163 96 209 56 263 56 c 0
 303.5 56 333.5 71.5 370 118 c 1
EndSplineSet
LCarets2: 1 0 
Colour: ff00ff
EndChar

StartChar: uni1E12
Encoding: 7698 7698 147
Width: 751
VWidth: 999
Flags: HW
HStem: -2 44<168.546 432.266> 604 44<169.401 389.698>
VStem: 101 86<49.3073 594.385> 140 253<-186 -186> 552 103<179.784 425.325>
LayerCount: 2
Fore
SplineSet
305 -54 m 1
 335 -103 373 -147 410 -188 c 1
 385 -207 l 1
 342 -181 313 -161 278 -124 c 1
 240 -163 212 -181 172 -207 c 1
 147 -188 l 1
 183 -147 223 -102 253 -54 c 1
 305 -54 l 1
225 91 m 2
 225 59 240 51 338 51 c 0
 479 51 563 82 563 284 c 0
 563 438 529 595 313 595 c 0
 264 595 225 590 225 555 c 2
 225 91 l 2
165 645 m 0
 238 645 278 648 351 648 c 0
 543 648 708 494 708 308 c 0
 708 62 510 -2 369 -2 c 0
 266 -2 245 0 165 0 c 0
 130 0 92 -3 92 -3 c 1
 91 0 l 1
 99 54 101 125 101 200 c 2
 101 445 l 2
 101 520 99 588 91 645 c 1
 93 648 l 1
 93 648 131 645 165 645 c 0
EndSplineSet
LCarets2: 1 0 
Colour: ff00ff
EndChar

StartChar: uni1E13
Encoding: 7699 7699 148
Width: 561
VWidth: 999
Flags: HW
HStem: -10 66<206.415 316.415> -3 21<393 402.667 506.5 515> 385 54<211.48 348.898> 678 20<486.465 502.167>
VStem: 40 123<106.56 296.929> 140 253<-186 -186> 380 118<96.6489 355.244 417 667.981>
LayerCount: 2
Fore
SplineSet
305 -54 m 1
 335 -103 373 -147 410 -188 c 1
 385 -207 l 1
 342 -181 313 -161 278 -124 c 1
 240 -163 212 -181 172 -207 c 1
 147 -188 l 1
 183 -147 223 -102 253 -54 c 1
 305 -54 l 1
370 118 m 1
 370 326 l 1
 346 364 322 385 275 385 c 0
 226.6 385 163 356 163 221 c 0
 163 96 209 56 263 56 c 0
 303.5 56 333.5 71.5 370 118 c 1
370 64 m 1
 321 17 284 -10 227 -10 c 0
 111 -10 44 80 44 203 c 0
 44 274.9 67 338 130 387 c 0
 174.7 421.8 218.7 439 296 439 c 0
 316 439 347 430 370 417 c 1
 370 474 l 2
 370 550 367.7 619.3 360 662 c 1
 362 665 l 1
 402.5 668 463.9 688 489 698 c 1
 495.3 698 498 695 498 688 c 0
 490.3 626.7 488 574 488 500 c 2
 488 192 l 2
 488 117 497 43 505 0 c 1
 503 -3 l 1
 490 -1 452.1 0 439.5 0 c 0
 425 0 399.3 -1.3 386 -3 c 0
 380 -3 377 -2 377 0 c 2
 372 64 l 1
 370 64 l 1
EndSplineSet
LCarets2: 1 0 
Colour: ff00ff
EndChar

StartChar: uni1E14
Encoding: 7700 7700 149
Width: 564
VWidth: 999
Flags: HW
HStem: 0 63<228.662 460.105> 316 51<224 440.426> 575 21<232 506> 587 58<228.662 453.27> 733 44<164.088 442.515>
VStem: 96 128<64.202 316 367 585.479> 163 281<733.205 777>
LayerCount: 2
Fore
SplineSet
447 730 m 2
 173 730 l 2
 162 730 158 739 158 748 c 0
 158 760 170 780 183 780 c 2
 459 780 l 2
 469 780 473 771 473 763 c 0
 473 750 461 730 447 730 c 2
220 200 m 2
 220 183 221 87 228 63 c 1
 362 63 514 75 514 75 c 1
 516 71 l 1
 515 63 514 46 514 36 c 0
 514 26 515 14 516 0 c 1
 514 -3 l 1
 498 -1 475 0 454 0 c 2
 160 0 l 2
 125 0 87 -3 87 -3 c 1
 86 0 l 1
 94 54 96 125 96 200 c 2
 96 445 l 2
 96 520 94 588 86 645 c 1
 88 648 l 1
 88 648 126 645 160 645 c 0
 190 645 444 645 444 645 c 2
 465 645 488 646 504 648 c 1
 506 645 l 1
 505 631 504 618 504 610 c 0
 504 601 505 587 506 579 c 1
 504 575 l 1
 504 575 362 587 228 587 c 1
 221 563 220 462 220 445 c 2
 220 367 l 1
 338 367 388 372 447 377 c 1
 450 374 l 1
 448 365 447 351 447 342 c 0
 447 333 448 318 450 309 c 1
 447 306 l 1
 378 313 268 316 220 316 c 1
 220 200 l 2
20.9 831.1 m 1
 114.1 757.2 l 2
 122.6 750.2 125.6 744.9 125.6 738.7 c 0
 125.6 729.9 121.8 725.5 114.1 725.5 c 0
 107.9 725.5 97.2 728.1 81 736 c 2
 -37.6 791.5 l 1
 20.9 831.1 l 1
EndSplineSet
LCarets2: 1 0 
Colour: ff00ff
EndChar

StartChar: uni1E15
Encoding: 7701 7701 150
Width: 459
VWidth: 999
Flags: HW
HStem: -10 68<217.975 371.091> 243 44<161 327.997> 390 49<203.391 308.5> 538 44<89.0876 367.515>
VStem: 32 126<127.31 243 287 299.028> 88 281<538.205 582> 328 127<254.5 342.567>
LayerCount: 2
Fore
SplineSet
226.2 767.9 m 1
 281.4 656.3 l 2
 284.6 650 288.6 640.1 288.6 632.9 c 0
 288.6 624.8 282.2 618.5 275 618.5 c 0
 268.6 618.5 260.7 623.1 247 636.5 c 2
 150.2 731 l 1
 151.8 740.9 l 1
 158.2 749 181.4 769.7 210.2 769.7 c 0
 214.2 769.7 223 768.8 226.2 767.9 c 1
372 535 m 2
 98 535 l 2
 87 535 83 544 83 553 c 0
 83 565 95 585 108 585 c 2
 384 585 l 2
 394 585 398 576 398 568 c 0
 398 555 386 535 372 535 c 2
152 277 m 1
 286 277 l 2
 296 277 300 292 300 301 c 0
 300 372 273 390 237 390 c 0
 206.3 390 160.7 364 152 277 c 1
399 107 m 1
 412.7 99.4 419 87 419 72 c 1
 381 20 311 -10 239 -10 c 0
 90 -10 34 91 34 199 c 0
 34 351 143 439 238 439 c 0
 370 439 422 346 422 250 c 0
 422 239 415 233 404 233 c 2
 150 233 l 1
 150 86 202 58 259 58 c 0
 314 58 364 69 399 107 c 1
EndSplineSet
LCarets2: 1 0 
Colour: ff00ff
EndChar

StartChar: uni1E16
Encoding: 7702 7702 151
Width: 564
VWidth: 999
Flags: HW
HStem: 0 63<228.662 460.105> 316 51<224 440.426> 575 21<232 506> 587 58<228.662 453.27> 724.5 107.4 733 44<107.088 385.515>
VStem: 96 128<64.202 316 367 585.479> 106 281<733.205 777> 428.1 154.8
LayerCount: 2
Fore
SplineSet
390 730 m 2
 116 730 l 2
 105 730 101 739 101 748 c 0
 101 760 113 780 126 780 c 2
 402 780 l 2
 412 780 416 771 416 763 c 0
 416 750 404 730 390 730 c 2
220 200 m 2
 220 183 221 87 228 63 c 1
 362 63 514 75 514 75 c 1
 516 71 l 1
 515 63 514 46 514 36 c 0
 514 26 515 14 516 0 c 1
 514 -3 l 1
 498 -1 475 0 454 0 c 2
 160 0 l 2
 125 0 87 -3 87 -3 c 1
 86 0 l 1
 94 54 96 125 96 200 c 2
 96 445 l 2
 96 520 94 588 86 645 c 1
 88 648 l 1
 88 648 126 645 160 645 c 0
 190 645 444 645 444 645 c 2
 465 645 488 646 504 648 c 1
 506 645 l 1
 505 631 504 618 504 610 c 0
 504 601 505 587 506 579 c 1
 504 575 l 1
 504 575 362 587 228 587 c 1
 221 563 220 462 220 445 c 2
 220 367 l 1
 338 367 388 372 447 377 c 1
 450 374 l 1
 448 365 447 351 447 342 c 0
 447 333 448 318 450 309 c 1
 447 306 l 1
 378 313 268 316 220 316 c 1
 220 200 l 2
535.1 831.9 m 1
 582.9 786.1 l 1
 472 735 l 2
 455.8 727.1 445.8 724.5 438.9 724.5 c 0
 432 724.5 428.1 728.9 428.1 737.7 c 0
 428.1 743.9 429.6 748.3 439.6 756.2 c 2
 535.1 831.9 l 1
EndSplineSet
LCarets2: 1 0 
Colour: ff00ff
EndChar

StartChar: uni1E17
Encoding: 7703 7703 152
Width: 459
VWidth: 999
Flags: HW
HStem: -10 68<217.975 371.091> 243 44<161 327.997> 390 49<203.391 308.5> 538 44<89.0876 367.515>
VStem: 32 126<127.31 243 287 299.028> 88 281<538.205 582> 328 127<254.5 342.567>
LayerCount: 2
Fore
SplineSet
272 761.9 m 1
 274.4 762.8 280.8 763.7 284.8 763.7 c 0
 308.8 763.7 324 751.1 330.4 742.1 c 1
 338.4 721.4 l 1
 242.4 624.2 l 2
 231.2 613.4 220 609.8 212 609.8 c 0
 205.6 609.8 199.2 617 199.2 622.4 c 0
 199.2 627.8 200.8 635.9 205.6 644 c 2
 272 761.9 l 1
372 535 m 2
 98 535 l 2
 87 535 83 544 83 553 c 0
 83 565 95 585 108 585 c 2
 384 585 l 2
 394 585 398 576 398 568 c 0
 398 555 386 535 372 535 c 2
152 277 m 1
 286 277 l 2
 296 277 300 292 300 301 c 0
 300 372 273 390 237 390 c 0
 206.3 390 160.7 364 152 277 c 1
399 107 m 1
 412.7 99.4 419 87 419 72 c 1
 381 20 311 -10 239 -10 c 0
 90 -10 34 91 34 199 c 0
 34 351 143 439 238 439 c 0
 370 439 422 346 422 250 c 0
 422 239 415 233 404 233 c 2
 150 233 l 1
 150 86 202 58 259 58 c 0
 314 58 364 69 399 107 c 1
EndSplineSet
LCarets2: 1 0 
Colour: ff00ff
EndChar

StartChar: uni1E18
Encoding: 7704 7704 153
Width: 564
VWidth: 999
Flags: HW
HStem: 0 63<228.662 460.105> 316 51<224 440.426> 575 21<232 506> 587 58<228.662 453.27>
VStem: 96 128<64.202 316 367 585.479> 148 253<-186 -186>
LayerCount: 2
Fore
SplineSet
313 -54 m 1
 343 -103 381 -147 418 -188 c 1
 393 -207 l 1
 350 -181 321 -161 286 -124 c 1
 248 -163 220 -181 180 -207 c 1
 155 -188 l 1
 191 -147 231 -102 261 -54 c 1
 313 -54 l 1
220 200 m 2
 220 183 221 87 228 63 c 1
 362 63 514 75 514 75 c 1
 516 71 l 1
 515 63 514 46 514 36 c 0
 514 26 515 14 516 0 c 1
 514 -3 l 1
 498 -1 475 0 454 0 c 2
 160 0 l 2
 125 0 87 -3 87 -3 c 1
 86 0 l 1
 94 54 96 125 96 200 c 2
 96 445 l 2
 96 520 94 588 86 645 c 1
 88 648 l 1
 88 648 126 645 160 645 c 0
 190 645 444 645 444 645 c 2
 465 645 488 646 504 648 c 1
 506 645 l 1
 505 631 504 618 504 610 c 0
 504 601 505 587 506 579 c 1
 504 575 l 1
 504 575 362 587 228 587 c 1
 221 563 220 462 220 445 c 2
 220 367 l 1
 338 367 388 372 447 377 c 1
 450 374 l 1
 448 365 447 351 447 342 c 0
 447 333 448 318 450 309 c 1
 447 306 l 1
 378 313 268 316 220 316 c 1
 220 200 l 2
EndSplineSet
LCarets2: 1 0 
Colour: ff00ff
EndChar

StartChar: uni1E19
Encoding: 7705 7705 154
Width: 459
VWidth: 999
Flags: HW
HStem: -10 68<217.975 371.091> 243 44<161 327.997> 390 49<203.391 308.5>
VStem: 32 126<127.31 243 287 299.028> 93 253<-186 -186> 328 127<254.5 342.567>
LayerCount: 2
Fore
SplineSet
258 -54 m 1
 288 -103 326 -147 363 -188 c 1
 338 -207 l 1
 295 -181 266 -161 231 -124 c 1
 193 -163 165 -181 125 -207 c 1
 100 -188 l 1
 136 -147 176 -102 206 -54 c 1
 258 -54 l 1
152 277 m 1
 286 277 l 2
 296 277 300 292 300 301 c 0
 300 372 273 390 237 390 c 0
 206.3 390 160.7 364 152 277 c 1
399 107 m 1
 412.7 99.4 419 87 419 72 c 1
 381 20 311 -10 239 -10 c 0
 90 -10 34 91 34 199 c 0
 34 351 143 439 238 439 c 0
 370 439 422 346 422 250 c 0
 422 239 415 233 404 233 c 2
 150 233 l 1
 150 86 202 58 259 58 c 0
 314 58 364 69 399 107 c 1
EndSplineSet
LCarets2: 1 0 
Colour: ff00ff
EndChar

StartChar: uni1E1A
Encoding: 7706 7706 155
Width: 564
VWidth: 999
Flags: HW
HStem: -164 44<285 372> -116 46<167 258> -77 10 0 63<228.662 460.105> 316 51<224 440.426> 575 21<232 506> 587 58<228.662 453.27>
VStem: 96 128<64.202 316 367 585.479>
LayerCount: 2
Fore
SplineSet
351 -116 m 0
 373 -116 386 -107 400 -58 c 1
 428 -68 l 1
 415 -136 385 -176 337 -176 c 0
 314 -176 292 -161 272 -146 c 1
 252 -133 232 -120 214 -120 c 0
 187 -120 176 -135 165 -173 c 1
 139 -165 l 1
 153 -97 177 -59 222 -59 c 0
 253 -59 276 -75 296 -91 c 0
 314 -105 331 -116 351 -116 c 0
220 200 m 2
 220 183 221 87 228 63 c 1
 362 63 514 75 514 75 c 1
 516 71 l 1
 515 63 514 46 514 36 c 0
 514 26 515 14 516 0 c 1
 514 -3 l 1
 498 -1 475 0 454 0 c 2
 160 0 l 2
 125 0 87 -3 87 -3 c 1
 86 0 l 1
 94 54 96 125 96 200 c 2
 96 445 l 2
 96 520 94 588 86 645 c 1
 88 648 l 1
 88 648 126 645 160 645 c 0
 190 645 444 645 444 645 c 2
 465 645 488 646 504 648 c 1
 506 645 l 1
 505 631 504 618 504 610 c 0
 504 601 505 587 506 579 c 1
 504 575 l 1
 504 575 362 587 228 587 c 1
 221 563 220 462 220 445 c 2
 220 367 l 1
 338 367 388 372 447 377 c 1
 450 374 l 1
 448 365 447 351 447 342 c 0
 447 333 448 318 450 309 c 1
 447 306 l 1
 378 313 268 316 220 316 c 1
 220 200 l 2
EndSplineSet
LCarets2: 1 0 
Colour: ff00ff
EndChar

StartChar: uni1E1B
Encoding: 7707 7707 156
Width: 459
VWidth: 999
Flags: HW
HStem: -162 44<235 322> -114 46<117 208> -75 10 -10 68<217.975 371.091> 243 44<161 327.997> 390 49<203.391 308.5>
VStem: 32 126<127.31 243 287 299.028> 328 127<254.5 342.567>
LayerCount: 2
Fore
SplineSet
301 -114 m 0
 323 -114 336 -105 350 -56 c 1
 378 -66 l 1
 365 -134 335 -174 287 -174 c 0
 264 -174 242 -159 222 -144 c 1
 202 -131 182 -118 164 -118 c 0
 137 -118 126 -133 115 -171 c 1
 89 -163 l 1
 103 -95 127 -57 172 -57 c 0
 203 -57 226 -73 246 -89 c 0
 264 -103 281 -114 301 -114 c 0
152 277 m 1
 286 277 l 2
 296 277 300 292 300 301 c 0
 300 372 273 390 237 390 c 0
 206.3 390 160.7 364 152 277 c 1
399 107 m 1
 412.7 99.4 419 87 419 72 c 1
 381 20 311 -10 239 -10 c 0
 90 -10 34 91 34 199 c 0
 34 351 143 439 238 439 c 0
 370 439 422 346 422 250 c 0
 422 239 415 233 404 233 c 2
 150 233 l 1
 150 86 202 58 259 58 c 0
 314 58 364 69 399 107 c 1
EndSplineSet
LCarets2: 1 0 
Colour: ff00ff
EndChar

StartChar: uni1E1C
Encoding: 7708 7708 157
Width: 564
VWidth: 999
Flags: HW
HStem: -181 25<194.659 291.933> -80 32<264.31 301.165> 0 63<228.662 460.105> 316 51<224 440.426> 575 21<232 506> 587 58<228.662 453.27> 692 52<221 377>
VStem: 96 128<64.202 316 367 585.479> 164 28<765 803> 308 53<-146.949 -84.278> 408 27<767 805>
DStem2: 215 -80 264 -51 0.397156 0.917751<46.0754 95.3334>
LayerCount: 2
Fore
SplineSet
435 805 m 1
 429 734 366 692 300 692 c 0
 227 692 169 735 164 805 c 1
 192 805 l 1
 200 766 247 744 300 744 c 0
 349 744 401 766 408 805 c 1
 435 805 l 1
266 -80 m 0
 247 -80 237 -81 221 -86 c 1
 215 -80 l 1
 250.9 -0 l 1
 160 0 l 2
 125 0 87 -3 87 -3 c 1
 86 0 l 1
 94 54 96 125 96 200 c 2
 96 445 l 2
 96 520 94 588 86 645 c 1
 88 648 l 1
 88 648 126 645 160 645 c 0
 190 645 444 645 444 645 c 2
 465 645 488 646 504 648 c 1
 506 645 l 1
 505 631 504 618 504 610 c 0
 504 601 505 587 506 579 c 1
 504 575 l 1
 504 575 362 587 228 587 c 1
 221 563 220 462 220 445 c 2
 220 367 l 1
 338 367 388 372 447 377 c 1
 450 374 l 1
 448 365 447 351 447 342 c 0
 447 333 448 318 450 309 c 1
 447 306 l 1
 378 313 268 316 220 316 c 1
 220 200 l 2
 220 183 221 87 228 63 c 1
 362 63 514 75 514 75 c 1
 516 71 l 1
 515 63 514 46 514 36 c 0
 514 26 515 14 516 0 c 1
 514 -3 l 1
 498 -1 475 0 454 0 c 2
 285.1 -0 l 1
 264 -51 l 1
 272 -49 281 -48 290 -48 c 0
 330 -48 361 -72 361 -110 c 0
 361 -153 315 -181 254 -181 c 0
 222 -181 205 -175 180 -164 c 1
 190 -142 l 1
 217 -152 228 -156 248 -156 c 0
 278 -156 308 -142 308 -115 c 0
 308 -94 289 -80 266 -80 c 0
EndSplineSet
LCarets2: 1 0 
Colour: ff00ff
EndChar

StartChar: uni1E1D
Encoding: 7709 7709 158
Width: 459
VWidth: 999
Flags: HW
HStem: -186 25<146.659 243.933> -85 32<216.31 253.165> -10 68<217.975 371.091> 243 44<161 327.997> 390 49<203.391 308.5> 501 57<148.968 285.898>
VStem: 32 126<127.31 243 287 299.028> 83 26<607.805 639.769> 260 53<-151.949 -89.278> 326 27<609.333 639.63> 328 127<254.5 342.567>
DStem2: 167 -85 216 -56 0.397156 0.917751<46.0754 95.3334>
LayerCount: 2
Fore
SplineSet
123 653 m 1
 125 599 168 559 231 559 c 0
 278 559 335 589 338 653 c 1
 370 638 l 1
 360 533 282 495 231 495 c 0
 150 495 97 557 90 638 c 1
 123 653 l 1
218 -85 m 0
 199 -85 189 -86 173 -91 c 1
 167 -85 l 1
 201.7 -7.7 l 1
 80.6 7.9 34 100.5 34 199 c 0
 34 351 143 439 238 439 c 0
 370 439 422 346 422 250 c 0
 422 239 415 233 404 233 c 2
 150 233 l 1
 150 86 202 58 259 58 c 0
 314 58 364 69 399 107 c 1
 412.7 99.4 419 87 419 72 c 1
 381 20 311 -10 239 -10 c 0
 237.7 -10 236.3 -10 235 -10 c 1
 216 -56 l 1
 224 -54 233 -53 242 -53 c 0
 282 -53 313 -77 313 -115 c 0
 313 -158 267 -186 206 -186 c 0
 174 -186 157 -180 132 -169 c 1
 142 -147 l 1
 169 -157 180 -161 200 -161 c 0
 230 -161 260 -147 260 -120 c 0
 260 -99 241 -85 218 -85 c 0
152 277 m 1
 286 277 l 2
 296 277 300 292 300 301 c 0
 300 372 273 390 237 390 c 0
 206.3 390 160.7 364 152 277 c 1
EndSplineSet
LCarets2: 1 0 
Colour: ff00ff
EndChar

StartChar: uni1E1E
Encoding: 7710 7710 159
Width: 519
VWidth: 999
Flags: HW
HStem: -3 21<88 162 162 236> 316 51<226 442.426> 575 21<234 508> 587 58<230.662 455.27> 713 138<254.092 353.908>
VStem: 98 128<2.67992 316 367 585.479> 235 138<732.092 831.908>
LayerCount: 2
Fore
SplineSet
239 782 m 0
 239 818 268 847 304 847 c 0
 340 847 369 818 369 782 c 0
 369 746 340 717 304 717 c 0
 268 717 239 746 239 782 c 0
443 645 m 2
 467 645 490 646 506 648 c 1
 508 645 l 1
 507 631 506 618 506 610 c 0
 506 601 507 587 508 579 c 1
 506 575 l 1
 506 575 364 587 230 587 c 1
 223 563 222 462 222 445 c 2
 222 367 l 1
 340 367 390 372 449 377 c 1
 452 374 l 1
 450 365 449 351 449 342 c 0
 449 333 450 318 452 309 c 1
 449 306 l 1
 380 313 270 316 222 316 c 1
 222 200 l 2
 222 125 224 57 232 0 c 1
 230 -3 l 1
 230 -3 196 0 162 0 c 0
 127 0 89 -3 89 -3 c 1
 88 0 l 1
 96 54 98 125 98 200 c 2
 98 445 l 2
 98 520 96 588 88 645 c 1
 90 648 l 1
 90 648 128 645 162 645 c 2
 443 645 l 2
EndSplineSet
LCarets2: 1 0 
Colour: ff00ff
EndChar

StartChar: uni1E1F
Encoding: 7711 7711 160
Width: 346
VWidth: 999
Flags: HW
HStem: -3 21<83 152 152 221> 376 53<22 93 211 327> 629 69<236.91 356.128> 745 138<223.092 322.908>
VStem: 93 118<2.67992 376 429 556.375> 204 138<764.092 863.908>
LayerCount: 2
Fore
SplineSet
208 814 m 0
 208 850 237 879 273 879 c 0
 309 879 338 850 338 814 c 0
 338 778 309 749 273 749 c 0
 237 749 208 778 208 814 c 0
162 629 m 0
 204 672.9 260 698 340 698 c 0
 359 698 377 694 385 689 c 1
 386 686 l 1
 375 667 370 612 363 585 c 1
 343 584 l 1
 332 604 318 629 289 629 c 0
 235 629 206 590.2 206 535 c 0
 206 513 211 464.5 211 439 c 2
 211 429 l 1
 319 429 l 2
 324 429 327 427 327 423 c 2
 327 396 l 2
 327 387 313 383 304 383 c 2
 211 383 l 1
 211 200 l 2
 211 125 212 58 219 0 c 1
 217 -3 l 1
 217 -3 186.3 0 152 0 c 0
 117 0 87 -3 87 -3 c 1
 86 0 l 1
 93 51 93 125 93 200 c 2
 93 383 l 1
 27 383 l 2
 23 383 22 384 22 389 c 2
 22 409 l 2
 22 417 27 429 45 429 c 2
 93 429 l 1
 93 459 l 2
 93 520 118 583 162 629 c 0
EndSplineSet
LCarets2: 1 0 
Colour: ff00ff
EndChar

StartChar: uni1E20
Encoding: 7712 7712 161
Width: 750
VWidth: 999
Flags: HW
HStem: -10 46<295.106 519.78> 611 47<271.555 476.844> 733 44<227.088 505.515>
VStem: 32 103<213.43 430.807> 226 281<733.205 777> 546 86<83.5114 304.327>
LayerCount: 2
Fore
SplineSet
510 730 m 2
 236 730 l 2
 225 730 221 739 221 748 c 0
 221 760 233 780 246 780 c 2
 522 780 l 2
 532 780 536 771 536 763 c 0
 536 750 524 730 510 730 c 2
546 117 m 2
 546 192 544 250 536 307 c 1
 538 310 l 1
 538 310 576 307 610 307 c 0
 645 307 683 310 683 310 c 1
 684 307 l 1
 676 254 674 212 674 137 c 0
 674 104.6 677.9 90.5 684 83 c 1
 684 80 l 1
 616.5 23.4 503.5 -10 387 -10 c 0
 186 -10 39 134 39 307 c 0
 39 420 80.4 515.5 155 575 c 0
 224 630 302 658 402 658 c 0
 524 658 641 613 641 613 c 1
 643 610 l 1
 631.2 560.7 626.6 531 623 480 c 1
 603 479 l 1
 562 561 478 602 388 602 c 0
 253 602 177 488 177 327 c 0
 177 195 244 45 410 45 c 0
 464 45 512 51 546 83 c 1
 546 117 l 2
EndSplineSet
LCarets2: 1 0 
Colour: ff00ff
EndChar

StartChar: uni1E21
Encoding: 7713 7713 162
Width: 521
VWidth: 999
Flags: HW
HStem: -238 52<165.403 337.345> -15 71<189.385 255.344> -12 75<193.809 365.944> 136 53<191.222 298.809> 386 53<186.378 295.332> 538 44<102.088 380.515>
VStem: 32 108<-160.17 -57.419> 59 110<212.61 356.406> 64 77<60.4446 149.891> 101 281<538.205 582> 318 108<216.393 350.483> 392 103<-131.841 -37.3755>
LayerCount: 2
Fore
SplineSet
385 535 m 2
 111 535 l 2
 100 535 96 544 96 553 c 0
 96 565 108 585 121 585 c 2
 397 585 l 2
 407 585 411 576 411 568 c 0
 411 555 399 535 385 535 c 2
432 289 m 0
 432 195.9 359 141 243 141 c 0
 188.5 141 179.3 148.9 165 154.9 c 1
 154 137.9 151 127 151 107 c 0
 151 64 181 59 209 59 c 0
 214 59 214 60 228 61 c 0
 251 64 274 66 291 66 c 0
 383 66 495 46 495 -68 c 0
 495 -176 334 -238 205 -238 c 0
 132 -238 32 -211 32 -124 c 0
 32 -99.2 37 -68 54 -46 c 1
 78 -32 98.4 -16.6 120 -3 c 1
 91 5 54 32 54 74 c 0
 54 108 92 144 128 165 c 1
 100.2 183 l 1
 78 201 49 226.9 49 287 c 0
 49 383 126 439 234 439 c 0
 255.5 439 285.4 436 303.3 430.4 c 1
 377.9 434.3 434.2 434.9 482 439 c 1
 485 436 l 1
 483 427 482 416 482 407 c 0
 482 398 483 389 485 380 c 1
 482 377 l 1
 447.2 379.4 410.7 385.1 380.9 385.6 c 1
 412 364.6 432 323.5 432 289 c 0
316 279 m 0
 316 354 293 400 233 400 c 0
 181 400 167 347 167 302 c 0
 167 238 177 181 243 181 c 0
 278 181 316 208 316 279 c 0
165 -15 m 1
 139 -42 131 -70.9 131 -104 c 0
 131 -172 199 -196 233 -196 c 0
 319 -196 380 -152 380 -91 c 0
 380 -21.8 312 -17 256 -17 c 0
 242.2 -17 215.5 -18 186 -18 c 0
 177 -18 171.4 -15.8 165 -15 c 1
EndSplineSet
LCarets2: 1 0 
Colour: ff00ff
EndChar

StartChar: uni1E22
Encoding: 7714 7714 163
Width: 748
VWidth: 999
Flags: HW
HStem: -3 21<93 167 167 241 501 575 575 649> 311 52<217 543> 628 20<93 167 167 241 501 575 575 649> 706 138<323.092 422.908>
VStem: 103 128<2.67992 642.32> 304 138<725.092 824.908> 511 128<2.67992 642.32>
LayerCount: 2
Fore
SplineSet
511 445 m 2
 511 520 509 588 501 645 c 1
 503 648 l 1
 503 648 539 645 573 645 c 0
 608 645 644 648 644 648 c 1
 645 645 l 1
 637 592 635 520 635 445 c 2
 635 200 l 2
 635 125 637 57 645 0 c 1
 643 -3 l 1
 643 -3 607 0 573 0 c 0
 538 0 502 -3 502 -3 c 1
 501 0 l 1
 509 54 511 125 511 200 c 2
 511 311 l 1
 227 311 l 1
 227 200 l 2
 227 125 229 57 237 0 c 1
 235 -3 l 1
 235 -3 199 0 165 0 c 0
 130 0 94 -3 94 -3 c 1
 93 0 l 1
 101 54 103 125 103 200 c 2
 103 445 l 2
 103 520 101 588 93 645 c 1
 95 648 l 1
 95 648 131 645 165 645 c 0
 200 645 236 648 236 648 c 1
 237 645 l 1
 229 592 227 520 227 445 c 2
 227 363 l 1
 511 363 l 1
 511 445 l 2
308 775 m 0
 308 811 337 840 373 840 c 0
 409 840 438 811 438 775 c 0
 438 739 409 710 373 710 c 0
 337 710 308 739 308 775 c 0
EndSplineSet
LCarets2: 1 0 
Colour: ff00ff
EndChar

StartChar: uni1E23
Encoding: 7715 7715 164
Width: 570
VWidth: 999
Flags: HW
HStem: -3 21<73 142 142 211 386 455 455 524> 373 66<277.694 380.574> 532 138<257.092 356.908> 678 20<189.465 205.167>
VStem: 83 118<2.6647 318.568 360 667.98> 238 138<551.092 650.908> 396 118<2.66453 358.781>
LayerCount: 2
Fore
SplineSet
242 601 m 0
 242 637 271 666 307 666 c 0
 343 666 372 637 372 601 c 0
 372 565 343 536 307 536 c 0
 271 536 242 565 242 601 c 0
376 180 m 2
 376 276 l 2
 376 357 361.1 373 315 373 c 0
 286 373 245 346 201 300 c 1
 201 180 l 2
 201 104 202 56 209 0 c 1
 207 -3 l 1
 207 -3 176.3 0 142 0 c 0
 107 0 74 -3 74 -3 c 1
 73 0 l 1
 81.5 53.5 83 105 83 180 c 2
 83 473 l 2
 83 549 80.7 619.3 73 662 c 1
 75 665 l 1
 115.5 668 176.9 688 202 698 c 1
 208.3 698 211 695 211 688 c 0
 203.3 626.7 201 575 201 501 c 2
 201 360 l 1
 279 429 317 439 356 439 c 0
 396 439 422.9 431.4 449 412 c 0
 484 386 494 340 494 284 c 2
 494 180 l 2
 494 103.8 495.5 57 504 0 c 1
 502 -3 l 1
 502 -3 469.3 0 435 0 c 0
 400 0 369 -3 369 -3 c 1
 368 0 l 1
 374 53 376 105 376 180 c 2
EndSplineSet
LCarets2: 1 0 
Colour: ff00ff
EndChar

StartChar: uni1E24
Encoding: 7716 7716 165
Width: 748
VWidth: 999
Flags: HW
HStem: -154 138<323.092 422.908> -3 21<93 167 167 241 501 575 575 649> 311 52<217 543> 628 20<93 167 167 241 501 575 575 649>
VStem: 103 128<2.67992 642.32> 304 138<-134.908 -35.092> 511 128<2.67992 642.32>
LayerCount: 2
Fore
SplineSet
511 445 m 2
 511 520 509 588 501 645 c 1
 503 648 l 1
 503 648 539 645 573 645 c 0
 608 645 644 648 644 648 c 1
 645 645 l 1
 637 592 635 520 635 445 c 2
 635 200 l 2
 635 125 637 57 645 0 c 1
 643 -3 l 1
 643 -3 607 0 573 0 c 0
 538 0 502 -3 502 -3 c 1
 501 0 l 1
 509 54 511 125 511 200 c 2
 511 311 l 1
 227 311 l 1
 227 200 l 2
 227 125 229 57 237 0 c 1
 235 -3 l 1
 235 -3 199 0 165 0 c 0
 130 0 94 -3 94 -3 c 1
 93 0 l 1
 101 54 103 125 103 200 c 2
 103 445 l 2
 103 520 101 588 93 645 c 1
 95 648 l 1
 95 648 131 645 165 645 c 0
 200 645 236 648 236 648 c 1
 237 645 l 1
 229 592 227 520 227 445 c 2
 227 363 l 1
 511 363 l 1
 511 445 l 2
308 -85 m 0
 308 -49 337 -20 373 -20 c 0
 409 -20 438 -49 438 -85 c 0
 438 -121 409 -150 373 -150 c 0
 337 -150 308 -121 308 -85 c 0
EndSplineSet
LCarets2: 1 0 
Colour: ff00ff
EndChar

StartChar: uni1E25
Encoding: 7717 7717 166
Width: 570
VWidth: 999
Flags: HW
HStem: -155 138<229.092 328.908> -3 21<73 142 142 211 386 455 455 524> 373 66<277.694 380.574> 678 20<189.465 205.167>
VStem: 83 118<2.6647 318.568 360 667.98> 210 138<-135.908 -36.0922> 396 118<2.66453 358.781>
LayerCount: 2
Fore
SplineSet
214 -86 m 0
 214 -50 243 -21 279 -21 c 0
 315 -21 344 -50 344 -86 c 0
 344 -122 315 -151 279 -151 c 0
 243 -151 214 -122 214 -86 c 0
376 180 m 2
 376 276 l 2
 376 357 361.1 373 315 373 c 0
 286 373 245 346 201 300 c 1
 201 180 l 2
 201 104 202 56 209 0 c 1
 207 -3 l 1
 207 -3 176.3 0 142 0 c 0
 107 0 74 -3 74 -3 c 1
 73 0 l 1
 81.5 53.5 83 105 83 180 c 2
 83 473 l 2
 83 549 80.7 619.3 73 662 c 1
 75 665 l 1
 115.5 668 176.9 688 202 698 c 1
 208.3 698 211 695 211 688 c 0
 203.3 626.7 201 575 201 501 c 2
 201 360 l 1
 279 429 317 439 356 439 c 0
 396 439 422.9 431.4 449 412 c 0
 484 386 494 340 494 284 c 2
 494 180 l 2
 494 103.8 495.5 57 504 0 c 1
 502 -3 l 1
 502 -3 469.3 0 435 0 c 0
 400 0 369 -3 369 -3 c 1
 368 0 l 1
 374 53 376 105 376 180 c 2
EndSplineSet
LCarets2: 1 0 
Colour: ff00ff
EndChar

StartChar: uni1E26
Encoding: 7718 7718 167
Width: 748
VWidth: 999
Flags: HW
HStem: -3 21<93 167 167 241 501 575 575 649> 311 52<217 543> 628 20<93 167 167 241 501 575 575 649> 704 90<216.481 293.519 406.301 482.653>
VStem: 103 128<2.67992 642.32> 210 90<710.481 787.519> 399 91<711.347 787.699> 511 128<2.67992 642.32>
LayerCount: 2
Fore
SplineSet
511 445 m 2
 511 520 509 588 501 645 c 1
 503 648 l 1
 503 648 539 645 573 645 c 0
 608 645 644 648 644 648 c 1
 645 645 l 1
 637 592 635 520 635 445 c 2
 635 200 l 2
 635 125 637 57 645 0 c 1
 643 -3 l 1
 643 -3 607 0 573 0 c 0
 538 0 502 -3 502 -3 c 1
 501 0 l 1
 509 54 511 125 511 200 c 2
 511 311 l 1
 227 311 l 1
 227 200 l 2
 227 125 229 57 237 0 c 1
 235 -3 l 1
 235 -3 199 0 165 0 c 0
 130 0 94 -3 94 -3 c 1
 93 0 l 1
 101 54 103 125 103 200 c 2
 103 445 l 2
 103 520 101 588 93 645 c 1
 95 648 l 1
 95 648 131 645 165 645 c 0
 200 645 236 648 236 648 c 1
 237 645 l 1
 229 592 227 520 227 445 c 2
 227 363 l 1
 511 363 l 1
 511 445 l 2
399 750 m 0
 399 774 420 795 444 795 c 0
 469 795 490 774 490 750 c 0
 490 725 469 704 444 704 c 0
 420 704 399 725 399 750 c 0
210 749 m 0
 210 774 230 794 255 794 c 0
 280 794 300 774 300 749 c 0
 300 724 280 704 255 704 c 0
 230 704 210 724 210 749 c 0
EndSplineSet
LCarets2: 1 0 
Colour: ff00ff
EndChar

StartChar: uni1E27
Encoding: 7719 7719 168
Width: 570
VWidth: 999
Flags: HW
HStem: -3 21<73 142 142 211 366 435 435 504> 373 66<270.645 360.574> 527 91<215.053 290.947 352.053 428.653> 678 20<189.465 205.167>
VStem: 83 118<2.6647 320.474 360 667.98> 208 90<533.481 611.246> 345 91<534.053 610.653> 376 118<2.66453 358.781>
LayerCount: 2
Fore
SplineSet
345 572 m 0
 345 597 365 618 390 618 c 0
 415 618 436 597 436 572 c 0
 436 547 415 527 390 527 c 0
 365 527 345 547 345 572 c 0
208 572 m 0
 208 597 228 618 253 618 c 0
 278 618 298 597 298 572 c 0
 298 547 278 527 253 527 c 0
 228 527 208 547 208 572 c 0
376 180 m 2
 376 276 l 2
 376 357 361.1 373 315 373 c 0
 286 373 245 346 201 300 c 1
 201 180 l 2
 201 104 202 56 209 0 c 1
 207 -3 l 1
 207 -3 176.3 0 142 0 c 0
 107 0 74 -3 74 -3 c 1
 73 0 l 1
 81.5 53.5 83 105 83 180 c 2
 83 473 l 2
 83 549 80.7 619.3 73 662 c 1
 75 665 l 1
 115.5 668 176.9 688 202 698 c 1
 208.3 698 211 695 211 688 c 0
 203.3 626.7 201 575 201 501 c 2
 201 360 l 1
 279 429 317 439 356 439 c 0
 396 439 422.9 431.4 449 412 c 0
 484 386 494 340 494 284 c 2
 494 180 l 2
 494 103.8 495.5 57 504 0 c 1
 502 -3 l 1
 502 -3 469.3 0 435 0 c 0
 400 0 369 -3 369 -3 c 1
 368 0 l 1
 374 53 376 105 376 180 c 2
EndSplineSet
LCarets2: 1 0 
Colour: ff80cc
EndChar

StartChar: uni1E28
Encoding: 7720 7720 169
Width: 748
VWidth: 999
Flags: HW
HStem: -177 25<83.659 180.933> -76 32<153.31 190.165> -3 21<93 167 167 241 501 575 575 649> 311 52<217 543> 628 20<93 167 167 241 501 575 575 649>
VStem: 103 128<2.67992 642.32> 197 53<-142.949 -80.278> 511 128<2.67992 642.32>
DStem2: 104 -76 153 -47 0.397156 0.917751<46.0754 95.3334>
LayerCount: 2
Fore
SplineSet
511 445 m 2
 511 520 509 588 501 645 c 1
 503 648 l 1
 503 648 539 645 573 645 c 0
 608 645 644 648 644 648 c 1
 645 645 l 1
 637 592 635 520 635 445 c 2
 635 200 l 2
 635 125 637 57 645 0 c 1
 643 -3 l 1
 643 -3 607 0 573 0 c 0
 538 0 502 -3 502 -3 c 1
 501 0 l 1
 509 54 511 125 511 200 c 2
 511 311 l 1
 227 311 l 1
 227 200 l 2
 227 125 229 57 237 0 c 1
 235 -3 l 1
 235 -3 204 -0.4 172.4 -0 c 1
 153 -47 l 1
 161 -45 170 -44 179 -44 c 0
 219 -44 250 -68 250 -106 c 0
 250 -149 204 -177 143 -177 c 0
 111 -177 94 -171 69 -160 c 1
 79 -138 l 1
 106 -148 117 -152 137 -152 c 0
 167 -152 197 -138 197 -111 c 0
 197 -90 178 -76 155 -76 c 0
 136 -76 126 -77 110 -82 c 1
 104 -76 l 1
 137.8 -0.5 l 1
 113.5 -1.4 94 -3 94 -3 c 2
 93 0 l 1
 101 54 103 125 103 200 c 2
 103 445 l 2
 103 520 101 588 93 645 c 1
 95 648 l 1
 95 648 131 645 165 645 c 0
 200 645 236 648 236 648 c 1
 237 645 l 1
 229 592 227 520 227 445 c 2
 227 363 l 1
 511 363 l 1
 511 445 l 2
EndSplineSet
LCarets2: 1 0 
Colour: ff00ff
EndChar

StartChar: uni1E29
Encoding: 7721 7721 170
Width: 570
VWidth: 999
Flags: HW
HStem: -175 25<54.659 151.933> -74 32<124.31 161.165> -3 21<73 142 142 211 386 455 455 524> 373 66<277.694 380.574> 678 20<189.465 205.167>
VStem: 83 118<2.6647 318.568 360 667.98> 168 53<-140.949 -78.278> 396 118<2.66453 358.781>
DStem2: 75 -74 124 -45 0.397156 0.917751<46.0754 95.3334>
LayerCount: 2
Fore
SplineSet
126 -74 m 0
 107 -74 97 -75 81 -80 c 1
 75 -74 l 1
 107.8 -0.8 l 1
 88.2 -1.7 74 -3 74 -3 c 1
 73 0 l 1
 81.5 53.5 83 105 83 180 c 2
 83 473 l 2
 83 549 80.7 619.3 73 662 c 1
 75 665 l 1
 115.5 668 176.9 688 202 698 c 1
 208.3 698 211 695 211 688 c 0
 203.3 626.7 201 575 201 501 c 2
 201 360 l 1
 279 429 317 439 356 439 c 0
 396 439 422.9 431.4 449 412 c 0
 484 386 494 340 494 284 c 2
 494 180 l 2
 494 103.8 495.5 57 504 0 c 1
 502 -3 l 1
 502 -3 469.3 0 435 0 c 0
 400 0 369 -3 369 -3 c 1
 368 0 l 1
 374 53 376 105 376 180 c 2
 376 276 l 2
 376 357 361.1 373 315 373 c 0
 286 373 245 346 201 300 c 1
 201 180 l 2
 201 104 202 56 209 0 c 1
 207 -3 l 1
 207 -3 176.7 -0 142.6 -0 c 1
 124 -45 l 1
 132 -43 141 -42 150 -42 c 0
 190 -42 221 -66 221 -104 c 0
 221 -147 175 -175 114 -175 c 0
 82 -175 65 -169 40 -158 c 1
 50 -136 l 1
 77 -146 88 -150 108 -150 c 0
 138 -150 168 -136 168 -109 c 0
 168 -88 149 -74 126 -74 c 0
EndSplineSet
LCarets2: 1 0 
Colour: ff00ff
EndChar

StartChar: uni1E2A
Encoding: 7722 7722 171
Width: 748
VWidth: 999
Flags: HW
HStem: -199 57<274.968 411.898> -3 21<93 167 167 241 501 575 575 649> 311 52<217 543> 628 20<93 167 167 241 501 575 575 649>
VStem: 103 128<2.67992 642.32> 209 26<-92.195 -60.231> 452 27<-90.667 -60.37> 511 128<2.67992 642.32>
LayerCount: 2
Fore
SplineSet
511 445 m 2
 511 520 509 588 501 645 c 1
 503 648 l 1
 503 648 539 645 573 645 c 0
 608 645 644 648 644 648 c 1
 645 645 l 1
 637 592 635 520 635 445 c 2
 635 200 l 2
 635 125 637 57 645 0 c 1
 643 -3 l 1
 643 -3 607 0 573 0 c 0
 538 0 502 -3 502 -3 c 1
 501 0 l 1
 509 54 511 125 511 200 c 2
 511 311 l 1
 227 311 l 1
 227 200 l 2
 227 125 229 57 237 0 c 1
 235 -3 l 1
 235 -3 199 0 165 0 c 0
 130 0 94 -3 94 -3 c 1
 93 0 l 1
 101 54 103 125 103 200 c 2
 103 445 l 2
 103 520 101 588 93 645 c 1
 95 648 l 1
 95 648 131 645 165 645 c 0
 200 645 236 648 236 648 c 1
 237 645 l 1
 229 592 227 520 227 445 c 2
 227 363 l 1
 511 363 l 1
 511 445 l 2
249 -47 m 1
 251 -101 294 -141 357 -141 c 0
 404 -141 461 -111 464 -47 c 1
 496 -62 l 1
 486 -167 408 -205 357 -205 c 0
 276 -205 223 -143 216 -62 c 1
 249 -47 l 1
EndSplineSet
LCarets2: 1 0 
Colour: ff00ff
EndChar

StartChar: uni1E2B
Encoding: 7723 7723 172
Width: 570
VWidth: 999
Flags: HW
HStem: -209 57<209.968 346.898> -3 21<73 142 142 211 386 455 455 524> 373 66<277.694 380.574> 678 20<189.465 205.167>
VStem: 83 118<2.6647 318.568 360 667.98> 144 26<-102.195 -70.231> 387 27<-100.667 -70.37> 396 118<2.66453 358.781>
LayerCount: 2
Fore
SplineSet
184 -57 m 1
 186 -111 229 -151 292 -151 c 0
 339 -151 396 -121 399 -57 c 1
 431 -72 l 1
 421 -177 343 -215 292 -215 c 0
 211 -215 158 -153 151 -72 c 1
 184 -57 l 1
376 180 m 2
 376 276 l 2
 376 357 361.1 373 315 373 c 0
 286 373 245 346 201 300 c 1
 201 180 l 2
 201 104 202 56 209 0 c 1
 207 -3 l 1
 207 -3 176.3 0 142 0 c 0
 107 0 74 -3 74 -3 c 1
 73 0 l 1
 81.5 53.5 83 105 83 180 c 2
 83 473 l 2
 83 549 80.7 619.3 73 662 c 1
 75 665 l 1
 115.5 668 176.9 688 202 698 c 1
 208.3 698 211 695 211 688 c 0
 203.3 626.7 201 575 201 501 c 2
 201 360 l 1
 279 429 317 439 356 439 c 0
 396 439 422.9 431.4 449 412 c 0
 484 386 494 340 494 284 c 2
 494 180 l 2
 494 103.8 495.5 57 504 0 c 1
 502 -3 l 1
 502 -3 469.3 0 435 0 c 0
 400 0 369 -3 369 -3 c 1
 368 0 l 1
 374 53 376 105 376 180 c 2
EndSplineSet
Colour: ff00ff
EndChar

StartChar: uni1E2C
Encoding: 7724 7724 173
Width: 331
VWidth: 999
Flags: HW
HStem: -164 44<165 252> -116 46<47 138> -77 10 -3 21<96 170 170 244> 628 20<96 170 170 244>
VStem: 106 128<2.67992 642.32>
LayerCount: 2
Fore
SplineSet
231 -116 m 0
 253 -116 266 -107 280 -58 c 1
 308 -68 l 1
 295 -136 265 -176 217 -176 c 0
 194 -176 172 -161 152 -146 c 1
 132 -133 112 -120 94 -120 c 0
 67 -120 56 -135 45 -173 c 1
 19 -165 l 1
 33 -97 57 -59 102 -59 c 0
 133 -59 156 -75 176 -91 c 0
 194 -105 211 -116 231 -116 c 0
106 445 m 2
 106 520 104 588 96 645 c 1
 98 648 l 1
 98 648 134 645 168 645 c 0
 203 645 239 648 239 648 c 1
 240 645 l 1
 232 592 230 520 230 445 c 2
 230 200 l 2
 230 125 232 57 240 0 c 1
 238 -3 l 1
 238 -3 202 0 168 0 c 0
 133 0 97 -3 97 -3 c 1
 96 0 l 1
 104 54 106 125 106 200 c 2
 106 445 l 2
EndSplineSet
LCarets2: 1 0 
Colour: ff00ff
EndChar

StartChar: uni1E2D
Encoding: 7725 7725 174
Width: 306
VWidth: 999
Flags: HW
HStem: -164 44<162 249> -116 46<44 135> -77 10 -3 21<84 153 153 222> 419 20<200.5 216> 531 138<103.092 202.908>
VStem: 84 138<550.092 649.908> 94 118<2.6647 408.973>
LayerCount: 2
Fore
SplineSet
228 -116 m 0
 250 -116 263 -107 277 -58 c 1
 305 -68 l 1
 292 -136 262 -176 214 -176 c 0
 191 -176 169 -161 149 -146 c 1
 129 -133 109 -120 91 -120 c 0
 64 -120 53 -135 42 -173 c 1
 16 -165 l 1
 30 -97 54 -59 99 -59 c 0
 130 -59 153 -75 173 -91 c 0
 191 -105 208 -116 228 -116 c 0
88 600 m 0
 88 636 117 665 153 665 c 0
 189 665 218 636 218 600 c 0
 218 564 189 535 153 535 c 0
 117 535 88 564 88 600 c 0
94 235 m 2
 94 310 92 368 84 411 c 1
 86 414 l 1
 126 417 188 429 213 439 c 1
 219 439 222 436 222 429 c 0
 214 368 212 326 212 251 c 2
 212 180 l 2
 212 104 214 57 222 0 c 1
 220 -3 l 1
 220 -3 187 0 153 0 c 0
 118 0 85 -3 85 -3 c 1
 84 0 l 1
 92 54 94 105 94 180 c 2
 94 235 l 2
EndSplineSet
LCarets2: 1 0 
Colour: ff00ff
EndChar

StartChar: uni1E2E
Encoding: 7726 7726 175
Width: 331
VWidth: 999
Flags: HW
HStem: -3 21<96 170 170 244> 628 20<96 170 170 244> 704 90<13.481 90.519 203.301 279.653> 782.5 107.4
VStem: 7 90<710.481 787.519> 106 128<2.67992 642.32> 118.1 154.8 196 91<711.347 787.699>
LayerCount: 2
Fore
SplineSet
225.1 889.9 m 1
 272.9 844.1 l 1
 162 793 l 2
 145.8 785.1 135.8 782.5 128.9 782.5 c 0
 122 782.5 118.1 786.9 118.1 795.7 c 0
 118.1 801.9 119.6 806.3 129.6 814.2 c 2
 225.1 889.9 l 1
209 750 m 0
 209 774 230 795 254 795 c 0
 279 795 300 774 300 750 c 0
 300 725 279 704 254 704 c 0
 230 704 209 725 209 750 c 0
20 749 m 0
 20 774 40 794 65 794 c 0
 90 794 110 774 110 749 c 0
 110 724 90 704 65 704 c 0
 40 704 20 724 20 749 c 0
106 445 m 2
 106 520 104 588 96 645 c 1
 98 648 l 1
 98 648 134 645 168 645 c 0
 203 645 239 648 239 648 c 1
 240 645 l 1
 232 592 230 520 230 445 c 2
 230 200 l 2
 230 125 232 57 240 0 c 1
 238 -3 l 1
 238 -3 202 0 168 0 c 0
 133 0 97 -3 97 -3 c 1
 96 0 l 1
 104 54 106 125 106 200 c 2
 106 445 l 2
EndSplineSet
LCarets2: 1 0 
Colour: ff00ff
EndChar

StartChar: uni1E2F
Encoding: 7727 7727 176
Width: 306
VWidth: 999
Flags: HW
HStem: -3 21<84 153 153 222> 419 20<200.5 216> 527 92<18.3474 95.653 178.347 255.653>
VStem: 11 92<534.347 611.653> 94 118<2.6647 408.973> 171 92<534.347 611.653>
LayerCount: 2
Fore
SplineSet
197.2 742.7 m 1
 199.5 743.6 205.7 744.4 209.5 744.4 c 0
 232.6 744.4 247.2 732.1 253.4 723.3 c 1
 261.1 703.1 l 1
 168.7 608 l 2
 157.9 597.4 147.2 594 139.5 594 c 0
 133.3 594 127.1 601 127.1 606.3 c 0
 127.1 611.6 128.7 619.5 133.3 627.4 c 2
 197.2 742.7 l 1
188 571 m 0
 188 603 213 628 245 628 c 0
 275 628 301 603 301 571 c 0
 301 541 275 515 245 515 c 0
 213 515 188 541 188 571 c 0
-2 571 m 0
 -2 603 24 628 54 628 c 0
 86 628 111 603 111 571 c 0
 111 541 86 515 54 515 c 0
 24 515 -2 541 -2 571 c 0
94 235 m 2
 94 310 92 368 84 411 c 1
 86 414 l 1
 126 417 188 429 213 439 c 1
 219 439 222 436 222 429 c 0
 214 368 212 326 212 251 c 2
 212 180 l 2
 212 104 214 57 222 0 c 1
 220 -3 l 1
 220 -3 187 0 153 0 c 0
 118 0 85 -3 85 -3 c 1
 84 0 l 1
 92 54 94 105 94 180 c 2
 94 235 l 2
EndSplineSet
LCarets2: 1 0 
Colour: ff00ff
EndChar

StartChar: uni1E30
Encoding: 7728 7728 177
Width: 719
VWidth: 999
Flags: HW
HStem: -3 21<96 170 170 244 458 511.5 659.31 667.5> 324 25<223.092 248.714> 628 20<96 170 170 244 472.5 523.5 623 659> 697 122
VStem: 106 128<2.67992 642.32> 270 201
LayerCount: 2
Fore
SplineSet
409 819 m 1
 471 767 l 1
 327 709 l 2
 306 700 293 697 284 697 c 0
 275 697 270 702 270 712 c 0
 270 719 272 724 285 733 c 2
 409 819 l 1
106 445 m 2
 106 520 104 588 96 645 c 1
 98 648 l 1
 98 648 134 645 168 645 c 0
 203 645 239 648 239 648 c 1
 240 645 l 1
 232 592 230 520 230 445 c 2
 230 349.1 l 1
 235.1 349.6 245.1 351.9 252 358 c 0
 340 435 428 546 517 648 c 1
 530 645 583 645 596 645 c 0
 611 645 651 645 667 648 c 1
 579 571 431 433 363 354 c 1
 363 352 l 1
 677 -3 l 1
 658 0 614 0 595 0 c 0
 578 0 520 0 503 -3 c 1
 413 108 290 276 249 317 c 0
 244.2 321 235.1 323 230 323.7 c 1
 230 200 l 2
 230 125 232 57 240 0 c 1
 238 -3 l 1
 238 -3 202 0 168 0 c 0
 133 0 97 -3 97 -3 c 1
 96 0 l 1
 104 54 106 125 106 200 c 2
 106 445 l 2
EndSplineSet
LCarets2: 1 0 
Colour: ff00ff
EndChar

StartChar: uni1E31
Encoding: 7729 7729 178
Width: 546
VWidth: 999
Flags: HW
HStem: -3 21<75 144 144 213 343.524 386.667 538.5 545> 207 34<195 223.575> 412 20<512.5 524> 678 20<191.465 207.167>
VStem: 85 118<2.67975 667.981>
LayerCount: 2
Fore
SplineSet
359 674 m 1
 362 675 370 676 375 676 c 0
 405 676 424 662 432 652 c 1
 442 629 l 1
 322 521 l 2
 308 509 294 505 284 505 c 0
 276 505 268 513 268 519 c 0
 268 525 270 534 276 543 c 2
 359 674 l 1
75 200 m 2
 75 474 l 2
 75 550 72.7 619.3 65 662 c 1
 67 665 l 1
 107.5 668 168.9 688 194 698 c 1
 200.3 698 203 695 203 688 c 0
 195.3 626.7 193 575 193 500 c 2
 193 241.2 l 1
 204.2 242.2 220.5 247.1 232 256 c 0
 271.6 286.5 343.9 366.5 387 429 c 1
 414 429 497 429 516 432 c 1
 518 429 l 1
 453 373.9 370.4 278.9 331 238 c 1
 426.4 122.8 464.6 78.6 539 0 c 1
 537 -3 l 1
 528 -1.2 469.7 0 453 0 c 0
 436 0 388.3 -1.2 373 -3 c 1
 302 95.8 283 130 218 198 c 0
 210.5 204.7 200.3 206.5 193 206.9 c 1
 193 200 l 2
 193 124.8 194.5 57 203 0 c 1
 201 -3 l 1
 201 -3 168.3 0 134 0 c 0
 99 0 66 -3 66 -3 c 1
 65 0 l 1
 73.5 53.5 75 125 75 200 c 2
EndSplineSet
LCarets2: 1 0 
Colour: ff00ff
EndChar

StartChar: uni1E32
Encoding: 7730 7730 179
Width: 719
VWidth: 999
Flags: HW
HStem: -154 138<295.092 394.908> -3 21<96 170 170 244 458 511.5 659.31 667.5> 324 25<223.092 248.714> 628 20<96 170 170 244 472.5 523.5 623 659>
VStem: 106 128<2.67992 642.32> 276 138<-134.908 -35.092>
LayerCount: 2
Fore
SplineSet
280 -85 m 0
 280 -49 309 -20 345 -20 c 0
 381 -20 410 -49 410 -85 c 0
 410 -121 381 -150 345 -150 c 0
 309 -150 280 -121 280 -85 c 0
106 445 m 2
 106 520 104 588 96 645 c 1
 98 648 l 1
 98 648 134 645 168 645 c 0
 203 645 239 648 239 648 c 1
 240 645 l 1
 232 592 230 520 230 445 c 2
 230 349.1 l 1
 235.1 349.6 245.1 351.9 252 358 c 0
 340 435 428 546 517 648 c 1
 530 645 583 645 596 645 c 0
 611 645 651 645 667 648 c 1
 579 571 431 433 363 354 c 1
 363 352 l 1
 677 -3 l 1
 658 0 614 0 595 0 c 0
 578 0 520 0 503 -3 c 1
 413 108 290 276 249 317 c 0
 244.2 321 235.1 323 230 323.7 c 1
 230 200 l 2
 230 125 232 57 240 0 c 1
 238 -3 l 1
 238 -3 202 0 168 0 c 0
 133 0 97 -3 97 -3 c 1
 96 0 l 1
 104 54 106 125 106 200 c 2
 106 445 l 2
EndSplineSet
LCarets2: 1 0 
Colour: ff00ff
EndChar

StartChar: uni1E33
Encoding: 7731 7731 180
Width: 546
VWidth: 999
Flags: HW
HStem: -154 138<221.092 320.908> -3 21<75 144 144 213 343.524 386.667 538.5 545> 207 34<195 223.575> 412 20<512.5 524> 678 20<191.465 207.167>
VStem: 85 118<2.67975 667.981> 202 138<-134.908 -35.0922>
LayerCount: 2
Fore
SplineSet
206 -85 m 0
 206 -49 235 -20 271 -20 c 0
 307 -20 336 -49 336 -85 c 0
 336 -121 307 -150 271 -150 c 0
 235 -150 206 -121 206 -85 c 0
75 200 m 2
 75 474 l 2
 75 550 72.7 619.3 65 662 c 1
 67 665 l 1
 107.5 668 168.9 688 194 698 c 1
 200.3 698 203 695 203 688 c 0
 195.3 626.7 193 575 193 500 c 2
 193 241.2 l 1
 204.2 242.2 220.5 247.1 232 256 c 0
 271.6 286.5 343.9 366.5 387 429 c 1
 414 429 497 429 516 432 c 1
 518 429 l 1
 453 373.9 370.4 278.9 331 238 c 1
 426.4 122.8 464.6 78.6 539 0 c 1
 537 -3 l 1
 528 -1.2 469.7 0 453 0 c 0
 436 0 388.3 -1.2 373 -3 c 1
 302 95.8 283 130 218 198 c 0
 210.5 204.7 200.3 206.5 193 206.9 c 1
 193 200 l 2
 193 124.8 194.5 57 203 0 c 1
 201 -3 l 1
 201 -3 168.3 0 134 0 c 0
 99 0 66 -3 66 -3 c 1
 65 0 l 1
 73.5 53.5 75 125 75 200 c 2
EndSplineSet
LCarets2: 1 0 
Colour: ff00ff
EndChar

StartChar: uni1E34
Encoding: 7732 7732 181
Width: 719
VWidth: 999
Flags: HW
HStem: -106 44<200 211 211 478> -3 21<96 170 170 244 458 511.5 659.31 667.5> 324 25<223.092 248.714> 628 20<96 170 170 244 472.5 523.5 623 659>
VStem: 106 128<2.67992 642.32>
LayerCount: 2
Fore
SplineSet
456 -106 m 2
 211 -106 l 2
 203 -106 199 -98 199 -91 c 0
 199 -79 209 -62 221 -62 c 2
 466 -62 l 2
 475 -62 479 -69 479 -76 c 0
 479 -88 469 -106 456 -106 c 2
106 445 m 2
 106 520 104 588 96 645 c 1
 98 648 l 1
 98 648 134 645 168 645 c 0
 203 645 239 648 239 648 c 1
 240 645 l 1
 232 592 230 520 230 445 c 2
 230 349.1 l 1
 235.1 349.6 245.1 351.9 252 358 c 0
 340 435 428 546 517 648 c 1
 530 645 583 645 596 645 c 0
 611 645 651 645 667 648 c 1
 579 571 431 433 363 354 c 1
 363 352 l 1
 677 -3 l 1
 658 0 614 0 595 0 c 0
 578 0 520 0 503 -3 c 1
 413 108 290 276 249 317 c 0
 244.2 321 235.1 323 230 323.7 c 1
 230 200 l 2
 230 125 232 57 240 0 c 1
 238 -3 l 1
 238 -3 202 0 168 0 c 0
 133 0 97 -3 97 -3 c 1
 96 0 l 1
 104 54 106 125 106 200 c 2
 106 445 l 2
EndSplineSet
LCarets2: 1 0 
Colour: ff00ff
EndChar

StartChar: uni1E35
Encoding: 7733 7733 182
Width: 546
VWidth: 999
Flags: HW
HStem: -107 44<124 135 135 402> -3 21<75 144 144 213 343.524 386.667 538.5 545> 207 34<195 223.575> 412 20<512.5 524> 678 20<191.465 207.167>
VStem: 85 118<2.67975 667.981>
LayerCount: 2
Fore
SplineSet
380 -107 m 2
 135 -107 l 2
 127 -107 123 -99 123 -92 c 0
 123 -80 133 -63 145 -63 c 2
 390 -63 l 2
 399 -63 403 -70 403 -77 c 0
 403 -89 393 -107 380 -107 c 2
75 200 m 2
 75 474 l 2
 75 550 72.7 619.3 65 662 c 1
 67 665 l 1
 107.5 668 168.9 688 194 698 c 1
 200.3 698 203 695 203 688 c 0
 195.3 626.7 193 575 193 500 c 2
 193 241.2 l 1
 204.2 242.2 220.5 247.1 232 256 c 0
 271.6 286.5 343.9 366.5 387 429 c 1
 414 429 497 429 516 432 c 1
 518 429 l 1
 453 373.9 370.4 278.9 331 238 c 1
 426.4 122.8 464.6 78.6 539 0 c 1
 537 -3 l 1
 528 -1.2 469.7 0 453 0 c 0
 436 0 388.3 -1.2 373 -3 c 1
 302 95.8 283 130 218 198 c 0
 210.5 204.7 200.3 206.5 193 206.9 c 1
 193 200 l 2
 193 124.8 194.5 57 203 0 c 1
 201 -3 l 1
 201 -3 168.3 0 134 0 c 0
 99 0 66 -3 66 -3 c 1
 65 0 l 1
 73.5 53.5 75 125 75 200 c 2
EndSplineSet
LCarets2: 1 0 
Colour: ff00ff
EndChar

StartChar: uni1E36
Encoding: 7734 7734 183
Width: 568
VWidth: 999
Flags: HW
HStem: -154 138<246.092 345.908> 0 63<235.662 467.105> 628 20<92 167 167 241>
VStem: 103 128<64.202 642.32> 227 138<-134.908 -35.092>
LayerCount: 2
Fore
SplineSet
231 -85 m 0
 231 -49 260 -20 296 -20 c 0
 332 -20 361 -49 361 -85 c 0
 361 -121 332 -150 296 -150 c 0
 260 -150 231 -121 231 -85 c 0
227 200 m 2
 227 183 228 95 235 71 c 1
 369 71 521 83 521 83 c 1
 523 79 l 1
 522 71 521 52 521 42 c 0
 521 32 522 14 523 0 c 1
 521 -3 l 1
 505 -1 482 0 461 0 c 2
 167 0 l 2
 133 0 94 -3 94 -3 c 1
 93 0 l 1
 101 54 103 125 103 200 c 2
 103 445 l 2
 103 520 100 588 92 645 c 1
 94 648 l 1
 94 648 129 645 163 645 c 0
 198 645 236 648 236 648 c 1
 237 645 l 1
 229 592 227 520 227 445 c 2
 227 200 l 2
EndSplineSet
LCarets2: 1 0 
Colour: ff00ff
EndChar

StartChar: uni1E37
Encoding: 7735 7735 184
Width: 278
VWidth: 999
Flags: HW
HStem: -154 138<91.092 190.908> -3 21<70 139 139 208> 678 20<186.465 202.167>
VStem: 72 138<-134.908 -35.0922> 80 118<2.67975 667.981>
LayerCount: 2
Fore
SplineSet
80 200 m 2
 80 474 l 2
 80 550 77.7 619.3 70 662 c 1
 72 665 l 1
 112.5 668 173.9 688 199 698 c 1
 205.3 698 208 695 208 688 c 0
 200.3 626.7 198 575 198 500 c 2
 198 200 l 2
 198 124.8 199.5 57 208 0 c 1
 206 -3 l 1
 206 -3 173.3 0 139 0 c 0
 104 0 71 -3 71 -3 c 1
 70 0 l 1
 78.5 53.5 80 125 80 200 c 2
76 -85 m 0
 76 -49 105 -20 141 -20 c 0
 177 -20 206 -49 206 -85 c 0
 206 -121 177 -150 141 -150 c 0
 105 -150 76 -121 76 -85 c 0
EndSplineSet
LCarets2: 1 0 
Colour: ff00ff
EndChar

StartChar: uni1E38
Encoding: 7736 7736 185
Width: 568
VWidth: 999
Flags: HW
HStem: -154 138<246.092 345.908> 0 63<235.662 467.105> 628 20<92 167 167 241> 733 44<11.0876 289.515>
VStem: 10 281<733.205 777> 103 128<64.202 642.32> 227 138<-134.908 -35.092>
LayerCount: 2
Fore
SplineSet
294 730 m 2
 20 730 l 2
 9 730 5 739 5 748 c 0
 5 760 17 780 30 780 c 2
 306 780 l 2
 316 780 320 771 320 763 c 0
 320 750 308 730 294 730 c 2
231 -85 m 0
 231 -49 260 -20 296 -20 c 0
 332 -20 361 -49 361 -85 c 0
 361 -121 332 -150 296 -150 c 0
 260 -150 231 -121 231 -85 c 0
227 200 m 2
 227 183 228 95 235 71 c 1
 369 71 521 83 521 83 c 1
 523 79 l 1
 522 71 521 52 521 42 c 0
 521 32 522 14 523 0 c 1
 521 -3 l 1
 505 -1 482 0 461 0 c 2
 167 0 l 2
 133 0 94 -3 94 -3 c 1
 93 0 l 1
 101 54 103 125 103 200 c 2
 103 445 l 2
 103 520 100 588 92 645 c 1
 94 648 l 1
 94 648 129 645 163 645 c 0
 198 645 236 648 236 648 c 1
 237 645 l 1
 229 592 227 520 227 445 c 2
 227 200 l 2
EndSplineSet
LCarets2: 1 0 
Colour: ff00ff
EndChar

StartChar: uni1E39
Encoding: 7737 7737 186
Width: 278
VWidth: 999
Flags: HW
HStem: -154 138<91.092 190.908> -3 21<70 139 139 208> 678 20<186.465 202.167> 756 44<-24.9124 253.515>
VStem: -26 281<756.205 800> 72 138<-134.908 -35.0922> 80 118<2.67975 667.981>
LayerCount: 2
Fore
SplineSet
80 200 m 2
 80 474 l 2
 80 550 77.7 619.3 70 662 c 1
 72 665 l 1
 112.5 668 173.9 688 199 698 c 1
 205.3 698 208 695 208 688 c 0
 200.3 626.7 198 575 198 500 c 2
 198 200 l 2
 198 124.8 199.5 57 208 0 c 1
 206 -3 l 1
 206 -3 173.3 0 139 0 c 0
 104 0 71 -3 71 -3 c 1
 70 0 l 1
 78.5 53.5 80 125 80 200 c 2
76 -85 m 0
 76 -49 105 -20 141 -20 c 0
 177 -20 206 -49 206 -85 c 0
 206 -121 177 -150 141 -150 c 0
 105 -150 76 -121 76 -85 c 0
258 753 m 2
 -16 753 l 2
 -27 753 -31 762 -31 771 c 0
 -31 783 -19 803 -6 803 c 2
 270 803 l 2
 280 803 284 794 284 786 c 0
 284 773 272 753 258 753 c 2
EndSplineSet
LCarets2: 1 0 
Colour: ff00ff
EndChar

StartChar: uni1E3A
Encoding: 7738 7738 187
Width: 568
VWidth: 999
Flags: HW
HStem: -112 44<132 143 143 410> 0 63<235.662 467.105> 628 20<92 167 167 241>
VStem: 103 128<64.202 642.32>
LayerCount: 2
Fore
SplineSet
388 -112 m 2
 143 -112 l 2
 135 -112 131 -104 131 -97 c 0
 131 -85 141 -68 153 -68 c 2
 398 -68 l 2
 407 -68 411 -75 411 -82 c 0
 411 -94 401 -112 388 -112 c 2
227 200 m 2
 227 183 228 95 235 71 c 1
 369 71 521 83 521 83 c 1
 523 79 l 1
 522 71 521 52 521 42 c 0
 521 32 522 14 523 0 c 1
 521 -3 l 1
 505 -1 482 0 461 0 c 2
 167 0 l 2
 133 0 94 -3 94 -3 c 1
 93 0 l 1
 101 54 103 125 103 200 c 2
 103 445 l 2
 103 520 100 588 92 645 c 1
 94 648 l 1
 94 648 129 645 163 645 c 0
 198 645 236 648 236 648 c 1
 237 645 l 1
 229 592 227 520 227 445 c 2
 227 200 l 2
EndSplineSet
LCarets2: 1 0 
Colour: ff00ff
EndChar

StartChar: uni1E3B
Encoding: 7739 7739 188
Width: 278
VWidth: 999
Flags: HW
HStem: -112 44<-19 -8 -8 259> -3 21<70 139 139 208> 678 20<186.465 202.167>
VStem: 80 118<2.67975 667.981>
LayerCount: 2
Fore
SplineSet
80 200 m 2
 80 474 l 2
 80 550 77.7 619.3 70 662 c 1
 72 665 l 1
 112.5 668 173.9 688 199 698 c 1
 205.3 698 208 695 208 688 c 0
 200.3 626.7 198 575 198 500 c 2
 198 200 l 2
 198 124.8 199.5 57 208 0 c 1
 206 -3 l 1
 206 -3 173.3 0 139 0 c 0
 104 0 71 -3 71 -3 c 1
 70 0 l 1
 78.5 53.5 80 125 80 200 c 2
237 -112 m 2
 -8 -112 l 2
 -16 -112 -20 -104 -20 -97 c 0
 -20 -85 -10 -68 2 -68 c 2
 247 -68 l 2
 256 -68 260 -75 260 -82 c 0
 260 -94 250 -112 237 -112 c 2
EndSplineSet
LCarets2: 1 0 
Colour: ff00ff
EndChar

StartChar: uni1E3C
Encoding: 7740 7740 189
Width: 568
VWidth: 999
Flags: HW
HStem: 0 63<235.662 467.105> 628 20<92 167 167 241>
VStem: 103 128<64.202 642.32> 155 253<-186 -186>
LayerCount: 2
Fore
SplineSet
320 -54 m 1
 350 -103 388 -147 425 -188 c 1
 400 -207 l 1
 357 -181 328 -161 293 -124 c 1
 255 -163 227 -181 187 -207 c 1
 162 -188 l 1
 198 -147 238 -102 268 -54 c 1
 320 -54 l 1
227 200 m 2
 227 183 228 95 235 71 c 1
 369 71 521 83 521 83 c 1
 523 79 l 1
 522 71 521 52 521 42 c 0
 521 32 522 14 523 0 c 1
 521 -3 l 1
 505 -1 482 0 461 0 c 2
 167 0 l 2
 133 0 94 -3 94 -3 c 1
 93 0 l 1
 101 54 103 125 103 200 c 2
 103 445 l 2
 103 520 100 588 92 645 c 1
 94 648 l 1
 94 648 129 645 163 645 c 0
 198 645 236 648 236 648 c 1
 237 645 l 1
 229 592 227 520 227 445 c 2
 227 200 l 2
EndSplineSet
LCarets2: 1 0 
Colour: ff00ff
EndChar

StartChar: uni1E3D
Encoding: 7741 7741 190
Width: 278
VWidth: 999
Flags: HW
HStem: -3 21<70 139 139 208> 678 20<186.465 202.167>
VStem: -4 253<-186 -186> 80 118<2.67975 667.981>
LayerCount: 2
Fore
SplineSet
80 200 m 2
 80 474 l 2
 80 550 77.7 619.3 70 662 c 1
 72 665 l 1
 112.5 668 173.9 688 199 698 c 1
 205.3 698 208 695 208 688 c 0
 200.3 626.7 198 575 198 500 c 2
 198 200 l 2
 198 124.8 199.5 57 208 0 c 1
 206 -3 l 1
 206 -3 173.3 0 139 0 c 0
 104 0 71 -3 71 -3 c 1
 70 0 l 1
 78.5 53.5 80 125 80 200 c 2
161 -54 m 1
 191 -103 229 -147 266 -188 c 1
 241 -207 l 1
 198 -181 169 -161 134 -124 c 1
 96 -163 68 -181 28 -207 c 1
 3 -188 l 1
 39 -147 79 -102 109 -54 c 1
 161 -54 l 1
EndSplineSet
LCarets2: 1 0 
Colour: ff00ff
EndChar

StartChar: uni1E3E
Encoding: 7742 7742 191
Width: 891
VWidth: 999
Flags: HW
HStem: -3 21<46.5 57.5 132.5 138.486 362.88 474.552 718.173 732.5 829.5 837.5> 452.1 20<166.683 172.569> 697 122
VStem: 325 201
LayerCount: 2
Fore
SplineSet
464 819 m 1
 526 767 l 1
 382 709 l 2
 361 700 348 697 339 697 c 0
 330 697 325 702 325 712 c 0
 325 719 327 724 340 733 c 2
 464 819 l 1
153 662 m 1
 214 662 l 1
 292.8 498.9 366.7 342.7 453.4 180.8 c 1
 713 662 l 1
 772 662 l 1
 800 419 819 214 850 -3 c 1
 835 0 804 0 789 0 c 0
 774 0 745 0 730 -3 c 1
 716.3 162.8 703.7 315.2 684.5 472.9 c 1
 600.6 318.1 516.1 166.7 443 0 c 1
 408 0 l 1
 341 142.2 263.3 290.2 187.6 438.7 c 1
 169 286.6 138.9 93.8 138 -3 c 1
 127 0 101 0 90 0 c 0
 78 0 52 0 41 -3 c 1
 78 198 120 448 153 662 c 1
EndSplineSet
LCarets2: 1 0 
Colour: ff00ff
EndChar

StartChar: uni1E3F
Encoding: 7743 7743 192
Width: 835
VWidth: 999
Flags: HW
HStem: -3 21<70 139 139 208 370 439 439 508 671 740 740 809> 372 67<264.093 357.803 559.539 663.941>
VStem: 80 118<2.6647 320.957> 380 118<2.6647 301.443> 681 118<2.66453 356.315>
LayerCount: 2
Fore
SplineSet
400 674 m 1
 403 675 411 676 416 676 c 0
 446 676 465 662 473 652 c 1
 483 629 l 1
 363 521 l 2
 349 509 335 505 325 505 c 0
 317 505 309 513 309 519 c 0
 309 525 311 534 317 543 c 2
 400 674 l 1
637 180 m 2
 637 283 l 2
 637 350 627 372 573 372 c 0
 534 372 521 355 473 302 c 1
 474 290 474 286 474 272 c 2
 474 180 l 2
 474 104 475.5 57 484 0 c 1
 482 -3 l 1
 482 -3 453.3 0 419 0 c 0
 384 0 351 -3 351 -3 c 1
 350 0 l 1
 358.5 53.5 360 105 360 180 c 2
 360 281 l 2
 360 348 335 372 297 372 c 0
 262 372 245 350 198 301 c 1
 198 180 l 2
 198 104 199.5 57 208 0 c 1
 206 -3 l 1
 206 -3 173.3 0 139 0 c 0
 104 0 71 -3 71 -3 c 1
 70 0 l 1
 78.5 53.5 80 105 80 180 c 2
 80 235 l 2
 80 309.7 77.7 368.3 70 411 c 1
 72 414 l 1
 112.5 417 170.9 429 196 439 c 1
 202.3 439 205 436 205 429 c 1
 200 398.7 195.8 360 195.8 360 c 1
 198 360 l 1
 245 410 271 439 333 439 c 0
 389 439 460 405 467 360 c 1
 524 420 555 439 609 439 c 0
 717 439 755 369 755 280 c 2
 755 180 l 2
 755 103.8 756.5 57 765 0 c 1
 763 -3 l 1
 763 -3 730.3 0 696 0 c 0
 661 0 628 -3 628 -3 c 1
 627 0 l 1
 635.5 53.5 637 105 637 180 c 2
EndSplineSet
LCarets2: 1 0 
Colour: ff00ff
EndChar

StartChar: uni1E40
Encoding: 7744 7744 193
Width: 891
VWidth: 999
Flags: HW
HStem: -3 21<46.5 57.5 132.5 138.486 362.88 474.552 718.173 732.5 829.5 837.5> 452.1 20<166.683 172.569> 706 138<394.092 493.908>
VStem: 375 138<725.092 824.908>
LayerCount: 2
Fore
SplineSet
379 775 m 0
 379 811 408 840 444 840 c 0
 480 840 509 811 509 775 c 0
 509 739 480 710 444 710 c 0
 408 710 379 739 379 775 c 0
153 662 m 1
 214 662 l 1
 292.8 498.9 366.7 342.7 453.4 180.8 c 1
 713 662 l 1
 772 662 l 1
 800 419 819 214 850 -3 c 1
 835 0 804 0 789 0 c 0
 774 0 745 0 730 -3 c 1
 716.3 162.8 703.7 315.2 684.5 472.9 c 1
 600.6 318.1 516.1 166.7 443 0 c 1
 408 0 l 1
 341 142.2 263.3 290.2 187.6 438.7 c 1
 169 286.6 138.9 93.8 138 -3 c 1
 127 0 101 0 90 0 c 0
 78 0 52 0 41 -3 c 1
 78 198 120 448 153 662 c 1
EndSplineSet
LCarets2: 1 0 
Colour: ff00ff
EndChar

StartChar: uni1E41
Encoding: 7745 7745 194
Width: 835
VWidth: 999
Flags: HW
HStem: -3 21<70 139 139 208 370 439 439 508 671 740 740 809> 372 67<264.093 357.803 559.539 663.941> 534 138<337.092 436.908>
VStem: 80 118<2.6647 320.957> 318 138<553.092 652.908> 380 118<2.6647 301.443> 681 118<2.66453 356.315>
LayerCount: 2
Fore
SplineSet
322 603 m 0
 322 639 351 668 387 668 c 0
 423 668 452 639 452 603 c 0
 452 567 423 538 387 538 c 0
 351 538 322 567 322 603 c 0
637 180 m 2
 637 283 l 2
 637 350 627 372 573 372 c 0
 534 372 521 355 473 302 c 1
 474 290 474 286 474 272 c 2
 474 180 l 2
 474 104 475.5 57 484 0 c 1
 482 -3 l 1
 482 -3 453.3 0 419 0 c 0
 384 0 351 -3 351 -3 c 1
 350 0 l 1
 358.5 53.5 360 105 360 180 c 2
 360 281 l 2
 360 348 335 372 297 372 c 0
 262 372 245 350 198 301 c 1
 198 180 l 2
 198 104 199.5 57 208 0 c 1
 206 -3 l 1
 206 -3 173.3 0 139 0 c 0
 104 0 71 -3 71 -3 c 1
 70 0 l 1
 78.5 53.5 80 105 80 180 c 2
 80 235 l 2
 80 309.7 77.7 368.3 70 411 c 1
 72 414 l 1
 112.5 417 170.9 429 196 439 c 1
 202.3 439 205 436 205 429 c 1
 200 398.7 195.8 360 195.8 360 c 1
 198 360 l 1
 245 410 271 439 333 439 c 0
 389 439 460 405 467 360 c 1
 524 420 555 439 609 439 c 0
 717 439 755 369 755 280 c 2
 755 180 l 2
 755 103.8 756.5 57 765 0 c 1
 763 -3 l 1
 763 -3 730.3 0 696 0 c 0
 661 0 628 -3 628 -3 c 1
 627 0 l 1
 635.5 53.5 637 105 637 180 c 2
EndSplineSet
LCarets2: 1 0 
Colour: ff00ff
EndChar

StartChar: uni1E42
Encoding: 7746 7746 195
Width: 891
VWidth: 999
Flags: HW
HStem: -154 138<365.092 464.908> -3 21<46.5 57.5 132.5 138.486 362.88 474.552 718.173 732.5 829.5 837.5> 452.1 20<166.683 172.569>
VStem: 346 138<-134.908 -35.092>
LayerCount: 2
Fore
SplineSet
350 -85 m 0
 350 -49 379 -20 415 -20 c 0
 451 -20 480 -49 480 -85 c 0
 480 -121 451 -150 415 -150 c 0
 379 -150 350 -121 350 -85 c 0
153 662 m 1
 214 662 l 1
 292.8 498.9 366.7 342.7 453.4 180.8 c 1
 713 662 l 1
 772 662 l 1
 800 419 819 214 850 -3 c 1
 835 0 804 0 789 0 c 0
 774 0 745 0 730 -3 c 1
 716.3 162.8 703.7 315.2 684.5 472.9 c 1
 600.6 318.1 516.1 166.7 443 0 c 1
 408 0 l 1
 341 142.2 263.3 290.2 187.6 438.7 c 1
 169 286.6 138.9 93.8 138 -3 c 1
 127 0 101 0 90 0 c 0
 78 0 52 0 41 -3 c 1
 78 198 120 448 153 662 c 1
EndSplineSet
LCarets2: 1 0 
Colour: ff00ff
EndChar

